/* XPM */
static char * coffee_xpm[] = {
"81 81 245 2",
"  	c #646364",
". 	c #747373",
"+ 	c #838383",
"@ 	c #7B7B7B",
"# 	c #797675",
"$ 	c #8A8986",
"% 	c #726F71",
"& 	c #7A7679",
"* 	c #817E7C",
"= 	c #8B8B8B",
"- 	c #92918E",
"; 	c #939493",
"> 	c #A3A3A3",
", 	c #928E8C",
"' 	c #9A9996",
") 	c #A5A8A4",
"! 	c #ACACAB",
"~ 	c #B3B3B3",
"{ 	c #BAB9B6",
"] 	c #ABAAA5",
"^ 	c #C8C8C7",
"/ 	c #BEC1BD",
"( 	c #D8D7D5",
"_ 	c #8D939A",
": 	c #A4A5A9",
"< 	c #AAA6A5",
"[ 	c #B3B2AD",
"} 	c #898684",
"| 	c #999594",
"1 	c #9B9B9B",
"2 	c #969995",
"3 	c #AFB0AE",
"4 	c #B7B7B7",
"5 	c #82817E",
"6 	c #7A7976",
"7 	c #625D5D",
"8 	c #6C6B6C",
"9 	c #8C8D91",
"0 	c #5A5956",
"a 	c #5C5B5C",
"b 	c #4B4B4C",
"c 	c #8A8789",
"d 	c #50413F",
"e 	c #A2A19E",
"f 	c #A19E9C",
"g 	c #969A9B",
"h 	c #757679",
"i 	c #9DA2A2",
"j 	c #696665",
"k 	c #979BA1",
"l 	c #9D9EA1",
"m 	c #6A6967",
"n 	c #716E6D",
"o 	c #696669",
"p 	c #99979A",
"q 	c #444344",
"r 	c #A6A9AB",
"s 	c #C6BBB8",
"t 	c #BCBDBB",
"u 	c #95969A",
"v 	c #A59DA2",
"w 	c #858689",
"x 	c #545354",
"y 	c #53514E",
"z 	c #595655",
"A 	c #55555A",
"B 	c #76797B",
"C 	c #39383A",
"D 	c #72716E",
"E 	c #484648",
"F 	c #58595B",
"G 	c #858A8B",
"H 	c #8E9193",
"I 	c #8D918D",
"J 	c #767877",
"K 	c #C7C2BB",
"L 	c #D2CBCB",
"M 	c #868985",
"N 	c #635E62",
"O 	c #827E83",
"P 	c #5D605F",
"Q 	c #7E8183",
"R 	c #62615F",
"S 	c #9DA19C",
"T 	c #D8D5CB",
"U 	c #FEFCF4",
"V 	c #7C827C",
"W 	c #EBE7E6",
"X 	c #B4ABA8",
"Y 	c #9FA6AA",
"Z 	c #FDF5EA",
"` 	c #F7EBE6",
" .	c #A69996",
"..	c #ADB2B2",
"+.	c #BBBDC1",
"@.	c #6D6E72",
"#.	c #E6D9D7",
"$.	c #787469",
"%.	c #8A837B",
"&.	c #ABADB2",
"*.	c #666867",
"=.	c #4E4E51",
"-.	c #6E7273",
";.	c #FEF4E4",
">.	c #98847B",
",.	c #FEFCEC",
"'.	c #878893",
").	c #7D7E81",
"!.	c #99938D",
"~.	c #C8B7AC",
"{.	c #FCFAFA",
"].	c #FBF5F5",
"^.	c #8B7676",
"/.	c #D8C7B9",
"(.	c #F0D6B9",
"_.	c #E6CAB6",
":.	c #9A8886",
"<.	c #4E504F",
"[.	c #A8A299",
"}.	c #F7ECD6",
"|.	c #CCAA94",
"1.	c #C4A28B",
"2.	c #B5A295",
"3.	c #3D3A44",
"4.	c #32282F",
"5.	c #F5DAC9",
"6.	c #CDAF9A",
"7.	c #CDAC9A",
"8.	c #A5958A",
"9.	c #5D5D61",
"0.	c #BFC3C3",
"a.	c #BCB2A8",
"b.	c #5E6164",
"c.	c #AEB6B8",
"d.	c #55494A",
"e.	c #E9D5C5",
"f.	c #FAE9D9",
"g.	c #948D93",
"h.	c #BB9787",
"i.	c #C7A697",
"j.	c #7F8587",
"k.	c #666A6B",
"l.	c #6E716D",
"m.	c #4E5254",
"n.	c #DBC1AA",
"o.	c #BA9A96",
"p.	c #6C685C",
"q.	c #674649",
"r.	c #79635B",
"s.	c #030103",
"t.	c #282327",
"u.	c #7A6566",
"v.	c #44373B",
"w.	c #170205",
"x.	c #6D777A",
"y.	c #14151B",
"z.	c #090615",
"A.	c #171626",
"B.	c #04040B",
"C.	c #484753",
"D.	c #3E3A51",
"E.	c #D7B8A6",
"F.	c #D0B4AC",
"G.	c #E9E3DB",
"H.	c #8F6E6E",
"I.	c #6C5756",
"J.	c #665E66",
"K.	c #F5F5F5",
"L.	c #F5D7D4",
"M.	c #A58A88",
"N.	c #362936",
"O.	c #4A3946",
"P.	c #FDF6FC",
"Q.	c #271B29",
"R.	c #554D62",
"S.	c #676472",
"T.	c #B39CA7",
"U.	c #997977",
"V.	c #1B2635",
"W.	c #331C2C",
"X.	c #725C71",
"Y.	c #795A65",
"Z.	c #705250",
"`.	c #0C0104",
" +	c #866867",
".+	c #220204",
"++	c #180917",
"@+	c #2D0B12",
"#+	c #693B4B",
"$+	c #775857",
"%+	c #85625B",
"&+	c #656569",
"*+	c #4E2B34",
"=+	c #865657",
"-+	c #A67773",
";+	c #6C2D30",
">+	c #601C1D",
",+	c #541818",
"'+	c #553848",
")+	c #A77E88",
"!+	c #9D7A82",
"~+	c #33211D",
"{+	c #924934",
"]+	c #975850",
"^+	c #D99E96",
"/+	c #C39B89",
"(+	c #AC5849",
"_+	c #8C372D",
":+	c #B7502D",
"<+	c #E79264",
"[+	c #B15135",
"}+	c #BB6241",
"|+	c #D26D45",
"1+	c #C95832",
"2+	c #A83A1D",
"3+	c #FFBF93",
"4+	c #734238",
"5+	c #DEE3DF",
"6+	c #DD663B",
"7+	c #C6BDC2",
"8+	c #0B020B",
"9+	c #877C84",
"0+	c #554B54",
"a+	c #E3BCAA",
"b+	c #784956",
"c+	c #C49B94",
"d+	c #DBBCA3",
"e+	c #E4C4AA",
"f+	c #D3B49C",
"g+	c #76484B",
"h+	c #D6B89B",
"i+	c #C8A68C",
"j+	c #190F27",
"k+	c #6B7785",
"l+	c #BEA089",
"m+	c #0D131E",
"n+	c #7E8A93",
"o+	c #757982",
"p+	c #814D58",
"q+	c #B48778",
"r+	c #8A5965",
"s+	c #555A60",
"t+	c #F0BFB1",
"u+	c #7B6A79",
"v+	c #8F9186",
"  . + @     . . # $ % . & * $ * * * = - $ $ + # ; > , '   $ ) ! ~ { ] { ^ / ( _ . : ~ - ; { < , $ { [ [ + } @ | 1 ' | 2 3 4 ( : _ + + @ 5 6 7 8 * 9 ;     + & = + ",
"0 a   8 b a = * * $ * 8 c ; @ d + ; $ + @ 1 1 + . 5 = - 1 . ; - = e f 1 > > > g h ; i = - [ f 6 j ] < | ' - 1 - @ 0 + > > ; h k l + . = ; m m n c | . . ; @ 8 o o ",
"+ n # $ 5 = ' = ; 1 c @ $ p + q . ; < 1 1 1 [ ^ e ; ! ^ ^ - $ > ] 1 ; 1 r > l 1 = | ' 4 ^ [ [ ] * [ s { t [ ~ ] 3 + ~ ~ ! ! h u : g ! t 1 ' < f v 1 w ! ! 1 ; ; @ ",
"x b   8 y z   j * $ @ j   a z 0 a 0 . + & 5 - $ 6 . 5 5 @   * 6 5 $ # * + & . @ + = - $ + = e 5 m $ + - 5 } $ | + a + @ 1 9 A B + + > $   ; ; | = . z . 5 = = & o ",
"a 8 q q y z 8 b z @ = a 8 @ 8 = | 0 C + ; e 8 8 1 = e } D e < # . e , | , + * - { { $ & - e [ e ] ' E m + $ = =     ; ; = F . G H I $ + *   8 @ & & 8 . @ a J + o ",
"c = n x + + $ @   . @ ; | | 1 = 2 : B | > > ; > ! ] ] ~ { { [ [ ] ] e ! [ e ] ! 4 ! 5 ' / ~ t / { [ = > { t t 4 ! K L { r | 4 ^ ^ / ^ K ! > > 3 ~ { { ! ; M ! > ; ",
". @ 8 0 $ + * @ @ 8 N # o o = g ; + & M $ | $ + = $ f e ] ] e [ ; 5 $ a   @ $ e $ - + @ @ $ | | > - $ [ > 1 | 2 & @ $ @ = 8 + = ; ' | = > @ # O @ f = $ I 8 5 = ; ",
"@ & m o + 6 @ + $ @ & @ j o 9 ; ! ; P Q 1 ; R 6 | 1 e S > e e [ > 1 ] b R ! e K ^ T { - + i : t t + x $ '   + ' + o 8 > 1 1 - 2 1 ; ; 1 : @ o = = | = $ - 8 + 1 | ",
"  8 . 6 6 5 # @ + @ # + @ & > = 1 1 @ I + @   + | 1 1 > < ] ] > ~ > ! Q + 3 ' L U U / - g ; r = 8 . o + @ . > 4 ] = | L ! ~ t ) ! ! > > r | l 4 > > e > ; 1 + + = ",
"o   a   . & & @ + . . = + . | > @ V 8   0 o   + 1 = > ~ r ] e S 1 > > = . 2 ( U W X [ e 2 i 1 w 1 ( ^ ! { ^ ; 1 =   + ~ [ [ ) > ! 1 > 1 1 + ; 1 1 | 1 ; > @ 8 . + ",
". . R 0 . . + & + .   & @ 8 ; 1 1 1   o . o b o > > ; e [ > e ] ; ; Y = & e U Z `  .e ] ) ) : 3 ..+.4 : 4 ~ = ; t @ + t > | ! K e 1 > > 1 & $ r > e 1 r ~ @.@ $ = ",
"N j   y 0 a   D P q x o b C $ ; ; ; b a $ . C a + r ..> > 1 ) S 3 ! ! @ $ T U U #.$.%.5 $ 1 i g Q 9 &.&.t ! = $ 1 .   $ & @ . 6 m @ + B *.E $ > 1 1 > + F =.@.. o ",
"j % .   b C . J @ P b . @ 8 0   * 8   o 0 & P   & o ; > | ; $ - 1 ; -.. f { T ;.;.s K s ^ 4 l u Q i ....4 > -.I $ $ 8 a . ; = . + . ; p H 0 a 6 + + . C E @.+ + + ",
". # . @ . 0 . 8 @ + & + = | o j $ $ > > | > ! C q x   . & @ 8 R E   x F n # >.K U ,.U U U ( G u -.w r ..> 1 > ~ ~ > ~ r > r 1 r ^ l 1 ! r + . ; = ' @.@.'.h + = | ",
"    8   m   o . . m 8 & . + # 8 - + $ $ = $ > a 0 > ; ; ; ; ; $ $ i ~ ).a $ !. .~.X #.U {.].W v a . 1 g > t 4 > | f 1 | | 1 1 > r + = = = @ 6 $ + 5 B B w '.$ 9 $ ",
"n . 6 8 o R 8 # o   7 o @ V 6 D @ c + + | ; 1 $ + 1 1 1 1 1 | > 1 1 ! : G i e ' %.^.s ` Z {.].!.7 # 6 . V + 1 f ; , | $ + 2 ' e , ; ; + = . m @ O + . h c = = = ; ",
"m # 5 + . a 8 . # n   o & & D . & * 8 + ; 1 > $ B 1 1 | p ; 2 1 e 1 1 p G ; ) ; , - !.s ,.U U ^. .s ' ' I I ! { { < 1 $ 5 I - + , ~ ! 1 1 $ . $ @ + ).. ).+ ; ; = ",
"m o . ' . z m . 5 . N 8 * + n 8 + + . . 1 1 ! @ z . + + = + = G V + 1 m j $ $ 5 . 6 /.;.(._./.:.< s ~ ! ~ r 4 < [ { [ { ! [ t ' s ^ ~ ~ > &   = w + w B '.+ = e 1 ",
"E   x <.0 C 0 x q q q b <.x z z 0   z b   o 8 b z + @ . w & @.H 2 e $ $.f [.] [ [ ] }.;.|.1.2.%.# 5 I = I . @ , ; $ $ e 1 e ~ 1 . ; $ m . 0 3.  o h h 4.C *.&   b ",
"    o z m . * D a m . n 8 . m 8 @ ; 1 ; + + + | ! ~ > + h = J ; [ e @ ( Z U Z ,.U ,.5.6.7.6.8.4.j - ' ! ; H ! t ^ < @ * K / 4 ~ $ *.  ; + ; : g _ _ = A 9.+ $ .   ",
"$ + $ $ $ $ $ - , + = = | f @   ; ; > > > r ~ > | | ! B 9.1 1 X '  .L U U ,.,.Z /.~.8.>.2.2. .!.| { ~ ~ 0.~ +.L L ^ 1 o 4 3 ~ > ~ | M ! r ! r ~ 4 > 1 9 1 l ; > r ",
"o . & . . 5 5 $ , . j 5 } = +   + $ + | 1 1 1 > ..i ; + ; ! [ a.[.8.].U ,.Z ,.K :.:.^.^., X a.[ * = ~ ~ i ..0.i B H = @ g b.2 $ 1 $ . = > | 1 > = + 1 8   9 ; $ + ",
"& 8 o .   D @ @ = * y * # - ; & 8 . | = | 1 1 1 g | i H 1 f  .X 2.8.Z U Z ,.~.2. .< < { > 1 < < > { 4 t c.c.+.r G ~ 0.^ : ; ; ~ ! $ & ~ | | = = c ' 1 . + r e - ; ",
"@ . + . m D & @ , $ d.D 5 $ + $ | . = 1 + ; g | 2 ; 1 ; l 1 | f 2.2.e.e.5.(.f.~., | 1 [ u g.! [ 1 t 0.! c.c.....i 4 ! i ..! > 1 ! = ; L 1 | $ + ' > f , e | $ ; > ",
"0 0 8 a a . n   z R 7 0 6 } . + 1 1     $ a 0 + ; $ $ @ F 8 & # %.8.2.7.h.i.f.s , > ] 1 c p 1 + + + g H _ G k j.k.Q H j.= . . 8 + . 0 & + 6 5 | } * * y 0 } . @ . ",
"x b 8 . @ @ * , 0 x } 8 n @ $ = 1 > + & ; l.*.1 r 1 g 2 m.9.u i } [.8.~._.n.o./.U U Z ` U ^ @ = > ; H Y G k.g i Y H C k.g 1 p @ $   # + ; ; f ' , + $ , - , ; ; + ",
". *.* + 5 5 + = n D , * . @ $ = | 1 | ; ; | 1 1 1 S > ..+ H r ) ' - [.p.q.r.2.T #.#.;.,.U ` ( { = 1 3 r g g : Y i &.j.g c.r ~ ! 4 = ; > 1 > e e f e ] X [ f 1 > r ",
". x R D . 5 * = 6 . + * n @ + - 1 | $ + g @ P Q = H > @ F ; S V 6 ! 3 3.s.t. .8.^.u.~.,.Z ,.{.; $ + g : u B g G G Q -.i i i 1 i r = : > | 1 > ! , ' > - | | = ' 1 ",
"# 0   . m   . + z E # n   8 + - 1 ; M @ ; .   ; > ; i $ + ~ 4 r z o '.k @.9.z d.v.w.^.5.,.,.Z ! & + ~ 4 ..Q A x.Q G k.H i l 1 i r ).m.Q = + | $ + @ $ - + $ 1 ' ; ",
". D @ @ @ + $ 8 x a @ & + = & + | | = @ = H 1 ; i 1 1 ~ t > 4 W > y.z.A.z.z.B.A.y.s.%.f._.e.L ( ^ ^ t r ~ 4 k.h k &.c.H + l k H Y l k ).B ; @ B l | | = . ; | = + ",
"n 8 # 6 .   @ D   j . . & + @ 8 @ | 8 a .   a *.8 @ ; : w 9 @.h 8 z =.C.C.D.D.A.A.C ~.;.E.F.a.+   h &.i > ! G H g g g ; ; ; g i j.r ( ; = i Q h H p ; . . & 6 @ . ",
"7 a # + @ N 7 # 6   R 6 @ 5 @   + ; o 0 & @ B @ B Q i k i _ B.B.s.G.U U {.{.{.g.=.{.,.;.E.e.s s.B.A.&.+.~ >   -.G G + M ; I ; 9 1 *.*.i 9 @ = . . $ + % . 8 . & @ ",
"0 <.o . ;   x . @ D o . . @ + j + + , + & $ 9 H 4 B s.z.B.z.: ^ K U }./.#.#.& : G.U ;.s H.I.u.L L ..y.s.C s w B Q $ + ; M 2 i > 1 l.@ 1 = | p $ $ @ + c $ # & & * ",
"q v.b q 7 b q 7 j a b z   o   F + . z 7   -.& . b.-.  J.9.a K.U ].L.F.M.:.} * ( {.Z s % C N.O.` U ,.R z o o A 9.# $.+ O B h . h o <.).+ @ @ & # @ @   b a 6 #     ",
"z 0   j   8 0 z a @ R 0   & 8 . + & q z & @ + = s.=.{.P.{.{.G.:.q.u.H.M.q.d.U U ].( J.Q.R.S.g.u.a.,.U U #.s.B.3.$ # ! v > ).a $ = = = = = @ + = = ; + 8 D + + + 6 ",
"# $ = = = p > $ . $ & @ + 1 j.H + $ + +  .4 & B.! #.{.L T.M. .U.^.:.J.y.q.i.Z f.2.d.3.V.W.X.T.:.M.2.M.~.#.G.^ '.y.9 L L ^ 4 r ~ : 1 r > ..; 1 > > 1 > 1 ' 1 1 r ' ",
"8 8 7   8 & + . 0   . 8 b P k.b.8 . & # c | q t.{.{.#. .Y.Z.Z.Y.Y.^.d.`.q._.Z f. +.+++W.@+#+^.Y.$+Z.%+U.~.,.{.~ s.o v = > = &+w V + + ; Q a . = $ + & v.n = @ & & ",
"n a b 8 . . + . . @ | +   @ G F @ + $ , | + z W {.L I.H.:.M.*+w..+.+@+@+=+_.Z L.-+;+>+>+;+,+w.w.++'+)+!+ + +U T p.%.$ ; : &.i 4 ! B @ ; $ a . i ; = . C 6 ; = $ = ",
"8 * D @ 5 + + + | . V M 9 ; ; 8 . $ 1 | $ , ; W {.#.d.$+Z.*+~+@+,+{+{+{+]+]+^+/+(+_+_+;+_+_+;+,+W.W.*+Y.!+ +,.T $.K T L L ^ L 4 ~ i : r 1 ; G > > = + ; ' 1 > > ; ",
"D . m . @ .   @ + 0   8 @.8 .   8 B 8 @ + | . | ].`  +v..+w.,+_+:+<+<+<+[+>+(+[+[+[+[+}+[+[+[+>+>+,+.+*+u.v U K y [ L / ^ 4 r | 1 > $ | ; + $ 2 1 $ + + 5 ; | $ $ ",
". . 8 a 8 @ @ . & z   .   a & = ; = &+z + 1 j `.#.{.{.@+`.@+{+<+<+<+<+(.|+:+1+1+1+2+<+3+2+2+:+(+(+4+.+w.d.{.{.[.s.! 5+^ ! S < ~ > $ # + I B l.; + $ . o 1 1 , , ' ",
"8 @ & 8 . 5 $ + @ o 8 . @ o $ $ $ H G @ g !   s.} #.{.a.X ~.4+>+{+{+|+<+6+1+1+1+1+1+|+|+:+2+;+,+.+4+i. .( P.7+d.8+C.A F ; ! ~ 4 1 ; ; 1 1 & + | = | $ . = = = ; f ",
"m . 8 6 & & @ + + 8 o . & 8 , ; $ ; + Q + | a s.7 { ].U U U d.w.w.>+{+[+[+|+}+}+[+[+{+{+[+{+;+*+.+I.{.{.{.P.^.++8+8+s.s.1 4 - 1 f : < ; + . @ : ; ; | * + = | | ; ",
"  a       b N   a y   @ . a z $ O @ x q ).r 0 `.( T d.:.` U U ].Z f.>.w.w..+w..+.+.+.+.+w.$+U Z ].].].` g.4.8+d.s ( ( ^ A.8+N.+ ; n . + $     = $ = ; 8 a @ . 6   ",
"0   8 o 0 v.y . . * 5 . 5 . 7 @ @ & a =.G c.0 s.{.W ^.^. .~.s T ` U T b.9+9+O & 9+} } 9+% s U ].#.F.a.!.0+`.~+^.;.Z ,.U o Q.Q.0+7 7 * + ; & 8 @ + = =   <.j 7 8 0 ",
"0   o . 8 8 . . 6 . . 6 @ 5 m 8 . @ & h + u z B.G.{.{.:.v.d ~+r.F.` U {.P.{.P.{.{.{.P.{.{.P.G.T Y.@+W.*+W.W.i.(.a+,.,.,.Z ^ 7 4.z O ; + + . a @ . . 8   n m . & . ",
"z q N o   a R o 8 @ . . $ . b . & @   % ; 1 A B.#.{.{.#.L.L.F.>.r.r.r.u.u.u.u.u.u.u.u.u.$+u.I.$+;+#+)+ +'+~+h._././.f.,.,.G. .++z * n . @ . @ @ @ . . . % * 5 @ + ",
". A   n 8 @ . . & . . & ).8 9.Q B @ # 5 c u 9.8+^ Z ].U ,.U Z K :.>.H.$+%+=+%+$+$+$+$+$+Z.$+Z.$+b+H.c+U.#+*+ +M.>.u.2.f.U Z s `.d.| # $ + @ ).+ + w | + @ = + . + ",
"@.F   8 8 # . . . . @.h . . F @.).+ 6 . & 9 J.s.} G.U U ,.,.U U ,.,.f.d+e+_.a+E.E.E.E.7.|.7.7.7.i.i.i. +q.'+++w.8+s.d.L U ` < w.d., + = = B Q Q ).).@ . + + -.. & ",
"  9.8 & . n + n 7 n . + + .   @ c * B -.+ 9 A s.:.5.}.Z ,.,.,.,.f.e._.E.d+d+d+E.E.f+7.i.1.1./+/+c+i.7.H.g+#+W.8+z.N.3.8 U ` f w.d.n j . . + ).-.+ 9 ; + &+. @ . B ",
". 9.a . @ n & = o & $ $ = = - ; $ $ _ x.+ ; J.8+M.n./.,.,.,.,.;.e.6.d+e+e+d+d+d+h+f+7.|.i+1.1./+/+i.i.U.g+#+4.++j+k+V.z.{.`  .`.4.} < r : = ! w Q H l ! . B @ @ | ",
"F x b z   0 A . 8 # & o . . z j } w k+A a 7 C `.U.d+_._.f.,.,.,.;.n.n.e+d+h+d+d+h+h+6.|.i+1.h.l+1.h.H.=+g+b+O.j+m+k+V.V.{.`  .++C N A . Q -.-.F A   &+B o       . ",
"*..   x   n 8 a n   x a & # j C R = n+o+. * C `. +E.(.h+5.;.,.,.;.n.n.d+d+e+d+d+h+f+|.i+1.1.l+h.|.h.4+;+b+#+O.j+m+k+V.V.{.f., `.0 ).b.9 Q G *.*.+ B & &+a   0 . . ",
". . . # @ # @ . = & . & ).; ! D . = n+_ 2 e A 8+r.7.(.n._._.Z ,.f.E.n.n.d+d+d+d+h+f+7.|.i.1.1.h.|.h.g+b+p+b+Q.A.0+'.m+B.,.;.| s.b > 9 g H i u H 1 ; 1 + . $ $ ; @ ",
"        . * # 8 & 8 . @.. + + 8 0 h x.x.@ = x s.v.>.(.e+n.n.e.f.;./.n.d+e+d+d+d+E.f+7.|.i+1.l+1.i.q+b+b+b+b+j+A.O.v.&+; }.n.n s.A l ).w + = = ; + ; $ . . . @ @ l.",
"    a 7 6 5 @ D 8 @ & . + @.Q G . B k.k.).; b B.`.d.f.e+e+e+i.e.,._.d+d+d+d+d+d+h+f+|.|./+i.l+i.o.-+g+Z.b+$+Q.z.++s.e U e.U.q s.o = x -.+ G B @ ; | ; c + $ $ ; ; ",
"  . # j . + @ n . & & . ).& @._ _ ).. B w ; . x z.0+e.e+a+e+E.5.f._.d+d+n.d+d+h+h+h+f+|.i+i.i.F.-+g+g+g+$+Y.8+t. .2.e.f.o.q.8+&++ . *.h @ ).B B | > f + ; ; $ | 1 ",
"a 8 o y 0 m n # z z o . b E -.x.@.B o z @.b.  *.m+N. .n._.e+n._.(.n.d+n.n.h+h+h+f+f+|.1.7.1.l+i.r+;+p+p+q.'+Q.$+a+5.5.o.X.Q.8+O B m.B ).. . . q x   . % 8 + . @ $ ",
"o . j   8 z . $ . n 0 8 o h G s+h $ 6 D h '.M -.m+B.t.E.5.a+e+n.e+d+n.d+d+h+h+h+|.|.|.i+f+q+ +U.r+g+g+=+*+w.M.e.a+t+h.$+8+8+4.$ 1 @.. . & . = | x a $ $ + Q +   + ",
". 8 D + +   + = ' 1 @ 8 ; 1 p B = $ M ' g.p S ) -.4.`. .E.(.e+h+h+h+d+d+d+d+f+h+f+|.|.|.E.h.U.r+p+p+p+=+g+*+U.)+ +Z.*+W.0+J.O 4 ~ > V + ; | e { 6 | ! = | + $   @ ",
"    8   z a 8 D . 5 . o .   & E C D V D u+).V V l &+8+d.2.e+e+d+h+h+d+d+d+d+d+h+f+|.7.i.c+c+-+b+#+p+=+q.b+r+q.v.v.8+8+z.f e > v + ; @ 6 + , } * * . * @ . *.0 q a ",
"8 . . a q a . 8 j . a . $ & n b j . J @ ).O l.l.' & y.8+r.e+e+e+e+d+d+E.E.E.h+f+f+E.a+i.%+b+=+b+p+r+H.*+++8+`.s.s.B.9.u = V - 1 > - 5 5 * = , } .   $ .   + . b 0 ",
". 8 % + # * 5 .   m . @ @ # 6 6 - $ I = g.f I V > = S.s.~+ +i.E.h+h+d+E.E.E.f+E.|.h.c+M.q.g+b+b+r+r+'+++y.S.9.x F F 9 3 I V 5 > > ; $ ; + - $ ; @ @ = . @ = = + @ ",
". 8 . a 8 + + . 8 8   8 . + @ y # 5 ; + c | m J ; 1 u t.s.`.M.i.h.E.d+d+d+d+E.f+h.H.=+p+p+p+b+Y.H.Y.++8+N.~ > 1 ] ; + + + -.8 1 + $ & & + 5 + + 8   ).. @.).& o J ",
". . .   8 . . V   8     @ @ &   @ .   5 $ 1 0   = = _ u C.8+.+$+E.E.7.h./+/+/+q+q+H.=+r+p+r+H.H.'+++++@.: -.l.' e , , | p ; & 1 + 5 6 & + + + +     $ + @ ).. *.. ",
"b a F 9.a 0   . 0       8 o o 8 H = z . ; 1 & q B ).&+_ C.8+w.*+U.U.-+/+q+q+q+q+-+-+H.r+r+p+#+Z.W.++8+o+&.w 2 ^ e < ] ; v | J ; @ 0 @ M = ; = 1 & . = = 1 $ = + = ",
"=.b =.. + + . b   . .   b = & + = ; 8   1 , . q 8 =.y.A.A.Q.u+*+w.w.q.F.7.7.^+c+c+h.-+U.)+*+.+w.v.0+z.y.9.).+ > e f ' f 1 | : > |   q + @ . & G     + & + $ & @ + ",
"8 o . . @..   . + @ $ . . ; ; g = | $ C b   q o '.&+@.. j.g.Y.Z.d.Q.4.0+E O.O.O.O.O.N.N.4.N.:. +O.C t.9.o+=.  D * } 6 + p ~ 3 r | > 0 a & + @   z *..   . n . . & ",
"  . +   z @.o o @ . + 8   + + w $ ; + C C 0 o @ ).&+G : i ; '+ +:.J.t.s.z.z.z.++z.++A.A.B.A s T.N O.c u p &+b . # @ 5 + 1 p H = ; = & $ + @ & o + + o a % . . @ @ ",
"8 . @ o a . + . 8 . +     + + $ = w h . = = p + h @.. w + + * * Y. +:.8. .!. .- $ ; G H '.9 | g.| = 9 w h . + = = $ ; ; = 9 ; ; p = m.@.8 8   . . 8 . 8 j D . + @ ",
"    . .   8 8 @ . @ &   a . @ = $ = .   h . B + . @.B w Q G = ; 7 I.:.M.8.[.' v+@ $ 2 H 1 ; , | f = B + ).).+ + $ $ $ + = 9 = = 9 + x   o . 8   8 . 8   D . @ @ 8 ",
"0 a       8 . . & . 8 8 a 8 . w ).).8   B B B B . . . B + @ j.H &+a & ).+ Q 9 $ & n 5 5 5 %.$ M = + -.Q G h & $ + + + = 9 G Q B 9 ).=.&+h &     . . o o n . . .   ",
"b   .   z a . @ . -.& 8 z . h . + +   8 ).% h &   8 Q & h + + = 9.m.k.x.o+'._ u 9.a   n D $.@ @ V 8 B G ).o h ; + = @ @ ).w ).B ).. b F A z q z 0             o o ",
"b C C b q b a z 0 8 9.E E 8   8 o   b C.&+F 8 @.F 9.. h . & @ + a 9.B -.9.@.w o+&+).8 q a @ . M = m.&+&+).9.E h @.. h . 8 o &+. . 8 x . . . B   b 8 + + .   b q a ",
"& 0 q & . . . . b.o -.o z b z a 9.8 &+@.).F 9.@.@.. @.. & % . m 8 = + j.).# = u > g _ B = w H = Q + + h = w 8 8 &+@.+ = = z b . $ = w 1 1 | > 9 & + & + p > +   . ",
"8 & @.+ h + $ .   8 ).'.@.3.  . @ B + '.).-.@.. &+8 . h . . # B V G x.x.B ).= < v + 9 G Q ).+ + B B + 9 p ; + Q ).).w w , .   . & & . @.-.. &+@.  a 8 p p p = % n ",
"z b C 9.F F o b x 9.=.9.  E q q 0   b.@.@.b 3.E b F A     x x &+b.k.k.-.8 a a   8 8 . 0   -.b.0 8 F 8 8 F &+&+8 9.9.A   o 0         o F a x a @.8 o ).+ A z a 0 x ",
"o a C x   8 h h .   A     &+  R x 0 @.B B F x 8 h B   @.+ @ B = a z @ O . @ z m.D . * @ $ . 8 @.w g.; = 9.  w ).Q B A . c . @ & . . & 8 .   ).w $ = ; h x &+8 & . ",
"F . .   . & . &+@.@.J.8 8 h . . 8 o B + h 8 w _ ).+ ).+ + = G g % % g.O & + H . Q O 5 f $ O = ; 1 p 9 9 = w w '.w ).).= + = @ B . B h 8 ).@ . B + + ).).B h @ . + ",
"a 0 C q A     J.  &+E F a a a F 9.  0 z A z 9.& h & . 8 . = = ).9.  8 . . ).B 9.@.. @ + 8 &+@.9.).B 8 h 9.. w + &+@.@.B B B B   8 . @.9.. E 9.h @.h o B   A 8 o o ",
"0 0 b b A   &+  a a z   o # . x   . 0 b x a a @.@.. h .   x x a   &+@.&+k.&+@.b.@.8 &+A F @.).. &+a . . 8 8 b.@.. 9.E @.).    . b.&+B Q + A q 9.8     F 9.  o   o "};
