/* XPM */
static char *xpm_[] = {
/* columns rows colors chars-per-pixel */
"85 85 249 2 ",
"   c #030102",
".  c #0C0203",
"X  c #0A030A",
"o  c #07040B",
"O  c #140203",
"+  c #1B0001",
"@  c #16080C",
"#  c #070716",
"$  c #170615",
"%  c #1A1718",
"&  c #16110B",
"*  c #230101",
"=  c #2A0509",
"-  c #220A1A",
";  c #390B18",
":  c #22181B",
">  c #350C0B",
",  c #1C1927",
"<  c #121022",
"1  c #2A1C24",
"2  c #271A28",
"3  c #371926",
"4  c #33172D",
"5  c #1C2228",
"6  c #2B2424",
"7  c #282629",
"8  c #312224",
"9  c #342826",
"0  c #372838",
"q  c #3D3B3D",
"w  c #393337",
"e  c #2D2A36",
"r  c #35221E",
"t  c #5C1C1C",
"y  c #430F11",
"u  c #6B271E",
"i  c #461B28",
"p  c #47162E",
"a  c #46272C",
"s  c #582A28",
"d  c #452934",
"f  c #483739",
"g  c #543839",
"h  c #4E3033",
"j  c #672F2E",
"k  c #5D1F10",
"l  c #3E413C",
"z  c #554239",
"x  c #44403F",
"c  c #6C513C",
"v  c #3B3745",
"b  c #453943",
"n  c #5A3A48",
"m  c #4E3049",
"M  c #743A46",
"N  c #3F4045",
"B  c #49464A",
"V  c #58474A",
"C  c #584B55",
"Z  c #595556",
"A  c #504A51",
"S  c #6A4748",
"D  c #78464A",
"F  c #6E5149",
"G  c #74514C",
"H  c #694B55",
"J  c #784855",
"K  c #675859",
"L  c #795758",
"P  c #5E605F",
"I  c #77665C",
"U  c #6D605A",
"Y  c #5A5964",
"T  c #795A66",
"R  c #6C5263",
"E  c #6A6668",
"W  c #786A66",
"Q  c #7A736B",
"!  c #6D6877",
"~  c #7A6D77",
"^  c #747373",
"/  c #797679",
"(  c #8A372E",
")  c #972F1A",
"_  c #904932",
"`  c #AA462C",
"'  c #B7583A",
"]  c #AE4E32",
"[  c #BA623C",
"{  c #B04018",
"}  c #C65833",
"|  c #C8542A",
" . c #D4653C",
".. c #995747",
"X. c #834E58",
"o. c #875559",
"O. c #834D48",
"+. c #AE5845",
"@. c #89665D",
"#. c #B5624B",
"$. c #855865",
"%. c #945C67",
"&. c #876868",
"*. c #976767",
"=. c #86756A",
"-. c #94746A",
";. c #866775",
":. c #936975",
">. c #887778",
",. c #957A79",
"<. c #A97977",
"1. c #A16F68",
"2. c #D07147",
"3. c #E0764C",
"4. c #88847E",
"5. c #948376",
"6. c #9C8D77",
"7. c #B28979",
"8. c #E58C59",
"9. c #F99F60",
"0. c #FEA374",
"q. c #7A7787",
"w. c #977B83",
"e. c #8A7E86",
"r. c #A37381",
"t. c #7E808C",
"y. c #8B8584",
"u. c #8B8B8C",
"i. c #888585",
"p. c #938C8C",
"a. c #998686",
"s. c #95938D",
"d. c #9B948F",
"f. c #9A998D",
"g. c #888D94",
"h. c #948E94",
"j. c #959594",
"k. c #9A9694",
"l. c #969A96",
"z. c #999997",
"x. c #95959A",
"c. c #9B969A",
"v. c #969A9A",
"b. c #9A9A9A",
"n. c #8E9191",
"m. c #A58B88",
"M. c #B58986",
"N. c #A6978A",
"B. c #BA9888",
"V. c #A29B95",
"C. c #A29D9A",
"Z. c #A79696",
"A. c #B79898",
"S. c #B08A95",
"D. c #9DA19B",
"F. c #BCA48A",
"G. c #A2A19D",
"H. c #A8A397",
"J. c #B8A99B",
"K. c #9C9BA0",
"L. c #8D97A3",
"P. c #A79BA3",
"I. c #9BA1A6",
"U. c #A8A6A5",
"Y. c #B7A9A7",
"T. c #BBB4AD",
"R. c #B7B6B5",
"E. c #B5ABB4",
"W. c #C29C8C",
"Q. c #C29984",
"!. c #C79E94",
"~. c #D09389",
"^. c #C5A28B",
"/. c #C9A48D",
"(. c #C5A388",
"). c #CAA492",
"_. c #CCAB94",
"`. c #CBAB9B",
"'. c #C7A598",
"]. c #D2AC9B",
"[. c #D1AB96",
"{. c #CBB29D",
"}. c #D4B49B",
"|. c #D7B89A",
" X c #FFBF93",
".X c #C6AAA4",
"XX c #D3ADA3",
"oX c #C9B6A8",
"OX c #D4B5A3",
"+X c #D6BBA4",
"@X c #DABCA3",
"#X c #D4BCAB",
"$X c #DCBDAA",
"%X c #DAB4A3",
"&X c #C7BAB7",
"*X c #D6B9B2",
"=X c #C7ADB5",
"-X c #E4BDA6",
";X c #E5BDB4",
":X c #DF9D95",
">X c #BEC0BF",
",X c #DDC0A4",
"<X c #DDC1AB",
"1X c #D5C0AC",
"2X c #CBC4BC",
"3X c #D2C3BA",
"4X c #DCC6B8",
"5X c #CBC0AA",
"6X c #E1C2AA",
"7X c #E6C7AB",
"8X c #E4CCBA",
"9X c #F3D6BD",
"0X c #E9D1B8",
"qX c #FFC88E",
"wX c #BCBFC6",
"eX c #CDBCC4",
"rX c #CBC3C3",
"tX c #CDCBC9",
"yX c #D5C9C8",
"uX c #D9D3CA",
"iX c #DBD7D3",
"pX c #E6CEC7",
"aX c #E7DAC8",
"sX c #F6D6C9",
"dX c #E5D9D7",
"fX c #F6CFC9",
"gX c #E9E4D9",
"hX c #FDECD4",
"jX c #F7E8D9",
"kX c #FEF0DC",
"lX c #F2E2CE",
"zX c #DEE4E0",
"xX c #E9E6E5",
"cX c #F5ECE4",
"vX c #F8EBE8",
"bX c #FFF5E5",
"nX c #FEFCE6",
"mX c #F5F2ED",
"MX c #FDF4EC",
"NX c #FEFCED",
"BX c #F5F6E7",
"VX c #FBEEF6",
"CX c #FCF5F2",
"ZX c #FEFDF4",
"AX c #FEF4FC",
"SX c #FFFEF9",
"DX c #FFFCFB",
"FX c #F5F5F3",
"GX c #E5DDE8",
/* pixels */
"z.z.z.z.z.z.z.z.z.c.z.z.z.z.z.z.z.z.z.z.z.z.z.z.z.z.z.z.z.z.z.z.z.z.z.z.z.b.b.x.v.b.b.b.b.v.c.z.z.z.z.z.z.z.z.z.z.z.z.z.z.z.z.z.z.z.z.z.z.z.z.z.z.z.z.z.z.z.z.z.z.z.l.z.z.",
"z.z.z.z.z.z.z.z.z.v.z.z.z.z.z.z.z.z.z.z.v.c.z.z.z.z.z.z.z.z.z.z.z.z.z.z.z.z.b.z.b.b.v.v.z.z.z.z.z.z.z.z.z.z.z.z.z.z.z.z.z.z.z.z.z.z.z.z.z.z.z.z.z.z.z.z.z.z.z.z.z.z.c.z.z.",
"z.z.z.z.z.z.z.z.z.z.z.z.z.z.z.z.z.z.z.z.z.z.z.z.z.z.z.z.z.z.z.z.z.z.z.z.z.z.z.z.z.z.l.j.v.z.l.v.z.z.z.z.z.z.z.v.z.z.z.z.z.z.z.z.z.z.z.z.z.z.z.l.z.z.z.z.z.z.z.z.z.z.z.z.z.",
"z.z.z.z.z.z.z.z.z.z.z.z.z.z.z.z.z.z.z.z.z.z.z.z.z.z.z.z.z.z.z.z.c.v.z.z.z.z.z.z.z.z.z.z.z.k.k.z.z.z.z.z.z.z.z.c.z.z.z.z.z.l.c.z.z.z.z.z.z.z.z.c.z.z.z.z.z.z.z.z.z.z.z.z.z.",
"z.z.z.z.z.z.z.z.z.z.z.z.z.z.z.z.z.z.z.z.c.z.z.z.z.z.l.z.z.z.z.z.z.z.z.z.z.z.z.z.z.z.z.z.z.z.z.z.z.z.v.z.z.z.z.z.z.z.z.z.z.z.z.z.z.z.z.z.z.z.z.z.z.z.z.z.z.z.z.z.z.z.z.z.z.",
"z.z.z.z.z.z.z.z.z.z.z.z.z.z.z.z.z.z.z.z.l.z.z.z.z.z.c.z.z.z.z.z.z.z.z.z.z.z.z.z.b.z.f.j.z.z.z.z.z.z.b.z.z.z.z.z.z.z.z.z.z.z.z.z.z.z.z.z.z.z.z.z.z.z.z.z.z.c.z.z.z.z.z.z.z.",
"z.z.z.z.z.z.z.z.z.z.z.z.z.v.z.z.z.z.z.z.z.z.z.z.z.z.z.z.z.z.z.z.z.z.z.c.z.z.z.z.z.z.b.b.z.z.z.z.z.z.z.z.z.z.z.z.z.z.z.z.z.z.z.z.z.z.z.z.z.z.z.z.z.z.z.z.v.z.z.z.z.z.z.z.z.",
"z.z.z.z.z.z.z.z.z.z.z.z.z.c.z.z.z.z.z.z.z.z.z.z.z.z.z.z.z.z.z.z.z.z.z.z.z.z.z.z.z.H.U.U.C.k.z.b.z.z.z.z.z.z.z.z.z.z.z.z.z.z.z.z.z.z.z.v.c.z.z.z.z.z.z.z.z.z.z.z.z.z.z.z.z.",
"c.z.z.z.z.z.z.z.z.z.z.z.z.z.z.z.z.z.z.z.z.z.z.z.z.z.z.z.z.z.z.z.z.b.x.k.k.z.k.z.z.tXCXSXD.z.f.k.z.z.z.z.b.z.z.z.z.z.z.z.z.z.z.z.z.z.z.z.z.z.z.z.z.z.z.z.z.z.z.l.z.z.z.z.z.",
"l.z.z.z.z.z.z.z.z.z.z.z.z.z.c.z.z.z.z.z.z.z.z.z.z.z.z.z.z.z.z.z.b.b.z.z.s.z.V.V.uXmXmXR.G.z.z.z.z.l.z.z.z.l.b.z.c.z.z.z.z.z.z.z.z.l.z.z.z.z.z.z.z.z.z.z.z.z.z.c.z.z.z.z.z.",
"z.z.z.z.z.z.z.z.z.z.z.z.z.z.l.z.z.z.z.z.z.z.z.z.z.z.z.z.z.z.z.z.b.l.z.b.z.z.s.H.ZXCXcXj.V.k.s.b.z.z.k.b.z.z.b.j.v.z.z.z.z.z.z.z.z.c.z.z.z.z.z.z.z.z.z.z.z.z.z.z.z.c.z.z.z.",
"z.z.z.z.z.z.z.z.z.z.z.z.z.z.z.z.z.z.z.v.z.z.z.z.z.z.z.z.z.z.z.z.v.K.z.z.z.f.z.iXSXSXiXk.k.s.b.z.k.j.j.j.z.z.z.z.z.z.z.z.z.z.z.z.z.z.z.z.z.z.z.z.z.z.z.z.z.z.z.z.z.z.z.z.z.",
"z.z.z.z.z.z.z.z.z.z.z.z.z.z.z.z.z.z.z.c.z.z.z.z.z.z.c.v.z.z.z.z.z.b.z.z.f.k.k.yXgXCXBXU.V.U.G.G.z.C.b.b.b.z.z.k.z.z.z.z.z.z.z.z.z.z.z.z.z.z.z.z.z.z.z.z.z.z.z.z.z.z.z.z.z.",
"z.z.z.z.z.z.z.z.z.z.z.z.z.z.z.z.z.z.z.z.z.z.z.z.z.z.z.z.z.z.z.z.b.v.z.z.z.C.s.d.C.uXSXCXCXcXFXiXu.n.z.j.z.b.z.z.z.z.z.z.z.z.z.z.z.z.z.z.z.z.z.z.z.z.z.z.z.z.z.z.v.z.z.z.z.",
"z.z.z.z.z.z.z.z.z.z.z.z.z.z.z.z.z.z.z.z.z.z.z.z.z.z.z.z.z.z.z.z.b.v.b.b.s.V.V.f.V.V.tX2XxXSXSXFXiXU.z.l.l.z.c.z.z.z.z.z.c.z.z.z.z.z.z.z.z.z.z.z.z.v.z.z.z.z.z.z.z.z.z.z.z.",
"z.z.z.z.z.z.z.v.c.z.z.z.z.z.z.z.z.z.z.z.z.z.z.z.z.z.z.z.z.z.z.z.l.v.j.z.b.k.k.z.k.k.V.y.2XmXCXZXSXU.p.z.z.k.l.z.z.z.z.z.l.z.z.z.z.z.z.z.z.z.z.z.z.c.z.z.z.z.z.z.z.z.z.z.z.",
"z.z.z.z.z.v.z.z.z.z.z.z.z.z.z.z.z.z.z.z.z.z.z.z.z.z.z.z.z.z.z.z.f.l.D.f.z.l.z.z.z.f.s.H.Z.T.ZXSXSXs.k.j.c.z.z.z.z.z.z.z.z.l.b.l.z.z.z.z.z.z.z.z.z.z.z.z.z.z.z.z.z.z.z.z.z.",
"z.z.z.z.z.c.z.z.z.z.z.z.z.z.z.z.z.z.z.v.z.z.z.z.z.z.z.z.z.z.z.x.l.l.f.s.G.s.D.f.f.z.D.u.Y.gXjXlXdXj.z.k.k.z.z.z.z.z.z.z.z.z.v.b.z.z.z.z.z.z.z.z.c.l.z.z.z.z.z.z.z.z.z.z.z.",
"z.z.z.z.z.z.z.z.z.z.z.z.z.z.z.z.z.z.z.c.z.z.z.z.z.z.z.z.z.z.z.b.b.l.l.D.f.4.s.f.z.f.f.f.aXnX5XJ.oXk.V.c.k.z.z.z.z.z.z.z.z.z.z.z.z.z.z.z.z.z.z.z.z.z.z.z.z.z.z.z.z.z.z.z.z.",
"z.z.z.z.z.z.z.z.z.l.c.z.z.z.z.z.z.z.z.z.z.z.z.z.z.z.z.z.z.z.z.z.v.v.z.f.u.R.iXuXiXgXzXgXgX0X|.J.V.k.V.k.z.k.z.z.z.z.z.z.z.z.z.z.z.z.z.z.z.z.z.z.z.z.z.z.z.z.z.z.z.z.z.z.z.",
"z.z.z.z.z.z.z.z.z.z.z.z.z.z.z.z.z.z.c.z.z.z.z.z.z.b.c.z.z.z.z.z.K.c.k.z.R.CXZXZXZXZXgXgXoXN.F.F.d.z.k.k.z.z.z.z.z.z.z.z.z.z.z.z.z.z.z.z.z.z.z.z.z.z.z.z.z.z.z.z.z.z.z.z.v.",
"z.z.z.z.z.z.z.z.z.z.z.z.z.z.z.z.z.z.l.z.z.z.z.z.z.z.v.z.z.z.z.b.K.j.c.G.FXSXmXZXNXaXH.H.5.=.6.V.k.V.z.k.b.z.z.z.z.z.z.z.z.z.z.z.z.z.z.z.z.z.z.z.z.z.z.z.z.z.z.z.z.z.z.z.z.",
"z.c.z.z.z.z.z.z.z.z.z.z.z.z.z.z.z.z.z.z.z.z.z.z.z.z.z.z.z.z.z.z.k.V.V.V.SXDXZXnXuXJ.a.N.Z.N.c.z.C.k.k.z.z.z.z.z.z.z.z.z.z.z.b.z.c.v.z.z.z.z.z.z.z.z.z.z.z.z.z.z.z.z.z.z.z.",
"z.l.z.z.z.z.z.z.z.z.z.z.z.z.z.z.z.z.z.z.z.z.z.z.z.z.z.z.z.z.z.z.b.z.k.H.cXcXMXjX2XY.V.H.k.Z.b.K.b.z.z.z.z.z.b.z.z.z.z.z.z.z.z.z.z.z.z.z.z.z.z.z.z.z.z.z.z.z.c.v.z.z.z.z.z.",
"z.z.z.z.z.z.z.z.z.z.z.z.z.z.z.z.z.z.z.z.z.z.z.z.z.z.z.z.z.z.z.x.K.c.f.V.3X1XoX1XkX2Xp.b.v.K.n.K.z.j.D.j.z.b.z.l.z.z.z.z.b.z.z.z.z.z.z.l.z.z.z.z.z.z.z.z.z.z.z.z.z.c.z.z.z.",
"z.z.z.z.z.z.z.z.z.z.z.z.v.c.z.z.z.z.z.z.z.z.z.z.z.z.z.z.z.z.z.b.v.K.s.f.N.#X.X+X4X3X2XR.U.U.R.U.b.z.j.G.j.j.z.z.z.z.z.z.z.z.z.z.z.z.z.c.z.z.z.z.z.z.z.z.z.z.z.z.z.l.z.z.z.",
"z.z.z.z.z.z.z.z.z.z.z.z.z.z.z.z.z.z.z.z.z.c.z.z.z.z.z.z.z.z.z.b.x.v.b.N.N.N.J.F.Z.aXZXSXSXBXZXxXb.b.j.b.z.b.l.b.b.z.z.z.z.b.k.b.z.z.z.z.z.z.z.z.c.z.z.z.z.z.z.z.z.z.z.z.z.",
"z.z.z.z.z.z.z.z.z.z.z.z.z.z.z.z.z.z.z.z.z.z.z.z.z.z.z.z.z.z.z.z.b.K.s.V.d.s.5.z J.5X&XT.gXNXNXFXCXR.b.j.z.D.j.j.z.z.z.z.z.k.V.z.z.z.z.z.z.z.z.z.z.z.z.z.z.z.z.z.z.z.z.z.z.",
"z.z.z.z.z.z.z.z.c.l.z.z.z.z.z.z.z.z.z.z.z.z.z.z.z.z.z.z.z.z.z.z.k.z.z.z.C.e.E f u./ U z f.jXnXZXSXU.j.b.z.j.l.D.z.z.z.l.z.z.z.z.z.z.z.z.z.z.z.z.z.z.z.z.v.z.z.z.z.z.z.z.z.",
"z.z.z.z.z.z.z.z.z.z.z.z.z.z.z.z.z.z.z.z.z.z.z.z.z.z.z.z.z.z.z.z.z.z.z.E Y ! Y N 5 v 9   I aXkXcXcXtXb.l.j.z.b.j.l.l.z.z.z.f.f.z.z.z.z.z.z.z.z.z.v.z.z.z.z.z.z.z.z.z.z.z.z.",
"z.z.z.z.z.z.z.z.z.z.z.z.z.z.z.z.z.z.z.z.z.z.z.z.z.z.z.z.z.z.z.z.x.E.g.  # < # # # < # @ 6.jX8X1X2XtXU.l.b.l.z.v.z.D.l.z.f.z.D.z.z.z.z.z.z.z.z.z.z.z.z.z.z.z.z.c.z.z.z.z.z.",
"z.z.z.z.c.v.z.z.z.z.z.z.z.z.z.z.z.v.z.z.z.z.z.z.z.z.v.z.v.z.z.v.^ N Z i.q.q.q.q.q.v , ! 2XNXOX4X2XE v E b.z.b.f.j.l.l.l.D.z.l.f.z.z.z.z.z.z.z.z.z.z.z.z.z.z.z.z.z.z.z.z.z.",
"z.z.z.z.z.z.z.z.z.z.z.z.z.z.z.z.v.l.z.z.z.z.C.z.v.l.D.l.l.l.g./ 5 5 B ZXZXZXDXDXVXL.q.SXNXjXXX#X&Xd 5 e / v.l.z.b.z.D.l.z.z.f.f.z.z.l.l.z.z.z.l.b.z.z.z.z.z.z.z.z.z.z.z.z.",
"z.z.z.z.z.z.z.z.z.z.z.z.z.z.z.l.l.l.z.z.z.z.c.b.b.n.v.n.N 5   v zXzXcXbXaXT.yXeX! R.FXZXmX.XT b V dXVXGXv o % j.j.z.j.j.j.z.f.D.l.l.z.z.l.D.z.l.z.z.z.z.z.z.z.z.z.z.z.z.z.",
"z.z.z.z.z.v.z.z.z.z.z.z.z.z.z.z.z.z.z.z.z.z.z.z.b.K.^ ^ i.i.>.U.DXxXaX*XJ.6.>.~ v.zXSXmXG.K b 4 b =XxXZXU.^ i.Z B ^ k.V.P.b.l.n.v.z.b.v.l.z.z.z.z.z.z.z.z.z.z.z.z.z.z.z.z.",
"z.z.z.z.z.z.z.z.z.z.z.z.z.z.z.z.z.z.k.z.z.z.z.l.n.E , U.DXDXAXVXrXW g &.&.=.S K ZXZXcXtXZ 2 A q.P.U N.gXNXZXSXP % e E p.h.K.L.D.b.z.v.z.z.z.z.z.z.z.z.z.z.z.z.z.z.z.z.z.z.",
"z.z.z.c.z.z.z.z.z.z.z.z.z.z.z.z.b.b.z.z.z.z.v.z.P l xXDXvX=Xw.w.a.w.e.y.A @ K 4XbXlXm.d v 4 - R P.w.5.m.5.N.2XnXFX>Xe Z P.K.K.j.z.z.z.z.z.z.z.z.z.z.z.z.z.z.z.z.z.v.z.z.z.",
"z.z.z.z.z.z.z.z.z.z.z.z.z.z.z.z.z.z.z.z.z.z.l.x.7 n.DXxX&Xw.R H n L R T w O L sXvXjX&.= $ 4 4 m T T n m $.-.V.aXSXxXl 7 x.c.j.b.z.z.z.z.z.z.z.z.z.z.z.z.z.z.z.z.z.b.z.z.z.",
"z.z.z.z.z.z.z.z.z.z.z.z.z.z.z.z.z.z.z.z.z.z.k.z.K.SXCXP.V >.m.:.3 + = * y y *.-XsXfX<.j t p j p - @ - p :.w.&.F uXBXf.Q f.k.P.h.z.z.z.z.z.z.z.z.z.z.z.z.z.z.z.z.z.z.z.z.z.",
"z.z.z.z.z.z.z.z.z.z.z.z.z.z.z.z.z.z.j.z.z.z.x.x.R.CXDXP.V K n i ; y j ...._ ....:X~.+.( ( ( ( M M p y p p S :.&.4XnX5.f.z.z.x.K.z.z.z.z.z.z.z.z.z.z.z.z.z.z.z.z.l.c.z.z.z.",
"z.z.z.z.z.z.z.z.z.z.z.z.z.z.z.z.z.z.z.z.z.z.z.z.^ 2XFXrXK 1 O * u ) } 8.8.8.] u ' ] ] ' #.2.` ] +.) u t = = H h.gXkXW / G.z.z.f.z.z.d.z.z.z.z.b.z.z.z.z.z.z.b.l.z.z.z.z.z.",
"z.z.z.z.z.z.z.z.z.z.z.z.z.z.z.z.l.l.z.z.k.b.c.V.6 A SXSXY.. + r #.:X9.8.9. X2.] |  .| { 0. X{ { ` ' #.O.> + 4 tXDXuX7 A D.D.D.z.z.b.b.j.b.b.s.z.z.z.z.z.z.z.l.z.z.z.z.z.c.",
"v.z.z.z.z.z.z.z.z.z.z.z.z.z.z.z.l.l.l.z.c.c.c.c.6 6 E.mXcXU.U.A.s u c ] 2.8. .|  .} | |  .3.} ` ( t > s Z.Y.eXVXxX~ - 2 C Z ^ z.b.j.f.z.b.z.z.z.z.z.z.z.z.z.l.l.z.z.z.z.z.",
"z.z.z.z.z.z.z.z.z.z.z.z.z.z.z.z.l.l.l.z.k.V.c.c.6 % 4.gXCXZXZXyX9 O * j _ ' ' 2.} ' ' ' ` _ ] _ j i + d pXMXAXAXE.m # X #   B U.k.b.j.G.z.z.G.s.z.z.z.z.z.z.l.D.z.z.z.z.z.",
"z.z.z.z.c.z.z.z.z.z.z.z.z.z.z.z.z.z.z.z.c.z.z.c.% Z FXD.Z T.CXCXBXMXvXpXW + + * + * * + * * + g sXvXVXvXAXAX=XC $ 1 p.tXtXiXq.o 7 ^ z.z.k.b.z.z.z.z.z.z.z.l.b.z.z.z.z.z.z.",
"z.z.z.z.z.z.z.z.z.z.z.z.z.z.z.z.z.z.z.z.z.z.z.z.& E ZXR.W a.oXyXiXgXbXMX>XB / ~ ~ E ;.>.~ / P U.VXZXjXyXeXY.~ 1 O V 2XCXmXSXR.e @ w i.b.k.j.z.G.z.z.z.z.z.l.l.z.z.z.z.z.z.",
"z.z.z.z.z.z.z.z.z.z.z.z.z.z.z.z.z.z.z.z.v.b.v.v.% P SXCXuXL h h h ,.pXCXNXmXAXAXAXAXAXAXAXAXVXAXcXcXr.3 3 f 3 - -.*X4XjXNXNXZXiXu.x Z b.z.b.b.k.z.z.z.z.l.b.z.l.z.z.z.z.z.",
"z.z.z.z.z.z.l.z.z.z.z.z.z.z.z.z.z.z.z.z.z.z.v.v.% Z ZXSXvXyXpXyXN.,.L =.=.4.>.>.w.>.e.>.>.>.>.=.&.L H g &.&.S r @.8XpX3XlXnXnXNXyXZ 9 b.k.z.b.l.z.z.z.z.z.l.b.b.z.z.z.z.z.",
"z.z.z.z.z.z.z.z.z.z.z.z.z.z.z.z.l.l.l.z.z.z.b.v.% Z BXNXCXDXCXZXdXY.=.=.@.F L G L G F H F F F F c c S I B.m.H a L S.A.a.f.aXnXnXxXT X p.k.b.z.z.l.z.z.z.z.z.l.l.z.z.z.z.z.",
"z.z.z.z.z.z.z.z.z.l.z.z.z.z.z.v.l.D.f.z.z.z.b.v.9 9 3XMXDXZXBXBXnXcXjXjX0X_.%X-XOXXX.X`.'.!.W.W.(.B.A.A.'.<.G n 3 1 4 @ r H.cXZXdXK X y.k.j.l.l.z.l.z.z.z.z.z.z.z.z.z.z.c.",
"z.z.c.z.z.z.z.z.z.z.z.z.z.z.z.z.b.z.z.z.z.z.b.b.6 9 oXvXMXNXZXNXZXnXkXlX0XOX@X-X-X+XOXOX`.`././.W.W.'..XOX5.J J d $ X $ e Z 2XSXuXK @ u.H.k.b.b.z.v.z.z.z.z.z.z.z.z.z.z.v.",
"z.z.z.z.z.z.c.z.z.z.z.z.z.z.z.z.z.z.z.z.z.l.l.v.6 f .XpXaXnXNXnXNXkXaX{.<X6X6X@X|.OX}.}.`._././.Q./.W.'.oX7.L H p % $ q.t.< u.DXdXK . i.z.z.l.j.z.z.z.z.z.b.l.l.z.z.z.z.z.",
"z.z.z.z.z.z.z.z.z.z.z.z.z.z.z.z.c.z.z.k.l.D.L.v.: f .X4X8XlXnXnXnXMXhXoX<X6X@X|.-X@X|.}.|._././.Q.W.W.W.7.*.$.M n 2   x.L.# t.DXiXZ @ p.b.b.z.z.z.z.z.z.z.z.l.b.z.z.z.z.z.",
"z.z.z.z.z.z.z.z.z.z.z.c.z.z.z.z.b.c.z.k.l.l.v.b.6 6 A.8X8X7XkXkXnXbXhX1X<X<X|.-X@X@X}.}._./.(.(.(.Q.).!.o.M M J n 4 X g.I.# g.DXrXV @ z.j.z.l.l.z.z.z.z.z.z.z.l.z.z.z.z.z.",
"z.z.z.v.z.z.z.z.z.z.z.z.z.z.z.z.z.c.l.D.l.l.v.v.7 3 N.pX7X|.0XlXNXbXjXoX$X$X$X-X@X@X+X}.{._.).^.(.7.[.!.L M J J m , 7 z.g.  t.ZXiXC & k.z.b.b.l.z.z.z.z.z.z.z.b.z.z.z.z.z.",
"z.z.z.z.z.z.z.z.z.z.z.z.z.z.z.z.z.v.l.l.l.l.v.c.w % I #XlX7X,X0XkXkXhX1X4X6X<X@X@X@X+X}.`._./.^.(.F.].W.o.H J T 0 < l j.P B H.MX&Xf : G.z.j.D.l.z.z.z.z.z.z.z.z.z.z.z.z.z.",
"z.z.z.z.z.z.z.z.z.z.z.z.z.z.z.z.l.z.z.b.z.z.z.z.q   9 H.hX7X-X-X#XjXkX4X#X<X<X@X,X,X|._./.|.(./.W.'.!.S.L F G L v # $   l 2XjX4X>.6 6 z.b.z.b.j.z.z.z.z.z.z.l.l.z.z.z.z.z.",
"z.z.z.z.z.z.z.z.z.z.z.z.z.z.z.z.l.l.z.z.z.z.c.c.E & & 6.hX0X-X-X@XlXkX<X+X+X<X@X,X|.|.|.[./._._.F.XXW.%.G S S ;.e < B F N.vXjXN.f : Q D.j.s.D.b.z.z.z.z.z.z.b.b.z.z.z.z.z.",
"z.z.z.z.z.z.z.z.z.z.z.z.z.z.z.z.D.l.v.b.z.V.c.V.u.q . Q 7X,X-X-X6X9XsX,X,X,X,X|.-X|.|.|.[.(.[./.F.+X<.M J X.G L - : m.fXfXfX=XK   w s.z.j.z.D.j.z.z.z.z.z.z.v.z.z.z.c.z.z.",
"z.z.z.z.z.z.z.z.z.z.z.z.z.z.z.z.l.l.z.z.b.z.c.k.l.A   6 5.aX9X-X7X7X7X1X,X,X,X|.|.|.[.|._.(.|.7.6.N.*.M M o.M ; m S.*XfXfXY.n $ X e.k.z.G.b.n.l.z.z.z.z.z.z.z.z.z.z.l.z.z.",
"z.z.z.z.z.z.v.z.z.z.z.z.z.z.z.z.j.l.z.b.b.z.z.k.v.n.5   f pX9X7X6X,X1X|.oX1X,X|.|.|.[.[./.).%XW.*.*.%.X.O.o.O.> $.=X.XS.e.V 4 9 ^ k.c.j.j.j.D.D.z.z.z.z.z.z.z.z.z.z.z.z.z.",
"z.z.z.z.z.z.z.z.z.z.z.z.z.z.z.z.z.z.l.l.b.b.z.z.l.D.t.7 % Z.-X7X|.|.,X@X,X|.1X|.|.|.|.[.[.[.].'.M.o.J J L X.o.J $.;.H f - X B c.c.C.k.k.D.b.l.z.z.b.z.z.z.z.z.z.z.z.z.z.z.",
"z.z.z.c.z.z.z.z.z.z.z.z.z.z.z.z.z.z.v.v.b.K.z.z.z.z.j.N X g `.9X,X6X$X@X1X+X+X|.@X|.XX].%X].<.r.:.X.J T :.H 0 f 8 O % O . b p.x.b.C.j.b.j.j.z.b.z.c.z.z.z.z.z.z.z.z.z.z.z.",
"z.z.z.v.z.z.z.z.z.z.z.z.z.z.z.z.z.z.l.v.v.v.z.z.j.b.b.q.% @ I +X$X6X@X@X#X+X|.+X%X}.].XX%X!.X.M J M $.T ;.d X , 7 : : % Z c.c.c.z.z.b.j.l.D.z.j.z.b.z.V.z.z.z.v.z.z.z.z.z.",
"z.z.z.z.z.z.z.z.z.z.z.z.z.z.z.z.z.z.z.z.v.z.z.z.z.z.z.b.E   : K oX].'.OX<X$X}.-X].%X).7.<.*.G J J J ;.;.m . X j.z.z.z.k.z.k.z.z.z.z.z.z.z.z.z.z.z.z.z.z.c.l.z.z.z.z.z.z.z.",
"z.z.z.z.z.z.z.z.z.z.z.z.z.z.z.z.z.z.z.z.z.z.z.z.z.z.b.b.j.B   & =.M.XX+XOX_.-X].].!.Q.@.O.o.O.o.$.:.$.n : % Z v.b.z.c.k.V.z.z.z.z.z.z.z.z.z.z.z.z.z.z.z.z.z.z.z.z.z.z.z.z.",
"z.z.z.z.z.z.z.z.z.z.z.z.z.z.z.z.z.z.z.z.z.z.z.z.b.b.j.z.z.b.l . * &.*XXXB.B.7.7.7.7.<.1.%.o.%.$.$.;.n O X P K.D.z.z.z.k.k.k.z.z.z.z.z.z.z.z.z.b.z.z.z.z.z.z.z.z.z.z.z.z.z.",
"z.z.z.z.z.z.z.z.z.z.z.z.c.l.z.z.z.z.z.z.v.c.z.z.l.k.b.z.j.b.^ & a s S S *.XXW.[.W.~.M.<.<.:.r.J i d d 1 @ Z b.b.z.z.z.z.z.z.z.z.z.z.z.z.z.z.z.v.z.z.z.z.z.z.z.z.z.z.z.z.z.",
"z.z.z.z.z.z.c.v.z.z.z.z.c.z.z.z.z.z.z.z.z.z.z.z.z.z.z.j.D.j.G./ ;.a O O H .Xm.m.m.w.m.w.;.;.;.n 3 3 a C % u.z.v.z.b.k.V.z.z.l.l.z.z.z.z.z.z.z.z.z.z.z.z.z.z.v.c.z.z.z.z.z.",
"z.z.z.z.z.z.z.z.z.z.z.z.v.z.z.z.z.z.z.z.z.z.z.z.z.z.j.D.z.z.z.b.Q E K w 1 1 7 1 2 1 2 : % - $ 2 Z.Z.Z 0 / b.z.x.k.b.b.z.z.v.l.l.z.z.z.z.z.z.z.z.z.z.z.z.z.z.z.z.z.z.z.z.z.",
"z.z.z.z.z.z.z.z.z.z.z.z.z.z.z.z.z.z.z.z.z.z.z.z.b.j.b.z.d.z.b.z.b.y.i.E A w v q B B b B C A x W E.P.y.^ b.z.j.l.b.z.b.z.z.z.z.D.z.z.z.z.z.z.z.z.z.z.z.z.z.z.z.z.z.z.c.z.z.",
"z.z.z.z.z.z.z.z.z.z.z.z.z.z.z.z.z.z.z.z.z.z.z.z.z.z.z.b.j.z.z.z.z.z.G.b.j.D.c.b.c.K.x.I.j.x.l.z.c.C.c.b.z.z.b.z.k.b.z.b.z.z.z.z.z.z.z.z.z.z.z.z.z.z.z.z.z.z.z.z.z.z.v.z.z.",
"z.z.z.z.z.z.z.z.z.z.z.z.z.z.z.z.z.z.z.z.z.z.z.z.z.z.z.z.z.z.z.z.c.b.c.b.c.z.c.z.z.z.z.z.c.v.b.z.c.z.z.z.z.z.b.z.z.z.z.z.z.z.z.z.z.z.z.z.z.z.z.z.z.z.z.z.z.z.z.z.z.z.z.z.z.",
"z.z.z.z.z.v.z.z.z.z.z.z.z.z.z.z.z.z.z.z.z.b.z.z.z.z.z.z.z.z.z.z.b.c.c.b.V.z.z.c.z.z.z.z.z.b.c.b.z.z.z.z.l.z.z.z.z.z.z.b.z.z.z.z.z.z.c.z.z.z.z.z.z.z.z.z.z.z.z.z.z.z.z.z.z.",
"z.z.z.z.z.c.z.z.z.z.z.z.z.z.z.z.z.z.z.z.z.z.z.z.z.z.z.z.z.z.z.z.z.b.b.b.c.z.c.b.z.z.c.v.b.v.z.b.b.v.z.v.z.z.z.z.z.z.z.z.z.z.z.z.z.z.v.z.z.z.c.z.z.z.z.z.z.z.z.z.z.z.z.z.z.",
"c.z.z.z.z.z.z.z.z.z.z.z.z.z.z.z.z.z.z.z.z.z.z.z.z.z.z.z.z.z.z.z.b.z.b.z.z.z.z.b.b.z.v.b.z.c.z.z.l.l.b.z.z.z.z.z.z.z.z.z.z.z.z.z.z.z.z.z.z.z.v.z.z.z.z.z.z.z.z.z.z.z.z.z.z.",
"l.z.z.z.z.z.z.z.z.z.z.z.z.z.z.z.z.z.b.v.z.z.z.z.z.z.z.z.z.z.z.z.z.z.f.z.z.z.z.z.c.b.c.k.z.f.f.f.z.l.z.z.z.z.z.z.z.z.z.z.z.z.z.z.z.z.z.z.z.z.z.z.z.z.l.z.z.z.z.z.z.c.l.z.z.",
"z.z.z.z.z.z.z.z.z.z.z.z.l.c.z.z.z.z.c.z.z.z.z.z.z.z.z.z.z.z.z.z.z.z.z.z.f.z.z.z.b.z.z.k.z.z.f.z.z.z.z.z.z.z.z.b.z.z.l.b.b.z.z.z.z.z.z.z.z.z.z.z.z.z.c.z.z.z.z.z.z.z.z.z.z.",
"z.z.z.z.z.z.z.z.z.z.z.z.z.z.z.z.z.z.z.z.z.z.z.z.z.z.z.z.z.z.z.z.L.v.v.v.z.z.z.z.f.z.z.z.b.b.c.b.b.z.z.z.z.z.z.z.z.l.l.l.l.z.z.b.z.z.z.z.z.z.z.z.z.z.z.z.z.z.z.z.z.z.z.z.z.",
"z.z.z.z.z.z.z.z.z.z.z.z.z.z.z.z.z.z.z.z.z.z.z.z.z.z.z.z.z.z.z.z.v.K.K.v.v.l.l.l.D.z.z.z.v.x.K.c.z.z.z.z.z.z.z.z.D.l.l.l.z.z.z.z.z.z.z.z.z.z.z.z.z.z.z.z.z.z.z.z.z.z.z.z.z.",
"z.z.z.l.z.z.z.z.z.z.v.z.z.z.z.z.z.z.z.z.c.z.z.z.z.z.z.z.z.z.z.z.v.b.v.v.z.z.z.z.z.z.z.z.z.b.c.z.z.z.z.z.z.z.z.z.z.v.z.z.z.z.z.z.z.z.z.z.z.z.z.z.z.z.z.z.z.z.z.z.z.z.z.z.z.",
"z.z.z.z.z.z.z.z.z.z.z.z.z.z.z.z.z.z.z.z.z.z.z.z.z.z.z.z.z.l.z.z.z.z.c.z.z.z.z.z.z.z.z.z.z.z.v.z.z.z.z.z.z.z.z.z.z.z.z.z.z.z.z.z.z.z.z.z.z.z.z.z.z.z.z.z.z.z.z.z.z.z.z.z.z.",
"z.z.z.z.z.z.z.z.z.z.z.z.z.z.z.z.z.z.z.z.z.z.z.z.z.z.z.z.z.z.z.z.z.z.z.z.z.z.z.z.z.z.z.z.v.z.z.z.z.z.c.l.z.z.z.z.z.z.z.z.z.z.z.z.z.z.z.z.z.z.l.z.z.z.z.z.z.z.z.z.z.z.z.z.z.",
"z.z.z.z.z.z.z.z.z.z.z.z.z.z.z.z.z.z.z.z.z.z.z.z.z.z.z.z.z.z.z.z.z.z.z.z.z.z.z.z.z.z.z.z.z.z.z.z.z.z.z.z.z.z.z.z.z.z.z.z.z.z.z.z.z.z.z.z.z.z.c.z.z.z.z.z.z.z.z.z.z.z.z.z.z.",
"z.c.z.z.z.z.z.z.z.c.z.z.z.z.z.z.z.z.z.v.z.z.z.z.z.z.z.z.z.z.c.z.z.z.z.z.z.z.z.z.z.z.z.z.z.z.z.z.z.z.z.z.z.z.z.z.z.z.z.z.z.z.z.z.z.z.z.z.z.z.z.z.z.z.z.z.z.z.c.v.z.z.z.z.z."
};
