/* XPM */
static char *xpm_[] = {
/* columns rows colors chars-per-pixel */
"85 85 251 2 ",
"   c #0C010C",
".  c #06040A",
"X  c #150309",
"o  c #010513",
"O  c #0C0412",
"+  c #010914",
"@  c #020C1C",
"#  c #080719",
"$  c #150717",
"%  c #08131C",
"&  c #19161B",
"*  c #12110D",
"=  c #230508",
"-  c #25181D",
";  c #2D0E16",
":  c #28221E",
">  c #020D23",
",  c #080A25",
"<  c #140924",
"1  c #031325",
"2  c #0C1225",
"3  c #031A25",
"4  c #02152B",
"5  c #0C152B",
"6  c #031B2C",
"7  c #0A1A2B",
"8  c #0D1B24",
"9  c #131B2C",
"0  c #161627",
"q  c #041631",
"w  c #031C33",
"e  c #0A1C33",
"r  c #031D3B",
"t  c #091836",
"y  c #181A33",
"u  c #231924",
"i  c #261929",
"p  c #341C27",
"a  c #291630",
"s  c #03202D",
"d  c #1B252B",
"f  c #18242B",
"g  c #042134",
"h  c #04223B",
"j  c #0A243B",
"k  c #0A2538",
"l  c #142333",
"z  c #1A2434",
"x  c #1A2839",
"c  c #1E3032",
"v  c #2A2422",
"b  c #28252B",
"n  c #37262B",
"m  c #262A37",
"M  c #372839",
"N  c #293238",
"B  c #37383B",
"V  c #43272B",
"C  c #452A37",
"Z  c #47363B",
"A  c #583639",
"S  c #553127",
"D  c #683C3D",
"F  c #421E1E",
"G  c #36423C",
"H  c #4A413B",
"J  c #59433C",
"K  c #64463E",
"L  c #032B42",
"P  c #172944",
"I  c #0A3549",
"U  c #0C3652",
"Y  c #163B55",
"T  c #14354C",
"R  c #382A42",
"E  c #2C3744",
"W  c #3B3D42",
"Q  c #373749",
"!  c #363D52",
"~  c #2C2A45",
"^  c #071E40",
"/  c #483945",
"(  c #5C3D43",
")  c #553A46",
"_  c #563F53",
"`  c #453850",
"'  c #6B3A48",
"]  c #1A4258",
"[  c #39424C",
"{  c #394856",
"}  c #284551",
"|  c #354F63",
" . c #454449",
".. c #584848",
"X. c #494A59",
"o. c #574756",
"O. c #4B535A",
"+. c #58565A",
"@. c #674648",
"#. c #654855",
"$. c #685A59",
"%. c #785B5D",
"&. c #70524D",
"*. c #585967",
"=. c #4A576A",
"-. c #665B67",
";. c #785B64",
":. c #6B5D74",
">. c #586268",
",. c #5A6B76",
"<. c #526F79",
"1. c #676569",
"2. c #74696B",
"3. c #6D6D72",
"4. c #656B76",
"5. c #786576",
"6. c #6A7277",
"7. c #757879",
"8. c #70716C",
"9. c #646756",
"0. c #865B57",
"q. c #8A6158",
"w. c #93695B",
"e. c #896666",
"r. c #926A6A",
"t. c #886A75",
"y. c #87767A",
"u. c #987A78",
"i. c #93736D",
"p. c #A87675",
"a. c #8C5F64",
"s. c #7A8072",
"d. c #9C8376",
"f. c #8B8077",
"g. c #B6866B",
"h. c #A9867A",
"j. c #B48C73",
"k. c #B88B76",
"l. c #B99479",
"z. c #A8846B",
"x. c #C78E78",
"c. c #C3947D",
"v. c #C9977A",
"b. c #D4987B",
"n. c #5B7882",
"m. c #677886",
"M. c #727C84",
"N. c #767A86",
"B. c #8B7985",
"V. c #B37D83",
"C. c #7B848A",
"Z. c #6C8796",
"A. c #798894",
"S. c #7392A1",
"D. c #8D8B8D",
"F. c #868689",
"G. c #968787",
"H. c #92938E",
"J. c #99968F",
"K. c #8B8D93",
"L. c #858B94",
"P. c #958C93",
"I. c #8C9295",
"U. c #8A9499",
"Y. c #959594",
"T. c #9A9694",
"R. c #969A95",
"E. c #999997",
"W. c #94969A",
"Q. c #9A979B",
"!. c #969A9B",
"~. c #9A9A9A",
"^. c #8F9788",
"/. c #AA8A89",
"(. c #B48B86",
"). c #BB9684",
"_. c #A39998",
"`. c #B69897",
"'. c #AC8E8F",
"]. c #98A19A",
"[. c #B0A096",
"{. c #959CA2",
"}. c #9A9DA2",
"|. c #9698A3",
" X c #8798AA",
".X c #B09BA2",
"XX c #8EA3A9",
"oX c #9CA2A5",
"OX c #99B2BB",
"+X c #96A6B3",
"@X c #A9B4BB",
"#X c #AEACB0",
"$X c #C59584",
"%X c #CA9A83",
"&X c #C89987",
"*X c #D49986",
"=X c #C79C95",
"-X c #C28E83",
";X c #C9A28B",
":X c #D2A38B",
">X c #CBA596",
",X c #D8A797",
"<X c #D7B298",
"1X c #CEB29C",
"2X c #E7B29A",
"3X c #E4A998",
"4X c #C49AA4",
"5X c #C7A5A4",
"6X c #D6ADA3",
"7X c #D8B7A8",
"8X c #C8B8B5",
"9X c #D3B7B0",
"0X c #E7B4A7",
"qX c #E09E8E",
"wX c #DCC7B6",
"eX c #DAC4AB",
"rX c #E9C7B5",
"tX c #9BB3C1",
"yX c #AABBC6",
"uX c #B2BAC4",
"iX c #DDBFC1",
"pX c #BAC6CA",
"aX c #B5C6D1",
"sX c #B2CBD4",
"dX c #BCD7EA",
"fX c #C8C6C6",
"gX c #D8C7C7",
"hX c #C7D5D9",
"jX c #D3D8DE",
"kX c #C7D0D2",
"lX c #E9CDC8",
"zX c #E9D5C9",
"xX c #F6D9C9",
"cX c #F9DCD6",
"vX c #E9DBD5",
"bX c #FFE3DA",
"nX c #FEEBDC",
"mX c #FEE5D3",
"MX c #FFF2DB",
"NX c #F8E1D0",
"BX c #D3DCE3",
"VX c #CAD7E3",
"CX c #DBF7FD",
"ZX c #D4E7ED",
"AX c #FEEBE4",
"SX c #FDF5E7",
"DX c #E8F8FB",
"FX c #F4FEFE",
"GX c #FBFEFD",
"HX c #F7F8F5",
"JX c #E7EBEB",
/* pixels */
"E.E.E.E.E.E.E.E.E.E.E.E.E.E.!.E.E.E.E.E.E.E.E.E.E.E.E.W.E.E.E.E.!.Q.E.~.!.E.E.!.E.E.E.E.E.E.E.E.~.E.E.E.E.E.Q.E.E.E.E.E.E.E.E.E.E.E.E.E.E.E.E.E.E.E.E.E.E.E.E.E.E.E.Q.E.E.",
"E.E.E.E.E.E.E.E.E.E.E.E.E.E.E.E.E.E.E.E.E.E.E.E.E.E.E.Q.E.E.E.E.E.!.!.~.E.E.E.R.E.].E.E.~.~.~.~.E.E.E.E.E.E.E.E.E.E.E.E.E.!.E.E.E.E.E.E.E.E.E.E.E.E.E.E.E.E.E.!.E.E.E.E.E.",
"E.E.E.E.E.E.E.E.Q.E.E.E.E.E.E.E.E.E.E.E.E.E.E.E.E.!.E.E.E.E.E.E.E.~.W.~.E.E.E.E.E.J.E.E.E.E.~.E.E.E.E.E.!.E.E.E.E.E.E.E.E.E.E.E.E.E.E.!.E.E.E.E.E.E.E.E.E.E.E.E.E.E.E.E.E.",
"E.E.E.E.E.!.E.E.E.E.E.E.E.E.E.E.E.E.E.E.E.E.E.E.E.E.E.E.E.E.Q.E.~.E.~.E.E.E.E.E.E.E.E.].E.E.E.E.E.E.E.E.E.E.E.E.E.E.E.E.E.E.E.Q.E.E.E.E.E.E.E.E.W.E.E.E.E.E.E.E.E.E.E.E.E.",
"E.E.!.E.E.E.E.Q.E.E.E.E.E.E.Q.E.E.E.E.E.E.E.E.E.E.E.E.E.E.E.E.E.E._.E.E.E.E.E.E.]._.J.J._.E.E.E.~.E.E.E.E.E.E.E.!.E.E.E.E.E.E.E.E.E.E.E.E.E.E.E.Q.E.!.E.E.E.Q.E.E.E.E.E.E.",
"E.E.Q.E.E.E.E.E.E.E.E.E.E.E.E.E.E.E.E.E.E.E.!.E.E.E.E.E.E.E.E.E.E.E.E.E.E.E.E.E.J.E.E.E.J.J.E.E.E.E.!.~.E.E.E.E.E.E.E.E.E.E.E.E.E.E.E.E.E.E.E.E.E.E.E.E.E.E.E.E.E.E.E.E.E.",
"E.E.E.E.E.E.E.E.E.E.E.E.E.E.E.E.E.Q.E.E.E.E.E.E.E.Q.E.E.E.E.E.E.E.E.E.E._.E.E.E.J.E.E.E.E.E.E.E.E.E.E.E.E.E.E.E.E.E.E.E.E.E.E.E.E.E.E.Q.E.E.E.E.E.E.E.E.E.E.E.E.E.E.E.E.E.",
"E.E.E.E.E.E.E.E.E.E.E.E.E.E.E.E.E.E.E.E.E.E.E.E.E.E.E.E.E.E.!.E.E.E.E.E.E.E.E.E.R._.E.J.E.E.R.R.E.E.E.E.E.E.E.Q.E.E.E.E.E.E.E.Q.E.E.E.E.E.E.Q.E.E.E.E.Q.E.E.E.E.E.E.E.E.E.",
"E.E.E.E.E.E.E.E.E.E.E.E.E.Q.!.E.!.E.E.E.E.E.E.E.!.E.E.E.Q.E.E.E.T.T.~.T.~.R.Y.~.E.R.~.E.R.R.~.E.E.E.E.E.E.E.E.E.E.E.E.E.E.E.E.E.E.E.E.E.E.E.E.E.E.E.E.Q.E.E.E.!.E.E.E.E.E.",
"E.E.E.E.E.E.E.E.E.E.E.E.E.W.E.E.Q.W.E.E.E.E.E.E.E.E.E.E.E.E.E.E.E.~._.T.E.~.E.Y.~._.E.E.E.R.~.E.E.E.E.!.E.E.E.E.E.E.E.E.E.E.E.E.E.E.E.E.E.E.E.E.E.E.E.E.E.E.E.E.E.E.E.E.E.",
"E.E.E.E.E.E.E.E.E.E.E.E.E.E.E.E.E.E.E.E.E.E.E.E.E.E.E.E.E.E.E.E.E.E.E.~.E.E.!.!.I.E.!.I.1.I.Y.!.Q.E.E.E.E.E.E.E.E.E.E.E.E.E.E.E.E.E.E.E.E.E.!.E.E.E.E.E.E.E.E.E.E.E.E.E.E.",
"Q.W.E.E.E.E.E.E.E.E.E.E.E.E.E.E.E.E.E.E.E.E.Q.E.E.E.E.E.E.E.E.E.E.E.R.E.!.~.~.oX~.E.8.N & 3.oX!.!.E.E.E.Q.~.E.E.E.E.E.E.E.E.E.E.E.Q.E.E.E.E.E.E.E.E.E.E.E.E.E.E.E.E.E.E.E.",
"E.E.E.E.E.E.E.E.E.E.E.E.E.E.E.E.E.E.E.E.E.E.E.E.E.E.E.E.E.E.~.E.R.E.E.!.!.!.!.!.3.. m {.JXoXO.!.E.E.E.E.E.E.E.E.E.E.E.E.E.E.E.E.E.E.E.E.E.E.E.E.E.E.E.E.E.E.E.E.E.E.E.E.E.",
"E.E.E.E.E.E.E.E.E.E.E.E.Q.E.E.E.E.E.E.E.E.E.E.E.E.E.E.E.E.E.Q.!.E.R.].R.I.Y.s.b % M.JXFXGX@XN oXE.E.E.E.E.E.E.E.E.E.E.E.E.E.E.E.E.E.!.E.E.E.E.E.E.E.E.E.E.E.E.E.E.E.E.E.E.",
"Q.E.!.E.E.E.E.E.E.E.E.E.E.E.E.E.E.E.E.E.E.E.E.E.E.E.E.E.E.E.E.E.R.R.U.R.7.. * >.jXDXFX7.M.+XB !.!.E.E.E.E.E.E.E.E.E.E.E.E.E.W.Q.E.E.E.E.E.E.E.E.E.E.E.E.E.E.E.E.W.E.E.E.Q.",
"E.E.E.E.E.E.E.Q.E.E.E.!.E.E.E.E.E.E.E.E.E.E.E.E.E.E.E.Q.E.E.E.E.!.R.6.d d 4.jXDXHXC.Q % E @X[ !.E.E.E.E.E.E.E.E.E.W.~.E.E.E.E.E.E.Q.W.E.E.E.E.E.E.E.E.E.Q.E.E.E.Q.!.E.E.E.",
"E.E.E.E.E.!.E.E.E.E.E.E.E.E.E.E.E.E.E.E.E.E.E.E.E.E.E.~.!.~.E.{.8.f d A.pXGXGX#XN @ t > } yXX.!.~.!.E.E.E.J.E._.E.E.E.~.E.~.~.!.E.E.E.E.E.E.E.E.E.E.E.E.E.E.E.E.E.E.E.E.E.",
"E.E.E.E.E.E.E.E.E.E.E.E.E.E.E.E.E.E.E.E.E.R.J.E.E.E.E.Y.}.E.7.8 B oXsXFXFXF.G d @ 2 t > | aXO.E.!.~.E.E.~.T.E.E.~.E.!.!.E.E.E.E.E.Q.E.E.E.E.E.E.E.E.E.E.!.E.E.E.E.E.E.E.!.",
"E.E.E.E.E.Q.E.E.Q.E.E.E.E.E.E.E.E.E.E.E.E.E.E.E.E.E.E.}.1.b N s.hXFXDXC.{ 8 + @ s l y @ =.aXX.!.E.~.E.Y.~.}.E.R.E.R.!.R.E.E.E.E.E.E.E.E.E.E.!.E.E.E.Q.E.W.Q.E.E.E.E.E.E.E.",
"E.E.E.E.E.E.E.E.E.E.E.E.E.!.E.E.E.!.E.E.E.J.E.E.~.E.oX6.[ M.jXDXkX+X{ + + 2 e k g g e @ { sXm *.I.~.~.~.W.W.E.~.E.R.R.].E.E.E.E.!.E.E.E.E.E.E.E.E.E.E.E.E.E.E.E.E.E.Q.E.E.",
"E.E.E.E.E.E.E.E.E.E.E.E.E.E.E.E.E.E.E.E.J.E.E.E.E.E.C.G oXGXjX>.c f o 3 w j q t w j 7 > { pXX.I.-.1.F.].E.E.!.!.].E.J.J.J.R.R.R.E.E.E.E.E.E.E.E.E.E.E.E.E.E.E.E.E.E.E.E.E.",
"E.E.E.E.E.E.E.E.!.Q.E.E.E.E.E.E.E.E.E.E._.R.E.E.!.!.7.& @XhXN 8 0 o l g 6 r q t h w q @ { @X$.gXfX2.H +.Y.!.~.E.E.J.R.J.J.].E.~.~.E.E.E.E.E.E.E.E.E.E.E.E.E.E.E.E.E.E.E.E.",
"!.E.E.E.E.Q.E.E.E.W.E.E.E.E.E.E.E.E.E.E.E.E.E.E.!.!.F.b @XuX% M.m.@ l g r j w q r r P > ! pXH ^.wXwX8XF.3.7.I.].J.J.E._.E.E.~.~.~.E.E.E.E.E.E.E.E.E.E.E.E.E.E.E.E.E.!.Q.E.",
"E.E.E.E.E.E.E.E.E.E.E.E.E.E.E.E.E.E.E.].J.E.E.R.].R.C.m uXaXx E N.N.@ 6 h q w r r r q , 7 pXH h.).7XNXSX8X7.9.F.J.].T.~.Q.~.~.~.E.E.E.E.E.E.E.E.E.E.E.E.E.E.E.E.E.E.E.E.E.",
"E.E.E.E.E.E.E.E.E.E.E.E.E.E.E.E.E.E.E.E.E.].R.].R.].C.d @XhXx ! *.=.4 4 r g 4 g h q > , =.|.Z /.1Xg.j.1XwXzX#X+.+.F.~.~.Q.Q.E.Q.E.~.E.E.E.E.E.E.E.E.E.E.E.E.E.E.E.E.E.E.E.",
"E.E.E.E.!.E.E.E.E.E.E.E.E.E.E.E.E.E.E.E.E.E.E.E.H.!.F.d #X@X! {.X.o e 6 h r w 6 > > P | uX4.- &.&X0Xc.j.j.1XNX8XY.+.Q L.~.Y.~.Y.E.Y.R.E.Y.Y.E.E.E.E.E.E.E.Q.E.E.E.E.E.E.E.",
"E.E.E.E.E.E.E.E.E.E.E.Q.E.E.E.E.E.~.E.E.E.J.E.R.].R.I.c |.OXE X.m 2 6 6 r w 4 o j m.+XA.n.A.|.B.&.e.>X,X;Xz.k.7XzXfXF.*.[ F.E.E.R.~.~.E._.~.R.E.E.E.E.E.E.E.E.E.E.E.E.Q.E.",
"E.E.E.E.E.Q.E.E.E.E.E.E.E.E.E.E.E.~.E.E.E.E.E.E.!.R.C.m |.OX3 o > 9 6 3 4 > P =.m.XXA.,.m.hXVXuX8.V @.(.0X<Xc.j.;XwXvXfX8.G 7.~.~.H.Y.E.E.E.~.R.E.E.E.E.E.E.E.E.E.E.E.E.E.",
"E.E.E.E.E.E.E.E.E.E.E.E.E.E.E.E.E.E.E.E.E.E.J.].!.oXI.f U.yXE + 3 3 1 4 k | Z.+XA.<.I.pXdXn.P { +XkXF...%.=X<X,Xl.z.;XwXzX#X+. .F.R.~.E.E.E.E.~.E.E.E.E.E.E.E.E.E.E.E.E.E.",
"E.E.E.E.E.E.E.Q.E.E.E.E.E.E.E.E.~.~.E.E.E.E.E.E.R.!.I.+ M.BXm.o @ 4 w | =.A.A.A.XXsXhXXX} s 4 3 } OXBXF.Z J r.&X<Xv.j.z.1XvXgXy.+.1.f.!.~.E.E.E.E.E.E.E.E.!.E.E.E.E.E.E.E.",
"E.E.E.E.E.E.E.W.E.E.E.E.E.E.E.E.E.~.E.!.R.E.E.R.~.Y.F.N 4.hX,.o x | m.S.Z.<.A.pXpXA.P o L I I ] L 6 } ZXjX7.S @.k.2X*X*Xk.j.0XMXfXY.9.1.H.~.E.E.E.E.E.E.E.E.E.E.E.E.E.E.E.",
"E.E.E.E.E.E.E.E.E.E.!.E.E.E.Q.E.~.~.E.E.R.R.E.E.H.>.H.!.6.yXm.x ,. XZ.Z.sXsXZX7.f @ 4 T ] L I h h ] n.VXFXGXfX&.K h.*Xx.*X%Xz.l.wXAXvX^.1.y.~.Q.E.E.!.W.E.E.E.Q.E.E.E.!.E.",
"E.E.].E.E.E.E.E.E.!.E.~.E.E.E.E.E.E.R.R.].R.D.8.2.gXvXy.{ tXOX<.| Z.OXJXVXA.{ 3 k I ] I I k h T n.sXFXHXAXHXFXGXB.* w.2Xb.b.v.l.p.j.eXnXgXH.-.3._.R.!.!.~._.E.E.E.E.E.E.E.",
"E.E.J.E.].E.J.E.~.Q.~.Y.].E.E.R.!.].E.R.^.s.F.8XvXcX.XH [ Z.s.<.A.aXpX=.z @ j I U U U I k ] <.sXDXFXJXJXHXHXjX@X .; w.2Xb.x.*Xl.c.g.>XlXHXjXB & E.E.!.!.~.~.E.E.E.E.E.E.E.",
"E.E.E.J.J.J.E.E.H.Q.E.~.T.E.E.E.E.J._.f.9.eXMXmX7X(.i.V + O.uXDXZX,.@ @ L U | Y U U h U <.dXCXdXkXJXHXFXDXuX! o v h.2Xv.b.x.k.:X<XmXSXlXP.) O  .E.R.!.{.~.~.E.R.E.E.E.E.E.",
"E.].].J.E.].R.E.}.~.E.E.E.J.~.E.~.y.7.wXSXwX<Xg.j.j.S X O M.BXJXyX} 3 P ] U U U L U =.tXZXtX} 3 G pXJX@X3.$ O ;.>X:Xv.v.$Xv.2XrXmXlX/.&.i O -.Q.E.E.!.~.E._.R.R.E.E.E.E.E.",
"E.E.E.E.E.E.E.E.E.E.E.E.~.E.}.F.C.fXAXlX:Xg.g.x.*X%Xp.S $ % & 7.JXCXXX| L 1 L | Z.OXDXGXF.% c XXhXpX4.. X J k.3X,Xx.k.-X6XcXcX0X/.@.; X # < 1.}.E.R.!.!.~.~.E.R.E.E.E.E.E.",
"E.E.E.J.R.R.E.E.E.~.E.Y.].~.F.I.ZXJX1Xp.g.b.b.b.x.*X0X5X$.u X . [ @XDXCXS.| | tXGXFXGXHXDXpXFXJX].8 O  .h.<X2Xv.g.*X>XlXAXgXB...p X X & m E *.Q.E.R.!.~.~.E.R.R.E.E.E.E.E.",
"J.E.E.E.E.E.E.E.R.E.Y._.f. .JXGXvXd.z.l.v.v.x.x.$Xl.=X,X=X=Xp.F X . } sXCXCXFXGXHXHXHXGXCXBXA.f * J ).0X2Xv.j.l.6XcXSXlXB./ a < @ $ C 5.:.Q X.W.].E.E.~.~.E.E.R.E.E.E.E.E.",
"E.E.E.].E.E.E.E.E.E.E.E.7.  1.#XNXMX7X&Xc.l.v.%X&X;X$X%X,X,XqXV.0.n . % } OXZXFXGXHXDXpX>.d . - d.eX;Xv.x.j.0XmXHXgXy.) M ; $ < Q 4.B.o.$ < 4.{.E.R.E.E.E.E.E.R.!.E.E.E.!.",
"E.E.E.E.E.~.E.E.J.E.].E.Y.$.O b 8.7XAXAXwX).v.x.v.v.v.v.;X:X*X3X3X*X0.n o l } OXCXdX,.b u ( h.;X:Xv.).&XeXcXcXlX'.M < < < $ C B.B.*.a O < m *.{.E.E.R.E.E.R.E.E.E.E.E.E.E.",
"].J.E.E.E.~.E.E.E.E.J.].~.I.f $ - n t.lXHXbX0Xc.l.l.v.v.%Xv.*X*X*XqX0X5Xy.b o f { E o Z `.6X2X*Xv.l.6XcXSX9Xe.V = ; y < R -.a.;.i < O a N.*.X.!.E._.E.R.E.E.E.E.E.E.E.E.E.",
"E.E.E.E.~.E.E.E.E.].J.].E.oXi $ < < R ` t.lXnXmXrXl.x.*Xv.x.*X&X*Xx.*X,X6X>Xp.; X S (.7X).;Xk.j.rXnXcXiXt.#.; = V i.B. .*.:.a i z o   / D.:.+.|.E.E.E._.E.R.R.!.E.E.E.E.E.",
"J.E.E.].~.E.E.E.J.R.E.R.|.W.z ` ~ o , < u Z i.wXSXcX6XV.x.v.&X&X$X=X$Xx.:X:X,X$X-X6X,X$X$Xg.rXmXxX8Xt.C ; X ; a.6X9X7.- * B 6.U.! . M V..X-.o.I.E.J.E.E.E.E.!.E.!.E.E.E.E.",
"E.E.E.E.~.~.~.E.E.J.E.R.}.}.0 Q =.X.M < , 0 M / B.lXAXxX<Xl.k.&X%X$X).;X%X%X;X:X:X&Xk.).7XnXcX0X;.p V ; $ X &.7X'...* B 2.F.~.~.Q X ( `..XO.W ].E.E.E.E.E.E.E.E.E.E.E.Q.E.",
"E.E.E.!.~.~.~.E.].J._.J.Q.}.# # i Q X.! z , < a a ) B.lXMXxX<Xk.l.&X;Xv.%X%X%X%Xl.j.rXMXAX9XB.A ; ; ' t./ o.r.&.- u 1.H.T.E.!.!.W b &./.#X..B R.E._.E.J.E.E.E.E.E.E.E.E.E.",
"E.R.E.~.~.E.~.E.J.J.E.Q.Q.}.0 y < 2 y Q X.` p $ < y ~ #.`.mXAXxX;Xj.k.:X:Xl.l.).7XcXnXrXu.%.M X ; p.=X'.G.X.& u $.G.Q.Y._.T.~.}./ n @.h.5X@.Z ].E.E.E.E.E.E.Q.E.E.E.E.E.E.",
"E.R.E.~.~.~.E.R.E.E.E.T.}.|.i X.i , , t y ` _ ` y , < a p C B.vXAXxX:Xl.j.).7XcXbX9Xu.K V ; O _ 5X9X/.n u R *.K.~._.Q.Q._.T.{.!.W n D (.5X..B E.E.E._.E.E.E.~.E.E.E.E.E.E.",
"R.E.E.~.Q.E.E.E.E.E.E.E.E.Q.u o._ p < < ! ! Q N Q Q a < < < a _ 4XcXMXrXeXMXbXlX'.) p $   < O 5.#X#.< M 1.K.Q.E.E.T._.Q.T.E.~.~./ n @.V..X..H U.E.~.~.E.E.E.E.E.E.E.E.E.E.",
"E.E.~.E.E.Q.E.E.E.E.R.E.~.Q.& ) B.a.a # m.L.>.m i M o.o.a , < a C ;.9XSXMXnX'.%.M ; O $ ` *.b R ` 0 < [ 4.U.}.E.T._.T.T.E.E.E.}.B n ' p.`.#.B oXE.E.E.E.Q.!.E.E.E.E.E.E.E.",
"~.R.~.E.~.Q.E.E.R.R.J.E.T.Q.& Z u.r.p O 5.{.}.L.*.a a Q ` Q y , # i Z y.y.2./ $   $ _ 5.;.Q l 1 2 , 9 z m X.N.}.Q.Q.Q._.E.E.R.E.Z n @.p.`...B ].E.E.E.E.E.~.E.E.E.E.E.E.E.",
"R.E.E.~.E.Q.E.E.E.E.R.E.Q.Y.- C r.r._ < 6.I.W.{.}.K.:.~ 0 ~ ! E y , O i M i $ # R t.t.C a 0 4 w 6 7 7 7 1 e [ *.K.}.}.Q.E.R.E.E.G v A h.[...G ].E.E.E.E.~.~.~.E.E.W.W.E.E.",
"~.R.E.E.E.~.E.E.J.E.E.E.Q.T.u C e.a.#.; 3.].~.E.}.Q.~.W.1.m 8 E Q ~ a O # # M *.*._ ~ , 2 q q w w w 6 4 w 4 5 x ! N.W.W._.~.E.E.B : J h.).H [ ].E.E.E.E.E.~.E.~.E.E.E.E.E.",
"R.~.~.R.~.~.E.E.R.E.E.E.T.P.u C r.r._ i 3.R.R.E.T.Q.E.E.}.U.3.[ Q o.` m 9 ! *.` ~ < , 5 q w h j w k h 6 j 6 4 4 5 m O.K.~.E.~.Y. .v D p.[.H N !.E.E._.E.~.E.~.E.E.E.E.E.E.",
"E.E.~.~.Q.Q.E.E.R.R.E.E.Q.H.u V r.t._ u 3.I.R.].Q.E.T.J.E.!.~.Y.:.y P ! ~ X.x t > 7 t 5 3 7 t r r g g w r r w 4 4 y 9 E 6.W.}.!./ - D p.).J B ].E.E.J.E.E.!.!.E.E.Q.E.E.E.",
"E.!.E.~.Q.E.E.E.E.R.E.~.Q.E.u n r.r._ u 1.!.E.R.T._.J.E.E.E.~.{.N.t 5 < < y 5 e e q 4 3 7 6 t w r w h w w 6 w 6 4 t 1 7 z { A.{./ ; ' V.`.Z G !._._.'.E.E.~.!.R.E.E.~.E.E.",
"E.E.E.~.T.~.E.E.E.J.E.E.E.D.p n r.e.o.i 1.!.E.R.E.~.E.E.E.].F.O.t y R a   M 5.m , t g 3 3 3 w r r r w r g w w 6 6 e 4 4 3 6 E >.O.C ' V.4X( b _.E._.J.E.~.E.E.R.E.E.E.Q.E.",
"E.!.~.~.~.Q.E.E.].].J._.~.T.& n e.i.) - 2.Y.E.!.~.~.E.!.I.*.f @ , y _ ) C r.'.M 1 w r g s s 6 g r w w w w w 6 w 6 w s s 4 6 j e 9 M #.`.'./ m U.E._._._.E.E.R.J.E.E.E.E.E.",
"!.E.~.E.Q.~.E.E.J.R.E.].T.P.- Z e.0.#.u 1.E.E.!.W.|.U.,.z 3 l 4 3 8 / @.w.=X'.b > r r r g s g r 6 w e w w 6 w s g 3 6 g 6 w w 4 7 2 Z 2./ $  .!.E.E.E.R.E.E.E.E.E.E.E.E.E.",
"E.E.E.E.T.Q.E.E.R.E.E.E.T.D.u n 0.a...; *.E.~.!.{.4.m 3 k q 4 w 7 8 M @.p.>Xd.v 1 r r h g s g g w q q q 6 q q 6 s g g g 6 4 4 4 @ # . X u 2.I.!.~.E.R.E.E.E.E.E.!.E.E.E.E.",
"E.E.E.E.E.Q.E.E.E.E.E.~.E.D.u Z 2.0.o.i -.XX{.6.N 9 6 4 4 w L r q y / ) r.=Xi.n 1 q g g s s w q w q w 6 q e w w 6 w 4 3 6 7 4 5 7 N O.2.Y.!.}.~.~.E.R.R.E.T.E.E.E.!.E.E.E.",
"R.!.~.E.Q.~.E.E.R.J.E.~.T.D.$ p e.t.o.y *.C.N 1 1 4 6 k g r r q q < C ( a.&Xz.- % q r w 7 3 e q 6 6 6 q q e e w 6 w w 6 7 @ + z { L.E.J.E.~.Q.Q.E.E.R.R.E.Q._.E.E.E.E.E.E.",
"E.!.E.~.E.~.E.E.].R.Y.E.~.P.n   / o.R 5 3 1 2 7 4 7 s 3 g h r r w 0 M @.w.).u.: 2 w r r s w w w g 6 6 w w w q r q 4 4 3 7 z X.N.|.}.E.E.E.H._._.R.R.R.R.E._.T.Q.E.E.E.E.E.",
"E.E.!.~.~.E.E.E.J.E.E.E.~.Q.H.o.p 0 , , 1 7 3 3 e 6 4 g w w h w w y R ( q.).d.: 1 t r r g g r r g s w w w q q e e 4 7 c *.K.~.E.~.E.E.J.E.E.T._.E.R.].R.E.~.E.E.E.E.E.E.E.",
"E.E.E.E.E.!.E.E.E.E.E.E.E.Q.E.Q.F.+.M 9 9 2 3 7 w q 6 r 6 r k w w y R ( q.).d.: 3 t r L s g r r r r r 4 e 4 5 8 l E X.C.!.oX!.~.!.Q.E.E.E.E.E.Q.Q.!.E.E.E.E.E.E.E.E.E.E.Q.",
"E.E.E.E.E.E.E.E.E.E.E.E.E.E.E.Q.Q.}.F.X.f 0 3 > q e w r g g w w q y M @.q.&Xd.: 1 r r q 4 k r ^ r w w e > 1 l l W C.!.~.!.E.E.E.E.E.E.E.E.E.E.E.E.E.E.E.E.E.!.E.E.E.E.E.E.",
"E.E.E.E.E.E.E.E.E.E.E.E.E.E.E.!.~.~.W.L.4.{ m s 7 4 4 q q 6 w g t t M ( q.$Xd.: > r r r 3 g w r w w 4 3 x z O.C.U.}.E.!.E.E.E.E.E.E.E.E.E.E.E.E.E.E.E.E.E.E.E.E.E.E.Q.E.E.",
"E.E.E.E.E.E.E.E.E.E.Q.E.E.E.E.E.E.E.!.!.{.{.C.=.x > 4 l q q w w t y M A q.$Xd.v > ^ r r s 6 3 3 > l e z ,.L.{.!.!.!.E.~.E.Y.E.Y.E.E.E.E.E.E.E.E.E.E.E.E.E.E.E.E.E.E.E.E.E.",
"E.E.E.E.E.E.E.E.E.E.E.E.E.E.E.E.E.Y.R.E.E.!.oXL.X.m l 6 3 q k e r y M A q.&Xu.v 1 r r w 3 3 % s x z [ A.U.}.!.E.Y._.R.J._.E.E.E.E.E.E.E.E.E.E.E.E.E.E.E.E.Q.!.E.E.E.E.E.E.",
"E.E.E.E.E.E.E.E.E.E.E.E.E.E.E.E.E.E.].E.E.Y.~.!.!.L.,.~ 5 7 1 q q y M ) 0.$Xi.n 9 ^ w r 3 8 f c O.I.}.{.!.}.E.~.R.E.E._._.J.T.E.E.E.E.E.E.E.E.E.E.E.E.E.E.E.E.E.E.E.E.E.E.",
"E.E.E.~.E.E.E.E.E.E.E.E.E.E.E.E.].H.^.J.E.E.E.!.U.}.L.>.O.{ y 3 5 0 M ) 0.).u.n , q t 6 % c >.C.~.!.E.E.E.T.E.Y._.J.E.E.J.E.].E.E.E.E.E.E.E.E.E.E.E.E.E.E.E.E.E.E.E.!.E.E.",
"W.E.E.E.E.E.E.E.E.E.!.E.E.E.E.E.E.E.E.E.R.E.J.E.!.!.}.|.|.C.{ 9 5 2 M ) %.`.G.b # 1 y E >.C.R.].E.].E.E.Y.E.~.E.J.J._.E.~.E.E.~.E.E.E.E.Q.E.E.E.E.E.E.E.E.E.E.E.E.E.E.E.E.",
"E.E.E.E.Q.E.E.E.E.E.E.E.E.E.E.E.E.E.E.E.E.J.J.E.E.E.E.E.!.{.L.O.8 2 0 C y.B.n O 0 ~ >.L.{.E.Y.~.E.E.E.E.E.E.E.E.E.J.E.E.E.E.~.E.E.E.E.E.E.E.E.E.E.E.E.E.Q.E.E.E.E.E.E.E.E.",
"E.E.E.E.E.E.E.E.E.E.E.E.E.E.E.E.~.E.~.E.E.E._.E._.E.R._.E.E.oXY.7.B & * Z Z . & -.L.}.Q.Y.E.~.E.E.~.E.R.E.E.E.E.E.E.E.E.E.E.!.~.E.E.Q.E.E.E.E.!.E.E.E.E.W.E.E.E.E.E.E.E.E.",
"Q.E.E.E.E.E.E.E.E.E.E.E.Q.E.!.~.~.~.E.E.E.E.E.E.E.E.J.].R.H.R.!.!.!.o.0   O +.W.!.}.Q.Q.Q.E.Q.E.E.E.E.E.E.E.E.E.E.E.E.~.E.].E.~.E.E.!.E.E.E.E.E.E.E.E.E.E.E.E.E.E.E.E.E.E.",
"E.~.E.E.E.E.E.E.E.E.E.E.E.E.E.E.~.~.E.E.E.E.E.R.E.E.E.J.R.E.R.E.R.!.R.L.D.Y.Y.~.Q.W.E.T.~.E.Q.E.E.E.E.E.E.E.E.E.E.~.E.E.~.~.~.E.E.E.E.E.E.E.E.E.E.E.Q.E.E.E.E.E.E.E.E.E.E.",
"E.E.E.E.Q.E.!.E.E.E.E.E.E.E.E.E.E.~.~.E.E.E.E.R.E.E.E.R.E._.E.E.E.~.Y.~.~.E.oX~.Q.E.~.~.E.E.Q._.E.E.E.E.E.E.Q.E.!.~.E.R.].E.E.E.E.E.E.E.E.E.E.E.E.E.E.E.E.E.E.E.E.E.E.E.E.",
"!.E.E.E.E.E.E.E.E.E.E.E.E.E.E.Q.E.E.~.E.E.E.E.R.E.R.E.E.E.E.J.J.E.E.!.E.Q.~._.H.~.Y.I.~.~.E.T.E.E.E.E.E.E.E.~.~.~.R.E.E.R.E.E.E.E.E.E.E.E.!.E.E.E.E.E.E.E.E.E.E.E.E.E.E.E.",
"E.E.E.E.E.E.E.E.E.E.E.E.E.E.W.E.E.E.E.E.E.E.!.R.].E.E.!._.].E.E.~.E.].E.E.E.E.E.I.].].!.!.E.T.T.E.E.~.E.E.E.E.E.E.E.E.R.E.E.E.J.E.E.E.E.E.E.E.Q.E.E.E.E.E.E.E.E.E.E.E.E.E.",
"E.E.E.E.E.E.E.E.E.E.E.E.E.E.E.E.E.E.E.E.E.E.!.!.E.E.~.E.E.~.E.E.~.E.E.T.Y.E.E.J.].!.!.!.E.E.E.E.E.~.~.E.~.~.E.E.E.E.E.E.R.E.E.E.E.E.Q.E.E.E.E.E.E.E.E.E.E.E.E.E.E.E.E.E.E.",
"E.E.E.E.E.E.E.E.E.E.E.E.E.E.E.Q.E.E.E.E.E.E.E.E.E.E.E.E.E.Q.E.E.E.E.E.E.E.E.E.E.E.E.!.E.E.E.E.E.Q.E.E.E.E.E.E.E.E.E.E.E.E.E.E.E.E.E.E.E.E.E.E.E.E.E.E.E.Q.E.E.E.E.E.E.W.E.",
"E.E.E.E.W.E.E.E.E.E.E.E.E.E.E.E.E.E.E.E.E.E.E.E.~.E.E.E.E.E.E.E.E.E.E.E.!.E.E.E.E.E.E.E.E.Q.E.E.E.E.W.E.E.E.E.E.E.E.E.E.E.E.E.E.E.E.E.E.E.E.E.E.E.E.!.E.E.E.E.E.E.E.E.Q.E.",
"E.E.E.E.Q.E.E.E.E.E.E.E.E.E.E.E.E.E.E.E.E.E.E.E.Q.E.E.E.E.E.E.E.E.E.E.E.E.E.E.E.E.E.E.E.E.!.E.E.E.E.E.E.E.E.E.E.E.E.E.E.E.E.E.!.E.E.E.E.E.E.E.E.E.E.E.E.E.E.E.E.E.E.E.E.E.",
"E.Q.E.!.E.E.E.E.E.E.E.E.E.E.E.E.E.E.E.E.E.E.E.E.!.E.E.E.E.E.E.E.E.E.E.Q.E.E.E.Q.E.E.E.E.E.E.E.E.E.E.E.E.E.E.E.E.E.E.Q.E.E.E.E.E.E.E.E.E.E.E.E.E.E.E.E.E.E.E.E.E.E.E.E.E.E.",
"E.E.E.E.E.E.E.E.E.E.E.E.E.E.E.E.E.E.E.E.E.E.E.E.E.E.E.E.E.!.E.E.E.E.E.E.E.E.E.E.E.E.E.E.E.E.E.E.E.E.E.!.E.E.E.E.E.E.E.E.E.E.E.E.E.E.E.E.E.E.E.Q.E.E.E.E.E.E.E.E.!.E.E.E.Q."
};
