/* XPM */
static char * exit_xpm[] = {
"81 81 250 2",
"  	c #585858",
". 	c #646364",
"+ 	c #747373",
"@ 	c #838383",
"# 	c #7C7B7B",
"$ 	c #8A8986",
"% 	c #716E72",
"& 	c #7A767A",
"* 	c #817E7C",
"= 	c #8C8C8B",
"- 	c #92918E",
"; 	c #797675",
"> 	c #949493",
", 	c #A4A4A3",
"' 	c #918E8C",
") 	c #9A9996",
"! 	c #696565",
"~ 	c #AAA9A5",
"{ 	c #ACACAB",
"] 	c #B2B1AD",
"^ 	c #B7B8B7",
"/ 	c #C4C1BD",
"( 	c #BCBCBB",
"_ 	c #D3D6D8",
": 	c #B3B4B3",
"< 	c #979897",
"[ 	c #898684",
"} 	c #9C9C9B",
"| 	c #AFAFAE",
"1 	c #A3A6A9",
"2 	c #8B9599",
"3 	c #85868A",
"4 	c #82817E",
"5 	c #7A7A76",
"6 	c #645A5B",
"7 	c #6C6B6B",
"8 	c #5C5B5C",
"9 	c #4C4C4C",
"0 	c #716E6E",
"a 	c #8A8789",
"b 	c #51423E",
"c 	c #A1A19E",
"d 	c #A29D9D",
"e 	c #6A6966",
"f 	c #5A5956",
"g 	c #757A7B",
"h 	c #959CA1",
"i 	c #9B9EA1",
"j 	c #999594",
"k 	c #6A666B",
"l 	c #444444",
"m 	c #C5C6C6",
"n 	c #94969A",
"o 	c #545354",
"p 	c #868985",
"q 	c #8C8D92",
"r 	c #55555A",
"s 	c #52524E",
"t 	c #383839",
"u 	c #72716E",
"v 	c #B1ACAB",
"w 	c #474749",
"x 	c #8C908D",
"y 	c #767976",
"z 	c #CDCED1",
"A 	c #BCC0BE",
"B 	c #625E62",
"C 	c #827F81",
"D 	c #5E6165",
"E 	c #7D8284",
"F 	c #61615E",
"G 	c #9DA19D",
"H 	c #A6A9A8",
"I 	c #6D6D72",
"J 	c #7D817E",
"K 	c #8D9294",
"L 	c #A8ADB2",
"M 	c #B7C3C7",
"N 	c #5F625D",
"O 	c #6D7273",
"P 	c #858A8C",
"Q 	c #485258",
"R 	c #2A323A",
"S 	c #27252A",
"T 	c #757579",
"U 	c #64646A",
"V 	c #544B57",
"W 	c #7D7D81",
"X 	c #777B84",
"Y 	c #06020B",
"Z 	c #3A434C",
"` 	c #ACB3B4",
" .	c #F3FEFE",
"..	c #959A9C",
"+.	c #9CA2A3",
"@.	c #646C75",
"#.	c #545A65",
"$.	c #171828",
"%.	c #18262A",
"&.	c #99A6A9",
"*.	c #868A92",
"=.	c #CAD9E4",
"-.	c #495865",
";.	c #95ADB7",
">.	c #373948",
",.	c #F5F5F5",
"'.	c #02152C",
").	c #070C24",
"!.	c #2C4753",
"~.	c #AFBCC6",
"{.	c #E8EDEA",
"].	c #182535",
"^.	c #E7F7FB",
"/.	c #010B1C",
"(.	c #020413",
"_.	c #0A1B37",
":.	c #365365",
"<.	c #89837D",
"[.	c #6E706E",
"}.	c #484B56",
"|.	c #ECFEFF",
"1.	c #5A636B",
"2.	c #031424",
"3.	c #0D262E",
"4.	c #0B1528",
"5.	c #3A4655",
"6.	c #D0B0AD",
"7.	c #07161C",
"8.	c #D4EAEF",
"9.	c #021B2C",
"0.	c #022134",
"a.	c #0C1B2C",
"b.	c #65696C",
"c.	c #7D868A",
"d.	c #738893",
"e.	c #0B1C33",
"f.	c #021D3A",
"g.	c #062339",
"h.	c #B7CBD4",
"i.	c #5D5D61",
"j.	c #C7BEC3",
"k.	c #69737A",
"l.	c #2B3747",
"m.	c #021C33",
"n.	c #282837",
"o.	c #564749",
"p.	c #EDD3CC",
"q.	c #FFF2DD",
"r.	c #877476",
"s.	c #899CA7",
"t.	c #9C8678",
"u.	c #C9A798",
"v.	c #FEF4E9",
"w.	c #546874",
"x.	c #031631",
"y.	c #BB9279",
"z.	c #B5876D",
"A.	c #DAB5AA",
"B.	c #656965",
"C.	c #6B7886",
"D.	c #968684",
"E.	c #E2A99A",
"F.	c #C8957B",
"G.	c #BDA093",
"H.	c #FFE3CA",
"I.	c #735968",
"J.	c #B38B84",
"K.	c #E7BAA7",
"L.	c #D2A68E",
"M.	c #FDE7DA",
"N.	c #9CC3CA",
"O.	c #342828",
"P.	c #4C2C30",
"Q.	c #BC9686",
"R.	c #D8A897",
"S.	c #CC9B84",
"T.	c #D9C3B5",
"U.	c #FEEBE5",
"V.	c #16121C",
"W.	c #9BB7C5",
"X.	c #7B98A8",
"Y.	c #362A38",
"Z.	c #906C6D",
"`.	c #E8C7B6",
" +	c #0E354B",
".+	c #577482",
"++	c #472C35",
"@+	c #9A7979",
"#+	c #D29B87",
"$+	c #D2987C",
"%+	c #C68E79",
"&+	c #B88C77",
"*+	c #5D8493",
"=+	c #55353A",
"-+	c #C89B94",
";+	c #184359",
">+	c #7B736F",
",+	c #290F16",
"'+	c #A5897C",
")+	c #776B78",
"!+	c #F9F9F6",
"~+	c #473945",
"{+	c #6C4B4D",
"]+	c #FAFAFB",
"^+	c #C69886",
"/+	c #FAF6F4",
"(+	c #7A666A",
"_+	c #285268",
":+	c #847484",
"<+	c #EECBB3",
"[+	c #90675A",
"}+	c #49504C",
"|+	c #676976",
"1+	c #080718",
"2+	c #E5B6B0",
"3+	c #150918",
"4+	c #FDD6C9",
"5+	c #C0886F",
"6+	c #A77B73",
"7+	c #62403F",
"8+	c #170209",
"9+	c #261827",
"0+	c #938D93",
"a+	c #876667",
"b+	c #4C272D",
"c+	c #49353B",
"d+	c #463C53",
"e+	c #352C45",
"f+	c #AC8E8C",
"g+	c #351A2A",
"h+	c #261630",
"i+	c #4F4D66",
"j+	c #CC9692",
"k+	c #160C25",
"l+	c #907989",
"m+	c #373A52",
"n+	c #AC9597",
"o+	c #CE9CA5",
"p+	c #AC9FA2",
"q+	c #775659",
"r+	c #191C35",
"s+	c #563A46",
"t+	c #A47D85",
"u+	c #845B65",
"v+	c #4C3048",
"w+	c #675C68",
"x+	c #875755",
"y+	c #9B5E62",
"z+	c #9E938F",
"A+	c #040C30",
"  . + @ # . . + + + $ % + & * $ * * * = - $ $ @ ; > , ' ) ! $ ~ { ] ^ ~ ^ / ( _ - + , : > < ^ ~ ' $ : ] ] [ [ # < } ) < < | ^ _ 1 2 3 @ # 4 5 6 7 # = > . . @ & = ",
"!   8 ! 7 9 8 = * * $ * 0 a > # b @ > $ @ * } } @ + 4 = - ) + > - = c d ) c , c < + - c - - ] c 5 e ~ , ) ) - } - # f @ ~ , > g h i @ + = j e e 0 a < + + > # 7 k ",
"& @ 0 ; $ 4 = ) = - } a # $ < @ l + > ~ } } } ] m c > { m m - $ , ~ } > } { c } ) = ) ) : m ] ] ~ # { ( ( ( ] ] ~ { @ : : { { g n 1 < { ( d ) ~ d c } 3 { { } > > ",
"k o 9 . 7 o o . ! * $ # ! . 8 o   8   + @ & 4 - $ 5 + 4 4 # . 4 5 4 $ + * @ & + 4 4 = - [ [ = c 4 e $ @ - 4 p $ > @ 8 @ # } q r g @ @ , $ . > > < = + o + 4 = = & ",
". 8 7 l l s f 7 9 f # = 8 7 # 7 = <   t @ > c 7 7 } = c [ u c ~ ; + c ' j ' @ # - ] ^ [ 5 > } v c ~ ) w e @ $ = = ! . > > = 8 + $ > x $ @ * . 7 # & & 7 + # 8 5 @ ",
"# a = 0 o @ @ $ # . + # > < j ) = < , y < ~ , > ~ { ~ ~ : ^ ^ v ] ~ ~ c { ] c , v : ] 4 j / ] ( m ( ] = , ^ ( ( ^ { / z ( { < ^ m m A m / { c , | : ^ ^ { > [ { , ",
"# + # 7 f $ @ * # # 7 B ; k k = < > @ & p $ < $ @ = $ d c ~ ~ c ] > 4 $ 8 . & $ ~ > } $ 5 * $ < < , - $ ] ~ } < < & # $ # = 7 @ = > ) < = , # ; C # d = $ x 7 4 = ",
"7 # & e k @ 5 # @ $ # ; # ! k q > { > D E } > F 5 < } G G , c c ] ~ ) H w D { { : { : ] j [ } ~ m ( @ 9 @ G . @ ) @ k 7 , ) } - < ) > > ) H # k = = < = $ - 7 @ ) ",
"7 ! 7 + ; 5 4 ; # @ # ; @ # & , = } } # x @ # . @ < ) } , , ~ { c ] { { @ $ ~ H | : { G } c - H @ I + 7 @ 5 + , ^ ~ = < z { : ( ~ { { , ~ { < i ^ ~ , c , > ) @ @ ",
"+ k ! 8 . + & & # @ + + = @ + < , # J 7 .   k ! @ } = , : { { } , } ) H @ E } } { | ^ ( | > , , = n _ m : ^ m > ) = ! @ : | ] ~ , { ) , ) } @ > } ) < } > c # 7 + ",
". + + F f + + @ & @ + . & # 7 > } ) ) ! k + k 9 k ~ c > c | , c { - ) , K E n n L ^ E l K ^ , , L H M ^ G ^ ^ = > ( # @ ( ~ < { / c } , ~ } # $ { ~ c } { | I # $ ",
". B ! . s f 8 . u N l o k 9 t $ - > > 9 8 $ + t 8 @ { : , , } , } | | H 3 O 2 L P Q R S T H L i n K P H L ( { = $ ) + . $ & # + 5 e # @ # U w 3 , } ) ~ @ r V I + ",
"+ ! % + ! 9 t + y # 8 9 + # 7   . * 7 . k   & 8 ! & e > , < < = - G K W X h L Q Y Z `  .1 R H H ..O +.| ^ | +.O x $ $ 7 8 + > = + @ + > < q o 8 5 @ @ + t w I @ @ ",
"+ + ; + # + 8 + 7 # @ & @ = < k ! $ $ , ~ j , { t w o ! + & # e N 9 O D @.#.$.%.2  . . .&.S 1 2 L 8 P { L > +.~ : : ~ : { ~ { } { m i } { { @ + > = ) I I *.T @ = ",
"e ! ! 7 . e . k + + e 7 & + @ ; 7 - @ $ $ = $ ~   f +.> > > > < K +.P O Y $.g  . .=.Q -.;.>.1 _ ,.i O < +.H ^ : , < } } < > } } ~ { @ = = = # 5 $ p 4 # # 3 *.$ = ",
"+ 0 + 5 7 e F 7 ; k . 6 k # J & + # $ @ @ > > d $ @ } h +...1 1 K Q %.%.E ,. .=.-.'.).!.~.>.q z {.H + + y 5 4 ) G x x > p @ j ) c ' > > @ = + e # 4 @ ; T a = = = ",
"u e ; 4 @ + 8 7 + ; 0 ! k & # % + # J 7 @ > d d = E K ..n L h #.$.].&.^. ._ *./.(._.'.:.~.Q q < ^ ( ^ < } > = { ( : ~ ) p <.' - @ ' ^ { } } [ + $ # @ W % W @ > > ",
"e e k + ) + o e + 4 + B 7 * @ % 7 3 @ [.+ } d { ; r X 2 P }.(.].~.^. .|.1./.(.2.3.4./.-.~.5.K *.( ~.( ^ { | { ^ ~ ] ^ ] ^ v v ( < 6.m : : c 5 . = @ @ 3 # *.@ = c ",
"  w . o s   t   o l l l 9 s o   o   ! o 9 ! 7 + 9 o ..>.7.>.2  . .8.-.2.2.2.9.0.9.a./.-.M }.q *.O T @ a - q ; W - - @ [ c d , : } ; > $ e + f t . b.T T R t b.& . ",
"= ! ! k o e + * u 8 e + 0 7 + 7 7 # - G - 4 @ @ = ^ c.1.2  . .&.d.3.(.2.e.f.g.f.g.e.(.:.h.$.i.P &.@ > ) , ) - | ( j.~ # C j.~.^ ^ $ U ! > @ > H < K K P r i.3 $ + ",
"@ $ @ $ $ $ $ $ - ' @ = = j d # ! > - c , , ~ : | ..7.k. .z l.(.(.2.0.m.f.f.m.m.f.m.2.-.` 7 6.  9 O M A ( M : j.z z z } k ^ : : ~ : < @ { H { H : ^ +...*...i > ~ ",
"# k + & + + 4 4 $ ' + ! <.[ ' 4 . 4 $ J > ) } , +.( %.Q  .4.n.#.(.3.g.f.0.m.f.g.m.f.).!.~.o.p.q.r.l >.2 m ` H m c # - = @ < N < = } $ + = , < ) , = 3 } 7 . q > $ ",
"@ & 7 k + . u # # = * s * ; ' > & 7 + < = > ) } i &.%.k.|.R @.s.l.9.m.f.f.m.m.f.f.f.).5.m t t.u.q.v.^ 7 }.h _ M H = : M m +.> > | { $ & : < < = = $ < } y @ { c - ",
"$ # + @ + e u & # ' $ 9 u 4 $ @ $ } + p } @ > < n &.%.w.|.Q (.l.~.2.x.0.m.f.f.m.f._.).].L o.u.y.z.A.q.p.c r 1.L ~.&.` H G | { ~ } { = - z } > = @ ) , } = c < $ > ",
"y   o k 8 8 + 0 . o F 6 f 5 [ ; 4 } } B.F $ . i.3 2 %.-.|.l.C.C.(._.'.f.0.m.9.0.'./.'.s.*.S D.E.F.z.z.G.H.p.8 Z #.@.K P J K O 7 7 4 5 f & @ 5 4 > @ * * s f @ + # ",
"# o 9 7 + # # * ' f o [ 7 0 * = ' ) H J 5 < 7 b.1 L %.1.8.l.d.1.(.9.0.0.x.f.'./.g.@.d.~.Q R I.J.K.L.F.F.y.u.M./ 8 R @.5.c.K G > 4 x e # & < - } ) ' <.$ - - = > > ",
"= + k # @ 4 4 @ = 0 u ' * + * $ > > < > - < > > 1 2 ].1.=.5.(.(.a.9.m.x.m.)./.:.N.~.#.].=. .L O.P.Q.R.S.F.z.y.T.U.j.U V.E z ` ` { { p K ~ , , c , d c ~ v v c } , ",
"@ + o F u + 4 * = 5 + @ * 0 # $ > ) } = # < E . P P %.-.h.5./.2.'.9.'.'.).:.W.X.-.5.s.8.;.-.d.~.+ Y.Z.A.R.S.F.z.Q.`.p.{ l w 2 ` | +.K +., K +., { = ) , - > j = ) ",
"4 ; f . + e ! + @ f w ; 0 . 7 @ > < K = # = + U n &.%.Q h.s.(.9.9./.'. +X.;.C.w.;.^.=..+0.'.9..+|.8.t ++@+R.#+$+%+&+Q.M.p.6 t D K ( E }.E *.E > $ p # $ - @ $ ) ) ",
"+ + u # # # @ $ 7 o 8 # & @ = # a > K = @ $ > } ..&.7.].h.L (./.'.:.X.*+w.5.&.^.h.:.'.g. + + + + +*+8.c.O.=+-+K.%+F.S.z.6.U.z E Z 1.*.^ X O i W y i > < = u > < = ",
"+ 7 7 ; 5 + ! # u ! ! + + & @ & 7 E > b.  T T I 9 t n w.;.s./.5.X.X.:.X.s.^.~.!.2.9. +;+g. + +0.0.:.|. .{.>+,+Z.K.F.F.$+&+'+T.U.{.# s c.h +.i E y K < > T + 5 5 # ",
"7 8 f ; 4 & F 8 + ; k F # # @ y D J K b.U c.>.n.)+m _ >.s.h.C.w.-.d.=. .M d.g.0. + + +;+ +g.g.:.W.^. .{.!+ .{.~+{+L.%+$+F.Q.&+&+`.M./ T I ; @ = + + 3 3 k.u u u & ",
"+   9 e + > . o ; # 7 7 u + 5 # O E E K D Z *.~ v.p.r.n.X.d.-.:.;.8.s.-.2.f. + + + + +g.g.;+;.|. .{.{.!+]+^.z S ,+K.$+F.F.^+y.&+z.A.]+]+T Y d ) @ $ # E a $ ; 5 & ",
". w t w l 8 w l   7   9 f . ! . k @ 8 t s z /+M.Q.Q.(+V.R C.=.8.;.l./.f. +_+;+ + + + +;+h.|.|.|. .{. . .~.>.(.P.Q.$+F.$+F.&+y.K.v.v.6.:+V.V.= T & * 5 k 9 8 5 ; ! ",
"k f f . . . k B 9 8 # 6 6 ! C W ~+O.6 p.q.<+L.&+y.[+,+Y l. . .=.!./.0.;+ + + +f.f. +X.=.=.:.3.}+{. .z |+1+Y (+u.#+$+%+%+&+K.H.M.2+@+o.3+t @ @ 3 $ ' j W 7 ; @ @ @ ",
"# ; $ = = = ) } > + $ @ # + W Z @.m U.4+S.z.5+F.#+6+7+Y $.S 1.8.|.s.!.g.'. + +w.s.8. .X (.a.d.h.h.k.(.8+7+&+E.#+%+F.&+2+M.4+A.Z.=+9+Y (.}.z 0+< ~ , } 1 i < } } { ",
"F k k 6 . 7 5 @ + o ! + k T I d.^.p.u.6+F.$+$+$+F.R.A.r.9+Y Y t &.|.|.X. + +s.|.|. .{.{.&.|.|.+.V.3+o.'+A.R.%+%+%+R.4+U.6.a+o.,+8+Y $.].}.3 6 + 3 $ = g t + = # & ",
"F u 8 9 7 + + # # + & i 9 U ]+]+T.6+&+y.F.F.%+F.F.F.L.u.J.D.b+Y Y !.N.^.8.^. .!+,.!+ .|.8.d.n.3+{+J.K.L.F.&+y.A.v.U.A.(+c+S Y (.$.V )+d+e+i U % , > $ + t & j ' $ ",
"u 7 * u # 4 @ $ 4 > + < >.1+j 6.q.4+-+y.y.%+S.F.S.F.F.#+R.R.Q.a+++Y (.!.;.8. .]+ . .z @.%.Y S f+A.#+F.&+y.`.M.U.6.(+~+g+3+Y h+i+:+)+9+(.}.` > 3 { d ' <.- < } , , ",
"7 u u k + # + ! & $ 8 b.o $.V.c+f+p./+H.u.&+%+F.$+F.S.S.#+S.R.E.j+a+Y.(.a.!.;.|.8.C.n.V.o.'+^+L.F.y.Q.`.H.4+p.a+,+k+k+3+,+I.l+X m+3+1+a.5.i $ $ < } $ @ @ E > < $ ",
"e + + 7 8 0 4 ; u y 9 7 = }.Y 9+,+c+n+v./+4+#+%+y.S.S.$+S.#+#+#+E.2+o+D.Y.(.3.-.l.Y ~+G.R.R.#+5+F.2+v./+p+q+g+,+9+r+r+V I.a+c+3+1+Y |+|+l.i + 7 > @ $ + B.) } = ' ",
"e 7 # # 7 + 4 @ $ # ! I *.U k+k+k+h+Y.V n+4+v.M.u.&+S.F.$+F.S.S.%+#+-+R.u.'+b+8+b+f+A.^+^+&+&+<+U.M.6.q+s+8+,+{+D.% e+X >.S n.k+1+,+@+X w { C [ < = > p + ' 0+= > ",
"7 k + I & # # 4 # @ 7 I *.}.$.m+r+1+k+3+9+{+f+U./+p.^+z.$+F.^+^+#+S.F.S.L.E.^+^+R.R.^+^+&+<+M.p.o+q+,+3+8+=+t+2+G.c+V.S }.C.m+(.k+a+-+% >.0+; # , - x > # [ 0+< < ",
"F . 8 . . . w 8 F . o U *.Z 4.5.i+d+h+).).$.Y.s+n+/+M.<+F.y.&+^+^+Q.^+S.S.#+L.L.S.y.^+`.M.4+6.o.g+g+,+8+8+@+2+(+9+$.8 D U @.l.1+Y.@+6.k R K k . = $ = > 7 8 J + 5 ",
"    . I k 8 c+o u u # W q #.(.).r+>.d+5.a.1+k+Y.g+{+n+q.q.<+Q.y.^+S.^+#+S.F.S.z.&+<+U.U.u.a+g+8+g+u+Z.~+I.a+P.3+>.X b.i.U @.n.h+~+Z.u.! n.i y e 5 @ = = U }+B.8 7 ",
"!   . k T % 0 u u 5 & T *.Q ).e+).4.a.m+}.~+9+1+k+h+v+q+6.U.U.K.y.&+S.S.^+Q.y.K.M.M.A.a+o.O.8+=+u.-+@+)+t 1+Y.k W #.U k i.@.l.n.c+[+u.! Y.< ; 6 5 + O I . 7 e + # ",
"7 o l B 7 ! 6 F ! u ; T 3 Q r+i+$./.4.4.n.d+V m+4.).h+9+,+{+6.M.q.K.F.&+^+A.M.M.u.u+P.g+8+Y I.2+-+u+,+S }.1.C.k B U U B w+k.n.n.=+[+R.q+S = & * * # T y T % * 4 # ",
"@ + r . 7 7 # ; % ; + + P Q $.I.q+9+1+r+i+>.e+n.m+e+h+k+k+k+g+u+p.v.4+`.q.M.p.@+++V.3+Y 9+3+:+n Y.Y w |+X k.. . B U U i.U @.n.n.=+[+u.I.Y.0+# * @ 3 3 > @ # = @ + ",
"& I   . 7 7 ; & ; ; + + P Z 9+{+t+6 Y 4.w.|+Q n.$.~+w+m+4.).k+g+++@+p.U.p.D.o.g+3+Y h+V w+$.n.r+).r+}.-.1.|+7 U . U U U 1.@.n.9+=+[+u.I.Y.= # @ @ W W W O @ @ + + ",
"k . 8 7 5 + 0 # T B e 7 K }.k+7+6+u+9+4.-.k.U |+>.h+n.e+m+l.a.1+k+9+~+I.o.~+1+Y 9+I.r.V n.4.2.4.a.a.a.%.Z 1.k.|+k w+B 1.1.@.R S c+[+u.6 S $ @ # + @ q K @ U + # + ",
"+ + 8 8 u # 0 C = k # $ i #.V.{+Z.u+~+$.-.|+k U k.k.}.r+r+l.m+l.2.1+k+9+9+1+k+~+:+I.9+3+4.9.9.9.e.9.2.4.].l.5.#.|+|+U 1.U @.R S c+[+u.f t { > { @ E K +.L % # * # ",
". 8 o 9 o F   r % ! + 5 g Z V.=+Z.u+v+1+-.k.B w+U i.|+|+m+r+].>.d+n.3+1+1+d+w+i+e+).).e.9.'.f.m.m.9.9.m.'.'.].l.i+U |+|+U @.n.9+P.[+u.6 R P B.u   r D b.# 7 ! ! ! ",
"! k + . s . 0 k . 7 . o b.}.S =+@+u+c+$.-.I k k w+1.1.U )+@.}.m+e+i+>.].}.i+e+k+).4.e.'.0.g.f.f.0.0.m.0.m.'.'.e.l.m+#.@.@.g R 9+P.x+j+6 S P x ! k @ g g U i..   + ",
"+ + + u + # ; C % = 4 [.P #.V.=+@+u+++$.-.7 . U B . U w+i.b.X #.e.'.l.r+m+).'.e.e.a.4.2.m.f.f.x.m.g.m.m.m.f.x.e.e.e.l.Q 1.C.>.9+=+y+j+6 n.} , j 0+) K +.3 + a $ K ",
"7 . . . . + * T T + e u E w 9+=+@+u+~+$.-.I ! B U . B U I D Z l.].a.).).k+l.].e.x.9.9.9.9.f._.g.m.f.f.f.f.f.'.x.x.'.a.].l.w.l.h+++y+o+{+S < = ' 0+@ K $ T + T # # ",
"8 ! . 8 N 5 * & ; 7 # # E #.V.=+Z.u+c+$.#.k k . U 7 U #.Q R $.2.4.d+v+3+s+0+e+).m.9.9.9.9.f.f.f.f.m.f.f.m.m.m.m.m.m.m.'._.l.r+e+s+u+o+(+%.= 3 W W > > > $ C $ $ > ",
"! U + 5 B.+ @ C & + 5 # @ w 9+=+6+u+++$.#.k w+U U #.}.l.n.a.2.4.4.v+s+{+t+n+Y.).f.f.m.9.9.0.f.f.m.m.m.m.m.9.m.0.9.9.m.'.m._.'.n.~+l+n+Y.%.P # W # < , G @ > > = < ",
"B 8 7 k s f ! k ; o s e # >.V.o.[+q+s+V.-.)+k U #.Z ].e.x.9.9.9.2.Y.s+[+-+f+O.).f.f.f.m.9.0.f.m.f.f.x.m.9.9.9.9.9.m.m.m.f.x.'.2.1+~+,+Y }+E O T l o F u u 0 4 ; # ",
"k 7 + ! . 7 o # a ; 7 f + V V.=+Z.u+c+k+#.)+V Z l.3.9.x.f.f.m.m.2.Y.=+x+j+'+O.).f.f.f.m.9.0.m.m.m.m.x.m.m.9.9.9.9.9.m.m.'.'.'.4./.Y Y.g g g g *.n s 6 $ $ @ C @ ! ",
"& + 7 u 4 @ . @ a ) j * = r V.o.a+q+~+$.5.}.].4.4.9.m.f.f.f.f.0.4.Y.=+x+j+'+O.7.m.f.m.9.9.m.m.m.m.x.9.x.m.m.9.'.m.9.9.4.2.a.a.>.P @ , > c.= G &.~.5 j { = j @ $ . ",
"% ! ! 7 . o 8 % % ; # u # }.Y 9+(+(+Y.'.e.4.4.4.9.9.m.f.f.f.0.m.'.e+s+x+-+'+O.7.f.f.m.9.9.f.m.m.9.m.m.x.m.x.9.m.m.'.3.2.(.R #.2 L } x + 4 p $ c.W * >+* # + b.  w ",
"7 7 + + 8 l 8 & k ! u 8 + q }.Y 9+$.).x.x.4.4.m.m.9.9.m.f.f.f.m.'.e+s+q+Q.'+O.7.f.f.f.m.m.f.m.m.9.9.m.m.m.x.f.'.9.'.].5.k.q q j , ) > D.>+* ' *.3 >+6 $ T U @ + 9 ",
"+ T k u @ ; # C & ! e y # 3 W % V n.2.e.x.x.9.m.m.9.9.m.f.f.m.f.e.e+s+q+Q.'+O.2.f.f.f.0.0.g.f.m.9.m.m.m.'.x._. +].m+C.+.{ j C @ d ~ ' D.z+<.j = > r.* = T E = = @ ",
"T + 7 + 8 7 @ # + 7 k . + 7 $ @ 7 g Q ].a.4.x.'.f.x.m.f.0.0.m.m.x.Y.s+q+Q.'+O.2.f.f.f.9.0.f.f.f.m.f.m.2.e.].4.>.|+q } @ @ [ 0 7 ) @ $ 5 5 @ 4 @ @ 7 ! W T 7 W & k ",
"+ % + + ! 7 + + # ! 7 k ! + # # 8 $ $ Z >.].2.e.f.'.f.m.'.9.0.g.'.n.=+{+Q.f+O.).f.m.m.9.0.f.f.f.m.'.e.4.4.5.}.b.m ~ @ ' > j - & } @ 4 5 & @ @ @ @ ! ! $ @ # W + b.",
"8 9 8 8 i.8 8 . [.8 . ! N 7 k 7 7 = q b.X C.#.].4.4.9.x.m.f.m.m.e.Y.=+x+^+'+O.4.f.f.m.9.9.'.x.'.e.].a.#.1.2 < , ^ ~ ] ~ ) , > y > #   # @ = > = ) & + = = ) $ = @ ",
"! 9 9 9 + @ @ + 9 . + + . o = + @ < q I b.1 h @.].4.a.a.9.x.g.f.x.Y.=+{+Q.f+O.).f.f.9.9.9.'.e.].a.l.@.h h K y = , } ) ) } ..< H , < . l @ # + & p ! . @ & @ $ & # ",
"+ 7 k + + 7 + k + # @ @ + 5 > < q q } 3 t o D r #.k.l.2.a.a.'._.4.Y.=+x+^+@+Y.4._.m.9.9.3.4.].}.k.X W I T W 9 8 5 @ @ # 3 } ^ { H < ,   8 & @ # . o B.+ ! + 0 + + ",
"! . + @ ! o I k k & & 4 u e @ @ = = ' @ t t f . E 2 1.Z l.a.a.'.4.n.=+{+J.D.O.).e._.9.7.%.Z U < ^ { + I @ j ! 9 ; + # E @ > < K x > = & $ @ # & k @ @ k 8 % + + # ",
"k 7 + # k 8 + @ + k + @ ! ! @ 3 3 3 @ & + @ $ - $ T g *.c.Q r+_.4.Y.s+{+J.f+Y.).A+x.l.Z b.P G G $ j } $ a & ; 3 j = > > x x p > > < = s I 7 7 ! + + 7 + 7 ! u T @ ",
"! . . + + ! 7 7 # + & & . . + T = = $ + F ; ; # @ I O T *.2 1.e./.h+O.a+f+b 3+1+r+i+X K ..< = = } > @ # @ C # @ @ 3 = E @ $ K = = q @ o . k + 7 ! 7 + 7 ! u + # # ",
".   8 . ! ! 7 + + & + 7 7 8 7 + P W # I . & & # # % + g g K *.@.Z $.3+~+V Y Y }.X 3 E p @ 3 3 = 3 q @ % 4 $ + 5 $ @ @ @ = q P E # q W 9 U T & . U + + k k % + + + ",
"8 9 . + . o 8 + # + O & 7 o + + T @ @ ! 7 W % & T U I W # O c.P 2 }.S (.(.~+X n { . o ! u I T W W W I # $ # e + - @ = J # W 3 W y W + 9 8 r o l o   . . . ! . . k ",
"o 9 t t 9 w 9 8 o   7 i.w w k ! 7 b.. 9 9 U r k I 8 U O + + y E E @.1.U 1.@.W q & B * e l ! T T P *.o U b.# i.w + I T + + 7 k U + + 7 o + + + # . 9 7 @ @ + . 9 l ",
"k &   l & + + + + i.k % 7 r 9 o 8 i.b.U I W r i.I I + T [.# [.O b.O P 2 K g O a n ~ d j ; @ p K *.E 3 3 g *.P I I U I @ = = o 9 + $ = 3 } ) < , q & @ & @ < , @ ! ",
"k k & I @ T @ $ + . 7 W = I >.! T # # @ *.W O I I 7 ! 7 + + + & T # *.g g P g 3 , } C = $ @ J @ @ y # E q h n 3 W W W @ @ x u ! + & & + I O + U I ! 8 7 < < < = % ",
"k o 9 t i.8   k 9 o i.9 i.. w l l 8 U D I I w t w 9   r ! 6 s s k U b.b.I U . . . % ; +   k e N f k 8 I I #.U b.I i.i.r . e f . . . D k 8 8 o 8 I 7 k W @ o o 8   ",
"7 k 8 t o . 7 T T + . r . . k ! B s 8 7 y g   9 b.7 # . 7 $ * ; = o o 3 @ T + s o 7 7 W & @ + 7 7 @ > > = 8 . 3 W E # o + 3 + # & + + & 7 + . W 3 $ = > T o ! 7 & ",
"k 8 + + . + & + U I I . 7 7 T ; ; % k y @ T B.p = @ J @ @ @ - a < 0 & 3 W W @ > + # @ @ } = # = > ) < $ = $ @ 3 q 3 W W = @ q W y + & T 7 W # + # @ @ W W # T # + ",
"! 8   t l r . . B . U w 8 8 8 8 8 i..   o r r i.y T & + I + = = W 8 . 7 + + W g i.7 O # 3 7 U I i.W # b.+ 8 + 3 @ U I I g # # # . 7 + I i.+ w i.T I T k # . r 7 k ",
"8     9 9 r . U . 8 8 o . k ; + o . +   9 o 8 8 I I + T + . r o 8 D U I U b.U I D I b.U r 8 I W + U 8 + + 7 7 D I T i.w I W . . + D U # E @ r w i.7 . . 8 i.. k . "};
