/* XPM */
static char * floor_xpm[] = {
"81 81 137 2",
"  	c #383637",
". 	c #4C4B4C",
"+ 	c #444344",
"@ 	c #494646",
"# 	c #514E4E",
"$ 	c #514F50",
"% 	c #585656",
"& 	c #3C3B3C",
"* 	c #5C5B5B",
"= 	c #646363",
"- 	c #686666",
"; 	c #747374",
"> 	c #6C6B6B",
", 	c #615E5E",
"' 	c #7B7B7B",
") 	c #787676",
"! 	c #545354",
"~ 	c #595758",
"{ 	c #706E6E",
"] 	c #858689",
"^ 	c #797779",
"/ 	c #817F80",
"( 	c #949293",
"_ 	c #8B8B8C",
": 	c #999999",
"< 	c #838383",
"[ 	c #969595",
"} 	c #716F70",
"| 	c #72716E",
"1 	c #8A8986",
"2 	c #82817F",
"3 	c #7A7977",
"4 	c #807E7E",
"5 	c #343334",
"6 	c #312E2F",
"7 	c #888686",
"8 	c #918E8D",
"9 	c #939291",
"0 	c #989695",
"a 	c #979391",
"b 	c #615F60",
"c 	c #403E3E",
"d 	c #393738",
"e 	c #AFAFAF",
"f 	c #ABAAAA",
"g 	c #9E9D9D",
"h 	c #898788",
"i 	c #999695",
"j 	c #95918E",
"k 	c #696768",
"l 	c #4A4847",
"m 	c #A19F9D",
"n 	c #918F90",
"o 	c #5A5857",
"p 	c #999798",
"q 	c #A3A4A4",
"r 	c #A2A19F",
"s 	c #969593",
"t 	c #B1B1AF",
"u 	c #ABACAB",
"v 	c #9E9B9C",
"w 	c #413F40",
"x 	c #696866",
"y 	c #AAA9A7",
"z 	c #B3B4B4",
"A 	c #9B9B9B",
"B 	c #A9A7A4",
"C 	c #91918E",
"D 	c #494748",
"E 	c #999996",
"F 	c #B8B7B5",
"G 	c #52514F",
"H 	c #666669",
"I 	c #A19FA1",
"J 	c #8D8E91",
"K 	c #959699",
"L 	c #464649",
"M 	c #9B9798",
"N 	c #B9B7B8",
"O 	c #363638",
"P 	c #5F6160",
"Q 	c #62615F",
"R 	c #9E9A9A",
"S 	c #4F5150",
"T 	c #8E908F",
"U 	c #565856",
"V 	c #C0C0BE",
"W 	c #6F7172",
"X 	c #BABCBC",
"Y 	c #9EA1A2",
"Z 	c #868887",
"` 	c #9DA09F",
" .	c #6E706F",
"..	c #ADB0AF",
"+.	c #B5B8B7",
"@.	c #A6A8A7",
"#.	c #C5C6CA",
"$.	c #2C2C2C",
"%.	c #7E807F",
"&.	c #96999A",
"*.	c #767877",
"=.	c #7E8182",
"-.	c #575958",
";.	c #42403F",
">.	c #8E9191",
",.	c #939393",
"'.	c #3B3937",
").	c #32312F",
"!.	c #CCCECD",
"~.	c #B2AFB0",
"{.	c #C4C3C4",
"].	c #AEB1B2",
"^.	c #BDC0BF",
"/.	c #CDD0CF",
"(.	c #D9D9D9",
"_.	c #B7BABB",
":.	c #969897",
"<.	c #86898A",
"[.	c #666867",
"}.	c #B4B6B9",
"|.	c #7D7E81",
"1.	c #A6A9AA",
"2.	c #A4A6A9",
"3.	c #767679",
"4.	c #ADAEB1",
"5.	c #BEC0C3",
"6.	c #6E6E71",
"7.	c #9D9EA1",
"8.	c #BDBFC2",
"9.	c #5F605B",
"0.	c #767979",
"a.	c #67696A",
"b.	c #5E5E61",
"c.	c #565659",
"d.	c #4E4E51",
"e.	c #3F3F41",
"f.	c #292728",
"  . + @ @ . # $ % @ & * = - % * ; > , = ' ) > . ! ~ { ] ^ > ; / ( _ : _ ^ < ] ] : [ } ; ) > ; ; | 1 2 3 4 2 2 3 3 ) 4 * > | < / ) / ' ' , > - - > * @ @ # # + ! # ",
"& + 5 6 @ ! * + + ! . . . ~ . . = $ , > ; < _ * * = > ] 4 7 { { 8 9 ; , ] ^ ' _ : > > 4 _ ^ > ' ; 4 0 2 { 2 a 2 ) 4 1 < 1 ; > ~ > ( ' ; - ; > . $ % ! , b $ c @ @ ",
"& 5   5 d . . & + % = # + % - = = ! > ; { > - > ; ' - ' 9 ( 7 ' ' ( < > e f g ' ' < ; / h < / 7 ' 3 ( 4 1 2 7 i j _ 4 | 4 < 4 { > < / = * { = ! k > ! # $ % l # . ",
"d 5 # $ & & & . * $ , = * % % > > ; > - 1 - % 7 9 9 * > ] ^ 4 0 ) ! * = : : 9 ; < : < ) > ^ < _ > ' m > 4 1 { ) < 4 7 > ^ ' 7 n < ) / ^ > > > = > { k * ! % # o o ",
"5 & $ ~ # $ $ . = ! * = - % % b > ; = * ; - } ) ; < = ) < { < p 9 > ; ' ] ' < [ : : ( ^ < _ < ' < ( 0 4 3 2 { 3 7 ) ' < 1 { _ _ _ ' ; 4 } ' / ^ = = > , % = , * . ",
"5 + c . * - * + ! , = * ! * > ~ % = > > = k 1 ' ) 9 ^ 1 : _ _ 0 ( 4 _ ( 1 3 < q g ] > _ 8 4 9 1 m 7 < r s _ s t u < ' v : < ] < ' > ) ' > [ g [ > * > , * , - % + ",
"@ % + w % * % $ = { > b @ b > = ! > k = } - _ ] ; 4 = ^ 9 ) x ; ' ; * > : 9 _ _ f ' 1 u 3 ( m y v ; _ y z q 8 m A ) n 0 p q ] / < ^ ] ] ^ - ) ^ % ! > - - > ! * ! ",
"c . ! 5 5 ! + . = - - , $ = > ' ~ k / , > ; < _ < ) b ; < > > 1 0 y g ; [ A [ 0 y 1 3 s 1 r B m B _ _ C < ] > 7 _ ) 1 1 7 _ _ 7 4 ' < ] < ' = ! * = > = { ; l % * ",
"  + . $ . $ . + ! % b . @ } ) ' ^ ) 9 < ; ~ - 0 ( p ; > < 0 f y q y 9 4 A t _ ' q ' ' r 0 A q q y 2 3 C ( _ > _ v g f ; = > < } ; / < 1 _ / ; > > = * * - # @ = { ",
"& . ! = @   D ! ! . k * d = { { - { [ } . * , ; n [ ; ; ' ' _ 3 E z ) = ] ^ x > r 2 2 y u q i 1 1 1 r F z e [ 3 > _ q > < 0 < _ ] > ; ) ^ - . = < = . = { = # l @ ",
"c @ $ * + + % - { = = ' % ~ * % * ^ > * ' 1 8 ^ ; 1 > 4 > < v y t z < * 2 < < [ r _ ] 9 C _ 1 E E < 7 E q z B E ( - ^ ^ ; 7 ' 0 < { 7 - > ^ > - ) . # 4 ) { % G l ",
"5 5 w + d . ~ b - k - 4 % % - ~ ' [ = . _ ' ] > % k * ' < ' 1 f e e r 1 A A : < _ s ; | 1 ; _ y B 1 < [ q q e q : ; ) _ ' , ' ] > ^ 7 = ) _ < * ! ~ % , = = % o ! ",
"& d @ & 5 @ # * * % > > . * - * ^ h ' ! > } ; ; ] > > 1 g } 4 8 y f | ' r r 3 < : g C 1 0 ( C E s C _ E q g B g 1 H < I / ; 1 = % 0 ' = ^ h ; ~ ; < - * } 4 - % . ",
"5 + . &   . + . * ! @ ! * - - = * * > - = - ^ _ 9 ' ) ' > ) 7 2 ; 3 > ' < < 3 _ [ : 1 < _ ) > ' | 3 1 9 _ ] _ ] ] J 1 { ' : [ ; ^ g 4 ^ > $ k - ; = * = > = , ! . ",
"& , * . @ ~ + . % * $ > ; - > ^ % = ^ _ ) ) [ 9 ' < 1 < ; > 8 ( > 3 q m s E t q 3 E _ s A ; ( q ' | 1 < ^ [ : K : 9 9 ) ; n p ) ) 4 _ n > # ^ < > { 4 ~ - { # @ + ",
"+ ! L + . ! % ! % . = > > > > 3 ; ^ 1 1 < ; E > % C _ _ y [ s B r < A A E q u i 1 M q y q 1 q z f [ q 1 p N g _ 0 [ e [ ] [ 8 7 8 8 < 2 [ _ < > ; ' < | ) ; G , * ",
"d 5 + O d . ! - = . = = P ; = = , > ) 1 8 | ; Q ~ ; _ s 9 q j R 1 3 1 _ j C 1 4 _ s s r r C ] [ v m q ) _ : ) > ( q ( ] g 9 ' 2 v 8 ' 3 1 < ) % > ; = * > Q ! , * ",
"& d ~ . & . # - > ! * % S - x * * | - = ' ^ < ' _ - ; q C _ r E [ r T 1 [ 0 < 0 u 8 < q f q _ ^ q B : 9 z g ^ [ f B g ] _ q i i 4 < [ ) < 9 ; * < - * = . * % % % ",
"5 @ * = @ D * # ! = = % U ' 2 ; 3 < ' | > ; ; C A < 1 : _ _ 9 y z u e B < ) 1 9 q _ 2 A z V 9 E F m q _ 9 [ ] : f B f 9 ' [ q q ^ ' B 7 < < W % ) = x ' * % * # $ ",
"5 D ! b ! % Q * = 2 2 | % x ; | ' 3 2 _ 3 ; ' s B ] ' C | < q g f q B e 9 > B f X t [ [ Y [ > ' ] 7 B < Z e e ` g : g 9 _ : ( C 8 ' 9 9 ] ^  .= ) ^ > > > = , # . ",
". . % % . * * x = | ' ^ % - > , ; ' ' 2 ) 4 < C E 2 = - = C [ B e e f : : _ 9 ..z f q : : 9 X q e q 0 ] A +.z z f B B _ 0 f q q 9 ^ < 9 9 Z ] > > ) > - > = , l & ",
"+ . # . c @ % o * - ; , + = > o * | ' = ! x - _ q | ~ > ! ^ f e q q q e B < T T 7 A @.` q f z z #.: ' ' ^ : 1 ] ] 1 < - 1 q : : > = ) ' ' > = & * ~ + ~ * ! % @ d ",
"$.@ + # &   + # , % * * * > x | ! ! > = Q ; > > %.^ ^ 1 ) % > _ _ ] < 7 > ) &.> *.q @.f B ' [ z z 1 [ [ ^ ] 1 ^ =.Z ( > ; [ _ = @ ; ' ; ; ^ = > W % -.> * % . G . ",
"& . % * G # + , - , - { > = { ; = Q ; ; ' ' ] > 3 [ E g s !  .' T _ *.*.%.> < *.A ..q q A - > q g e u B B q g z B _ m / < n < W ] 1 [ ] _ 9 < 9 1 > ^ 1 ) > - , ~ ",
";.@ % % o % . # Q , - > Q | ; ' > , ; | * ) 2 ) 3 < < _ : 1 g f g q q q u >.,.g 9 ` f 9 >.[ ] / _ g f p n < n 9 ( n 0 ' { < < ; ] 9 9 : ^ - < ] ^ > - > > > = % ! ",
"'.).+ . ! ! @ @ % # ~ - % * > < ; G > ; * Q ' | ; x x s s > ; < _ 7 1 >.Z ' T ,.< 7 >.' _ !.X B v v ~.e ~.: v v ~.{.f ^ , ^ ' ; ) 1 9 g | = ' ) > * % > > - > o . ",
"    ;.. ;.c '.# ! # ! = b ~ * = = * - o Q Q > G > ; ; 1 2 > 7 < < ; %.A _ ' g q ].] ' @.9 ] ,.g ] _ e g ] ~.{.B 7 < < ) ' _ 9 -.~ _ ) = - = % ! ; ^ ; = . > , # @ ",
". . # ! . . * , * > ; < ] ' ; | ' 9 1 ; ' _ 2 ; ' A q : A t ]._ ) _ B ....g 9 ^.X X f X /._ _ @.g z (.^.; 9 z e 1 > 8 f z e : *.' : < < A ( ' , < C _ - ! > ! % % ",
"G + @ + # * = ! ! = - ' ' ^ ^ 3 ; 4 < _ ; 3 C 2 > < : : B A : _ _ @.+._.+.f Y z @.z u A @.T g X +.z g ` f ,.Z : f < [ : ( : [ < < [ s j ' _ ' * | 3 ^ > ^ ; ! Q - ",
"! . . + # ~ = % ~ > ~ - ^ ^ ; | Q > ' < = x 9 2 ^ < 7 1 9 9 9 [ : _ : z ..q 1 e f B Y : @.g u z ..^.g Y /.z ,.,.u 9 g _ ' 1 : < _ v C 0 ) | { x _ ( ' x ^ } * x > ",
"& . . . @ @ ~ @ 5 = ! ! ; - ! x > | ) = = > ' < r ] ; ; x s : 1 - ; 1 1 g e 1 ) ' _ : T _ 1 &.:.<.>.>.Z  .Z ,.=.*.> Z 1 9 >.1 ) ) 1 < 3 = Q - ! = - - = * ! = = ~ ",
"& # * b . + * # . > } ' ' ) * ) < h 1 > ' ^ ) 9 [ [ 1 ] < : q g ' _ &.0 q @.q [.=.e }.u : Y &.Y Z _ ].K W >.@.@.=.|.Y B f Y : q m : [ 1 ] ] < > * ~ * ; - - ^ - . ",
"  + % b $ # = { = > > ' < ' - , ; ) 4 > ; > > ] B 9 1 < ; [ Y >._ X >.W 9 ] T 0 _ ' ,.1.&.J _ ].2.; 3.] =.2.g q Y *.< ,.9 9 9 0 9 p g [ 7 < 4 > * # b < = > - % . ",
". . # ~ ! D ! % $ * ; ) ; ) } ; ) ; ; % - ) ^ < [ _ < ^ ^ 9 A Y f z e [. .1 Y 4.z q &.].5.Y @._.}.*.6.Y K J 7.A g J ' ,.] ' [ _ ' _ ( ^ - < k ~ < ; % ; . @ k = b ",
"! . + . ! & # ! % * ) ; - = > 4 ) > ^ > > < 1 ) < < > ' ) ; ' 9 [ < e %.*.>.,.&.f @.K @.8.@.A Y ]._ =.Y &.K ,.>.J u q T ) ' [ < ; / ' > b / > } < ' > ) k - ^ } k ",
"+ + + . # . ! % b * * % ~ * # - ) b = ; * ) =.> > ] ; ^ 1 < ,.>.] _ ' = < _ ] K q < =.1.4.>._ q u =.6.=.] <.>.7.^ - ,.>.1 ' 4 ) ) { > / / ; ; - ; > - > ! ! > * ! ",
"5   @ w + * ! . % ! ! . % * . ! * ~ ! > - ~ > > ^ * ~ ) ; ] ] ] H > ^ ; ' 6.< 7.q W 3.&.=.W < ] &.=.6.; >.J |.' ' 3._ ' < 1 < - > ' ' b , ] ) ~ = = ~ ~ . . ! * * ",
"+ . . D D = ! ! ~ % * - = * ) ' ' ] > = ^ = - 1 _ = > [ 9 1 ] 4.K =.]._.q < 7.8.5.K Y 1.J Y q J ]._.q < f #.&.] [ q q 9 _ [ 9 ' h ( 9 > > [ 4 < = ; ] > = = % { > ",
"+ . + . . $ + + # ~ * ! ! - - = } ] < > < > > > ; < ] 9 ^ ; _ _ ; J J ,.f < ,.J Y J |.&.2.4.,._ >.] Y <.J 7.q K >.< >. .*.&.1 * ^ n _ ) ' ' > = - > ) > ~ > * k % ",
"! @ & > , ! = * = ; = * = > > = / ) h ^ > < _ > ~ 9 : 9 ' [ e ' < u q _ 7.z }.6.; 2.}.Y 7.].K J &.|.q e }._._.z q J &.< Z q 8 ; < p n ' ' ^ ; - - k ) ' = % * $ ! ",
". ! ! - * . % = > ; - - * > ; > ; ; ' = % > > ^ ) > [.< _ 9 ,.9 _ e : W _ u }.A |.4._.Y 1.|.< q q ,.7.}.#.{.}.2.7.J T ' < >.< ^ 1 _ [ ) > ) } - - ; ) > * ~ * ! ! ",
". ! # = = ! ~ = > { > ; ~ - ) ; ; ] 9 } - ^ > ] : 1 ) _ [ [ 7.7.>.q 1 3.A q u f Y q q ].}.Y &.X @.J ,.q I 7.q 4.f _ 0 < ' : _ ) [ [ 9 h < ; - = { < / { } } > > * ",
". & & % ! . # # ! ~ = > % * > > = = ^ = > ^ - ^ 1 *.9.1 ] ' A < < &._ 3.< ] ,.q ' |.Y g &.J =.K 2.0.' ,.n A J < _ 9 [ W > : I ^ ^ 1 7 } = > % ! * k } ; ; > = b D ",
"& & @ % . @ $ % * % . - ~ % - > - % k k ; ' > > ' [.~ ] 1 1 W =._ _ [ Z T 7 &.7.' J < =.Y &.0.] 4.*.3.,.K ,._ ; > ; >.; = ' ' > * > > = > } > % ~ % - ; > , > * + ",
"+ . ! ~ ~ . % ~ = , . * * * ! - > k > ' ) ' ) = ^ ) ^ 1 9 [ < T 9 0 ,.< ,.< _ A K J _ _ *.< ] >.>.3.] : ] _ : q ] > < *. .< ' ) > ^ < - ) 1 ) = k = > > - b ! ! @ ",
". . ! ! % . ~ ~ = - ~ > > ; % - { ; > ; ; ' ; - ' ) ^ ] _ _ 7 _ [ g 9 ` @.%.< : B 9 J 2._ >.q 1.&.J A K |.K z q < ; 1 < < %.h ' < 1 4 ^ 1 < ' > } > ; > > > ! * * ",
"+ . % ! . ! % = - * . = > > = > ; ^ ) k ; < ; > < < ' ' ] 9 ' ' 1 0 >.q &.,.,.g u < W 2.&.A @.g 7.A >._ |.|.< >.) > >.=.' %.9 < > ) ^ ) > ^ < > * % > - > = ~ ~ b ",
"+ ! ! . + ! = - = * % = > - G Q ; - ^ ; |.|.' < _ ] ; > 6.< _ ] [ J J 9 _ ; ,.f _.< > &.] 2.&.] q >.' J g ,.3.; * a.,.>.< > < ,.^  .' [.= W ; ; > = = ; > - = % ! ",
"+ & ! ~ @ . ! % % . - = % > > * Q > > ; H > < b.H J |.; b.3.K 7.' ^ |._ _ < _ _ < Z < _ ,.) < ,._ ,.' =.] _ >._ W a.>.<.3.W ^ *.= ; ' ) ; *.> P [.> *.= d = * ~ ~ ",
". . * = % * ~ * > ~ % - ~ > ) x ; ^ ; ) > ) ,.6.= _ _ _ Z A 7.q _ _ 1 A A q 7.9 < 7.@.g @.>._ [ < >._ T [ J >._ &._ _ K ,.J 9 ' > ' ) ^ _ 9 < P ; ] ^ - = > > - > ",
". % % ! . -.% . = * . - ~ % o Q ) ] ) > ' ' |.] |.> > ' ; ' J 1 ] _ _ 1 ' ] ,.J ] >.,.,.A K =.,.%.=.[ g ' 3.Z J < 6.3.] |.,.: < ] _ 1 ; ^ ' ^ = - > > = - > * . * ",
". ! ~ ~ ! ! ~ . ! ! ~ ~ ! % > Q = ' > > ; W b.3.9 ; - ' = = < 1 - ) 1 ) > ; < _ =.] ' ] _ ) ^ < < [ 1 : ; - 1 1 > = |.|.[.> 9 < ' 1 : < ; > ; - > > ) = . > ~ ! . ",
"+ + . . @ % ~ ~ ! ~ = = ~ = ; { = * ^ *.- > ' ; > < ; ^ ) ; ] _ ; ^ ) ^ < 1 ' 1 ^ _ _ _ < =._ >.' < 1 1 ] _ ^ ) < ; ' ' ] c.= 1 1 < ^ < > > * - ; > = * ~ % ! * + ",
". ! ~ . @ * U * % ; > ^ [.- - ) > = 9 1 ; ) p ^ ~ _ < < 0 s [ [ 9 _ ; ^ 1 [ ' < ] _ g g < g t A < ' _ < q q _ g f ] ' _ f ] ' [ < > * ' ; - = ' ) - P ; ' - ~ - ! ",
"& S ~ % . . ! % % * ~ S ! > > > -.- > > ) ) ^ * * ) 2 < ' ' _ 9 < < ^ - ' ^ ; ^ _ ] ] [ _ _ 9 9 2 ' _ < 1 T 1 [ : _ ' _ 1 ) ) ^ ) > % - > > > = - = % > > - . @ ! ",
". . = * U ! % ! ~ - = - ; > ; ; > 1 ; - W ^ < | 3 _ _ _ ' 1 9 _ < [ : ^ < _ < ; g 1 ] : g : _ E C C f s ] _ ) 9 q 1 ] ] _ ; ; ] ^ < ) < ^ ^ ; ; ; = ~ > > = . ~ * ",
". + ~ * ! . ~ * ~ % * = = ; } - - ) ; - = > 2 = | ^ ' : ) *._ Z ) : 9 ) ^ _ ^ 1 g < < 9 _ g ] < s ] [ [ _ [ < < ] ^ < ] _ ; > ] ] ' ; ' - * > > = ! . [.- - ~ * ~ ",
". d @ ! . * * = - ! . ~ ! ! ! * ; ; > - > = ; ^ _ ; - 7.*.. *.< ] ,.^ U > - * ) q 1 > 1 ) ) 1 _ 9 [ z B g B : 9 ^ - < ] ] 3.; _ 9 < ' 1 > ~ = - = * % ; - = > 9.. ",
"d & ! -.+ . % ~ - * * > - = = - > > - ) < > ' 1 ,._ % c.b.H 6.1 ,.1 %.* > ) |.< ) ] ^ ' ' ) ^ < > ~ ' ] _ 9 B B : > > < |.* = > ) ; ) 2 ; * > > - P * ) - = = = . ",
"& . ~ -.& & ~ P ~ % * ~ % - ^ ^ = > ) ) < > ^ _ _ _ c.c.3.=.W < >._ 3.< A 7.4.7.|.: A ,.7.q ] ) ' - ) ] _ _ K : : *.3.' - ) ; - > ^ ' ' ^ = - - > * * > = * ~ - ! ",
"@ . . . + @ % * ~ ! % ~ * * = ' = > ' ; ; > > < 1 ] ; < _ =.6.; 1 1 *.; _ ,.K _ ] ] _ [ _ [ _ ^ ' < _ ] ] 9 _ ] ,.H % ; 6.) ) > - ^ ^ ; > ~ ! ~ ; = ~ * * % * = ! ",
"+ @ . . . @ . ! * % . ~ = ! % > * = ) ) ) = = =.1 6.= 0.|.W > *.' < J ! b.|.1 9 H H ' ' ' _ 3.|.' ^ J ] ] ' 1 < < c.% b.b.= - - = k k > = ! . ! k ~ . ~ * ~ = ~ . ",
"+ + . + D . @ @ ! ! ! ~ ! ~ . . % P > = > ! ~ > > * b.= a.6.= ' ; |.; * ' 6.3._ ' ; = ; < < ; > 3.> ; 3.' ' = H =.> 3.*.' = 6.^ ; b * - % $ ! . * ! w ! % . ! % . ",
"L O . d.~ * # . - = > > = - * = < ^ > * 6.; ! ! > ; 3.> b.> = ; ; > W < 1 ; ' K 7.[ 1 < < ] ' |.,.' a.; < _ b.= ' < 1 ] ] 6.> _ 2.J = ^ ^ < ) > k = > } 6.c.! = k ",
"+ + e.. . % + . % D % ~ $ - ! @ H > - * b.H ! c.* > ' = . * * P  .* 6.6.6.; = H ' 3.> ; > H 6.' a.; 6.6.H 6.H > > H = ~ - ; ; ' = = = = * ~ = $ ! * b.$ d.~ ~ ! ! ",
". d.@ d.! . % ~ * . ! * ~ , H c.= 6.6.> - = > > = > ; = H |.^ ; |.J |.6.|.|.|.= H |._ < ; < >.] 6.< J |.; ' 1 < ; ; ; > ' 1 ,.] = ) ' ) > ! ! # = - = . . > > ~ . ",
"& @ L d ! ! ! % * D & + . ~ c.. c.> = = ! ~ 6.b.* > c.% > ' *.*.> ' ; = 6.H |.} H 6.W > ; 3.3.6.3.; ; H * 0.> = > ' ) = * > H = , - > ) k % ! + ~ b = % D c.. . D ",
"& . % + # ~ ! * = b * ! . = 3.* * H > ; - ; ^ * b.3.* > ; 3.3.< > . |.|.; ' |.3.^ ; H ' ,.' 6.|.=.3.|.=.b.Z ] H > ^ 9 ) * ; ^ ' ' } ) < { ; > % ; ' 3.> = > ! * = ",
". ! ~ ! & . ! @ $ k - % . ~ > W * * b.b.) ' - -.b.= ! ) > > < |.; > 0.|.J ] 3.6.|.|.) |.' ^ < <.' 6.|.<.|.J ' 3.> b.< ; - < < ^ ) ) > = = > ~ ~ ^ ; b.b > ; * ! $ ",
"L % * .   ~ * D ! = $ % k > + = - - = . > 3.= > ) > = *.= * ' ; 3.J H c.0.= c.; |.6.' ' > < ] ' 3.= ; > ] ] 3.=.> - ] < > > > ~ - ^ > = ; ; * o * ! . * - -.* D & ",
". . c.L + % ~ % % % ! > ^ ) * L = = ; * ! 6.> - ; 6.> > c.! H 6.|.|.; c.b * 6.|.> b.^ ' } |.] *.[.> < ^ ; ; ^ 3.> ' ] ' ^ - ; - > ^ ^ 3 ' ' ^ - % . % * * d.$ c & ",
"e.+ . L + . # ! % ~ ! * > > ! c.b.H 6.% d.H > 6.=.W * = - * > > ' ' ; b.6.6.< ] ^ 6.^ ^ } ' ] < ] ) 6.|.' ; ) ' > ; ^ > > ; ^ ^ > > ; > > 3 | = 9.. ~ H * * . * % ",
"L + . . + & + @ $ % ! @ . * ! * b.! ! d.! d.! * H * ! * c.% b.H ! = H d.H 6.b.c.= b.b.; H = ) ) ; 6.> = * ; > > * ! = > = * = = % % 9.- > = U . % % . @ % = . . ! ",
"5 d + L + + . . # ! % @ + % - ~ = . @ * * % @ * - S + ~ ! % > = ! * = = ; ' * % > k * > k b > ; ; ; 6.[.! = W > b . = = % . ! S ! = = = Q . ! * * % d.+ ! . . # . ",
"$.O + + @ . & . . . * ! + @ -.% * % . * = ~ * - - * D % % = * ~ ~ * * - > ; b.= H > = ! = , = > 6.6.> ^ = ~ - - $ D * . ! % U . . = ~ . U % % = . @ ! D . L . . c ",
"& e.L . . + . ~ % # * ~ + + ! - = * . S - P - ~ ~ ~ . % % ~ U = . % ; > ) 6.d.c.= > - . ; > [.> > > > ; = - - > ~ ! > ! ~ > = c.% * ~ ! ~ > = ! . % = . + c.* # D ",
"e.d + L @ + # % % . . . + . % ! ~ % . ! . ~ = . % P ! ~ ! % ! . @ ! = * = - % c.^ ; * . = Q % * * ~ * * . ~ * = * # , ! . ~ b.* ~ % ~ ~ ! * * . d.! d.L L D & + + ",
"5 5 e.e.+ . & @ ! $ ! ~ ! ! ! + ~ = = > . ! > . ! - - * ! P = ~ > > ! ! ~ > ~ $ ) ; - Q = x . ~ * ~ = - % * > k = % * - = = H = > ~ ~ = % ~ = % % e.& d.* + d ! $ ",
"& + d.L c . @ @ ! $ % > * . @ . ! = * - - . ~ ! . + ! > * . * = ~ - ~ * * = = # ~ = { > o = = * > > - = = - - > = - = > ) * P ~ > ~ ~ > ~ * P * % + + . . O f.d @ ",
"e.+ . @ & . $ d.c.S . - > = $ d.~ . . = b * * > ; = . = = - > k ~ . = * = - ; P ~ = > ) = , > [.; ) > b - P % [.- % ~ = , - > * = - , > # . ! = > ~ ~ . $ * & . = ",
"e.e.L . + . D L d.. . * b.P ! . D L . % * = * * = = . ! . ! ! b > = % @ % * % ! . . . ~ ~ ~ % * * % % # % = ~ P * -.* ~ . G o G ! o . . w . + . = U ~ % * = # D . "};
