/* XPM */
static char * player_xpm[] = {
"81 81 232 2",
"  	c #5A575A",
". 	c #646364",
"+ 	c #747373",
"@ 	c #838383",
"# 	c #7C7B7B",
"$ 	c #898986",
"% 	c #726F72",
"& 	c #79777A",
"* 	c #817E7D",
"= 	c #898685",
"- 	c #918E8C",
"; 	c #988F90",
"> 	c #89868A",
", 	c #797675",
"' 	c #93918D",
") 	c #A2A19E",
"! 	c #9B9B9B",
"~ 	c #666867",
"{ 	c #B1AEAB",
"] 	c #ABAAA5",
"^ 	c #BAB6B3",
"/ 	c #B4B3B3",
"( 	c #B8B8B8",
"_ 	c #C8C7C5",
": 	c #D4D5D5",
"< 	c #939393",
"[ 	c #A3A3A3",
"} 	c #B2B2AD",
"| 	c #AAA6A3",
"1 	c #999695",
"2 	c #949599",
"3 	c #95999C",
"4 	c #ABADB1",
"5 	c #A5A5A9",
"6 	c #8F9398",
"7 	c #858689",
"8 	c #82817E",
"9 	c #7A7976",
"0 	c #62615E",
"a 	c #6C6B6C",
"b 	c #8B8B8B",
"c 	c #5C5B5B",
"d 	c #4B4B4C",
"e 	c #706E6E",
"f 	c #4E4537",
"g 	c #A19E9D",
"h 	c #9B9A96",
"i 	c #A7A8A8",
"j 	c #ACABAB",
"k 	c #72716E",
"l 	c #5A5956",
"m 	c #76797B",
"n 	c #959CA1",
"o 	c #6A6966",
"p 	c #6A6769",
"q 	c #4A4646",
"r 	c #C5C1BC",
"s 	c #C7BAB7",
"t 	c #B1AFB0",
"u 	c #BBBBBB",
"v 	c #A19EA2",
"w 	c #545354",
"x 	c #595554",
"y 	c #696665",
"z 	c #868579",
"A 	c #555559",
"B 	c #444344",
"C 	c #524D4D",
"D 	c #393638",
"E 	c #868885",
"F 	c #ADA29C",
"G 	c #86898B",
"H 	c #8E9194",
"I 	c #8F918E",
"J 	c #0C0A0C",
"K 	c #0B040A",
"L 	c #030102",
"M 	c #0B0102",
"N 	c #2D2A2B",
"O 	c #BCBEC1",
"P 	c #DBD2C9",
"Q 	c #BEC0BD",
"R 	c #AEB1B3",
"S 	c #615F61",
"T 	c #969896",
"U 	c #9FA09D",
"V 	c #292628",
"W 	c #050409",
"X 	c #141214",
"Y 	c #817F81",
"Z 	c #5E5E61",
"` 	c #7E8184",
" .	c #181817",
"..	c #343334",
"+.	c #2B242B",
"@.	c #120D12",
"#.	c #1E1B21",
"$.	c #241D24",
"%.	c #3C3B3C",
"&.	c #9C9EA1",
"*.	c #8D8D91",
"=.	c #1D1A1C",
"-.	c #242224",
";.	c #2D3134",
">.	c #0F1113",
",.	c #7D7E81",
"'.	c #6D6E71",
").	c #656569",
"!.	c #372C35",
"~.	c #332C32",
"{.	c #342B2C",
"].	c #271B26",
"^.	c #918F92",
"/.	c #130B0B",
"(.	c #1D141A",
"_.	c #2E2B33",
":.	c #5E605F",
"<.	c #0A0905",
"[.	c #39312C",
"}.	c #2B2325",
"|.	c #2A1E23",
"1.	c #2A211C",
"2.	c #231C1C",
"3.	c #464649",
"4.	c #56585B",
"5.	c #4E4E51",
"6.	c #767977",
"7.	c #18120C",
"8.	c #170A07",
"9.	c #BCB1A8",
"0.	c #615D5D",
"a.	c #130202",
"b.	c #261716",
"c.	c #6B615C",
"d.	c #A6908B",
"e.	c #757679",
"f.	c #86746B",
"g.	c #594A46",
"h.	c #1B1314",
"i.	c #352829",
"j.	c #96857C",
"k.	c #DAC6BA",
"l.	c #56514C",
"m.	c #99979A",
"n.	c #878A93",
"o.	c #887873",
"p.	c #E7D9D5",
"q.	c #685854",
"r.	c #1B0C0C",
"s.	c #47362C",
"t.	c #D2B9AF",
"u.	c #C8B4A9",
"v.	c #654C47",
"w.	c #B39C93",
"x.	c #503230",
"y.	c #7C7269",
"z.	c #937C73",
"A.	c #B6A599",
"B.	c #574639",
"C.	c #66544D",
"D.	c #473938",
"E.	c #1A0D12",
"F.	c #E8D6C9",
"G.	c #A6968B",
"H.	c #EEE8D2",
"I.	c #9D9487",
"J.	c #D8C2AC",
"K.	c #907264",
"L.	c #9B8A87",
"M.	c #BBAAA2",
"N.	c #271609",
"O.	c #E3CDC3",
"P.	c #8E6C59",
"Q.	c #3D3D41",
"R.	c #67696A",
"S.	c #280503",
"T.	c #230201",
"U.	c #331F20",
"V.	c #1B0000",
"W.	c #360F07",
"X.	c #0C0B12",
"Y.	c #69392E",
"Z.	c #FCE7CA",
"`.	c #1C0E1C",
" +	c #AD8A77",
".+	c #93513C",
"++	c #ECCDB5",
"@+	c #CFB199",
"#+	c #7F5139",
"$+	c #654538",
"%+	c #512D19",
"&+	c #6F544F",
"*+	c #D5BAA7",
"=+	c #F9E8D7",
"-+	c #F5D5C2",
";+	c #776459",
">+	c #37251A",
",+	c #FFF5D8",
"'+	c #FEF8E8",
")+	c #FBF9F5",
"!+	c #9DA1A3",
"~+	c #4F5356",
"{+	c #BDC4C7",
"]+	c #C4AB98",
"^+	c #FAF6F5",
"/+	c #796966",
"(+	c #E3ADA0",
"_+	c #FDECE4",
":+	c #332E13",
"<+	c #BAB39D",
"[+	c #796F70",
"}+	c #EAC29F",
"|+	c #868569",
"1+	c #A77062",
"2+	c #471B0B",
"3+	c #F8E4BC",
"4+	c #F7D5CD",
"5+	c #3E4143",
"6+	c #AEB2AF",
"7+	c #DACBC4",
"8+	c #EDECEB",
"9+	c #C4826C",
"0+	c #433D42",
"a+	c #AA9A93",
"b+	c #6F7173",
"c+	c #FBFBFA",
"d+	c #F8F8F7",
"e+	c #F5F5F5",
"f+	c #6E716D",
"g+	c #787A85",
"h+	c #5F6065",
"i+	c #544F51",
"  . + @ # . . + + + $ % + & * = * * * - ; > $ @ , ' ) ' ! ~ > { ] ^ / { ( ( _ : < + [ } $ ! } | ' < / { } $ - # 1 ! ! 2 3 4 / : 5 6 7 @ # 8 9 0 a * b < . . @ & b ",
".   c . a d c b * * $ * e > < * f @ < $ $ * g h @ + * b ' ! + ' ' ' 1 ! ) [ i j 1 & b ) - h / | k l j ] h ' - g ' #   @ i [ 2 m n n @ + b < o o e > 1 + + < # a p ",
"& @ e , $ 8 b h b < ! > # $ 1 8 q , 1 | ! g h } _ ) ' ] _ _ ' b ) | ) < ! j ! ! < b 1 ! ^ r { } } 8 j ^ ^ s ^ / j { @ t } j j m 2 [ 3 j u ! h | g v ! 7 j j ! < < ",
"p w d . a w x . y * $ # y . c x l c l + @ & 8 ' $ 9 k 8 8 # . 8 9 8 $ + 9 $ @ @ ' ' ! < h h $ h z y z $ - b 8 $ < @ 0 $ # ! b A m @ @ [ $ . < < 1 b + x + 8 b b & ",
". c a B B C x a d x # b c a # k $ < l D E < ) k a h b ) E k ) | k k 1 h ] ' # + $ j j @ o # ^ _ { F h d o @ @ b b . . ' - $   + G H I $ @ * . a # & & a + # c 9 @ ",
"# > b e w @ @ $ # . + # < 1 1 h b 1 [ m 1 i [ < | ] | ] / ^ ( } } j u ) 1 d J K K J L M L N | h ^ : r - j ( _ O ( j r P ( | < ( _ _ Q _ r j [ [ R / ^ ( j < E j [ ",
"# + # a l $ @ * # # a S , p p $ 1 < @ & E $ T $ @ b $ U ) | | ) _ | b V L L L K J W L L K K L L X # p < ( i ! 2 2 & # $ # - a @ b < h 1 b [ # , Y # g b $ I a 8 b ",
"a # & o p @ 9 # @ $ # , # y p b < j < Z ` 3 H Z # 1 ) g ! | ) ^ ) C L L  ...+.X @.#.$.X L M L L W L L %.&.( . @ ! 7 p + [ h h ' T ! < < ! i m p b b 1 b $ ' a @ ! ",
"a . a + 9 9 8 , # @ # , @ # & [ G ! ! # *.@ # ~ ` ! ! ! | | _ * L L =.N ..#.W W W @.=.-.X L L K -.;.X L >.p *.[ / j *.1 _ j ( u | j j [ i j 1 &.( i [ ) [ < ! @ @ ",
"+ p . c . + & & # @ + + b @ + 1 [ ,.,.'.. A p ).,.v 1 ! ] _ 9 L J +.!.$.L W =.!.~.{.].+.~.=.L W @.+.D N L L t / ! $ . @ ( j ( | | j ! [ 3 ! @ < 3 ! 1 ! < v # a + ",
". + + 0 l + + @ & @ + . & # a ^.&.! ! . a + a d + [ ! g _ , M /.N !.(.K J +._.+.+.+.N $.+.+.-.J W L ~.....L /.1 j u # b u i ! j r ) ! [ i ! & $ j | ) ! j t '.# $ ",
". S y . C l c . k :.B w p d D > ^.< < d c $ + D Z 7 [ r ' L <.[.}.|.K (.~.{.+._.~.+.+.+.$.+.~.~.].L K }.1.{.M 2.| | + c b ,.m + 9 o # @ m ~ 3.G | ! ! i @ 4.5.'.+ ",
"+ y % + . d %.+ 6.# :.d + # a   . * p 0 o l 9 c . , # h 7.8.9.0.M +.D |.|.|.|.|.].+.].].].N ].$.N {.L a.b.c.d.M 7.1 ' a . e.< b + @ + < 2 H x c 9 @ @ + D 3.'.@ @ ",
"+ + , + # +   + a # @ & @ b 1 p y $ $ ) | < ) { %.d x M L s P f.{.g.}.h.{.|.~.@.K N N $.=.}.2.M $.|./.M i.j.k.j.M l.P / v R i ! j _ &.m.j j @ + < b h '.'.n.e.@ b ",
"o . . a . o . p + + o a & + @ , a ' @ $ E b $ [   , N L o.p.P o.j.q.r.i.r./.|.(./.{.h.2.[.N 2.M 2.i.s.7.q.t.k.t.g.M , / 1 2 ! ! i j @ b G b # 9 $ @ 8 m m G n.$ *.",
"+ e + 9 a o 0 a + p . c p # Y 6.k # $ @ @ < < ! < $ h.M D 1 u.k.t.q.v.w.x.s.s.i.[.M 8.y.o.2.(.M b.z.A.B.j.t.w.z.C.L ..} z = 1 1 ) b < < @ b + o # @ @ + e.> G b b ",
"k o , 8 @ + c a + , e . p & & k + # # a @ < ! i i D.L h.2.E.o.F.F.s.G.F.u.p.C.}.o.r.y.H.I.h.X M D.J.k.G.D.f.K.L.b.L L h ' 9 ' ' @ ' / j ! ! @ + $ # @ ,.+ ,.@ < < ",
"o o a + h + x o + 8 + S a * @ a a @ @ % + ! ! j $ $.L M E.}.b.l.g.r.M.F.F.p.N.b.F.O.u.P.L.b.E.W D J.k.G.h.M C.; {.L L h r ^ j u T u _ / / [ & . b 7 @ 7 m n.@ b ) ",
"  q . w C   D   w q q B d C w x x   . x C . a + . W L h.h.{.|. .L L c.s P o.L r.w.p.j.s.L.b.E.M b.f.u.f M M E.x 0.=.L x ^ 1 j / ! + ' $ o +   Q.. R.m e.;...~ & . ",
"b . . p x o + * k c o + e a + o a # < ! ^.@ @ b @ K J 2.h.|.{. .L X 2.|.D.<.L E.i.D.h.D.y 7.b.S.T.i.s.b.U.a./.+.$.].L {.b _ u ( / $ ~ . < @ < i 3 6 6 G A Z @ $ + ",
"@ $ @ $ $ $ $ $ ' - @ b b < g # . < < v [ i j _ %.L X M h.~.{.<.L -.N $./.M M a.2.K @.+.2.M V.P.W.a.(.|.s.r.M ~.X.@.@.L B : j / i / 1 E j i j i / ( [ ! *.! &.< i ",
"# p + & + + 8 8 $ - + y 8 = b @ . @ $ @ < ! ! / -.L 2.L h.!.!.L (.!._.N M Y.x.M {.].#.#.N a.W.Z.K.M ].].+.b.M =.X.X.@.K   [ p T b U $ e.b [ 1 ! [ b @ ! a . *.< $ ",
"@ & a p + . k # # - * l.* , ' < & a + 1 $ 1 ! j V L @.L h.D {.K `.!.{.M a. +.+a.(.K |.+.M T.P.++@+a.M _.+.+./.W >.W X.W j _ I < R t $ & R 1 1 b b $ h ! + @ j ) ' ",
"$ # + @ + o k & # - $ C k 8 $ @ $ m., $ < b ^.j -.L L L 2.!.K M |.{.M V.W.#+Y.a./.M }.b.a.$+ +%+$+$+N.E._.~.$.L J /.L W A u } | ) j @ < : g < $ @ h | ! - ) 1 $ < ",
"6.  A a c c + e . x 0 0.l 9 = + @ [ < p p * . a =.L L X !.{.L L $.M V.&+*+Z.K.M a.2.b.M B.=+Z.++F.-+;+M  ._...X <./.K L L + ' a p $ + c + @ # 8 < @ * * l.l @ + # ",
"# w d a + # # * - l w = e e # $ I 1 j # , ! , @ -.W L  .{.+.J W K a.W.>+B.;+;+L -.7.M >+,+,+ +>+x.$+x.s.M b.{.N {.M L W L  .| ( @ @ a k E h - g h - @ $ ' ' b < < ",
"b + ~ # @ 8 8 @ b e k - * + # $ I 1 ! ! b < / x X L W  .!.!.M L L b.B.B.B.M L M (.a.c.'+J.>+a.>+B.$+v.x.a.a.}.2.{.M L L L L h.# i / E ! | ! | ) ) ! ) ] { { ) ! [ ",
"@ + w 0 k + 8 * b 9 + @ * e # @ b ! < < < [ . L J J L =.{.{.M M b.M L L M M M a.S.s )+H.s.x.S.M L M M a.b.M 1.}.N L W L $ C L L 2 R 2 &.[ ! ! [ j b h | ' < 1 b h ",
"8 , l . + o . + @ x q , e . a @ T ! ! e & d L L W L L -...}.M T.V.g.q L L L a.x.x.u.F.v.x.V.V.a.1.J o T.T.M /.{.-.L L L p ( !+!+3 R m ~+@ @ G 1 $ @ # $ ' @ $ ! h ",
"+ + k # # # @ $ a w c # & @ b # # 1 ! p L L L X L W W  .N }.M W.Y.u.! L >.M i.O.v.M M N.u.g.M 2.C D p.K.%+M J !.+.L L L W # {+!+n n n n m m 2 # m &.2 T b + < 1 b ",
"+ e a , 9 + . # k . y + + & @ & a # 1 , X W D + X L L  .{.$.M S.]+^+p.L <.M /+'+s.f.O.N.F.u.L <.L 1 )+++Y.M J ~.-.L L L L ..!+n 3 7 5 : 6 H n ` m H 2 < + e.& 9 # ",
"a 0.c , @ # S 0., 9 . 0 9 # @ & S @ ^.'.. b ^.-.L L L /.N V M T.(+++_+G.M 1.=+'+:+<+'+1.u.'+f.M f _+-+(+Y.a.h.V =.L L L L L Z j 6 &.a . &.*.` b + + $ @ + + a + & ",
"[+  C p + < . w + # k p + + # Y a @ # < ^.*.q L L L L L N {.M a.&+@+}+=+u.k.)+|+B.Z.,+M.s.F.=+<+=+++(+1+T.a.2.-.J L L 1.%.L . / i b + @ ! < < ! @ $ # @ $ $ , & & ",
"S q D.d B 0.d B 0.y c d x . p 0.  @ + w w b {.L -.L L L h.../.a.a.%+]+F.'+^+/+[.H.,+Z.'+y.7.F.'+,+++.+S.T.a.N X L L L N # W 4.7 e.a w @ @ & # & + # & . d c 9 , . ",
"p x   . y . a   x c # 0   . 9 a + @ # d   < V L 9 -.L L L =...M N.%+2+N.N.N.q.H.,+3+Z.,+,+j.N.N.N.2+Y.$+S.7. .L L K L =.2 W %.,.G b @ @ < $ @ @ b b < @ p k @ @ @ ",
"# , $ b b b m.[ $ + $ # # @ ! @ h @ @ @ b [ & =.+ <.L L L L -.M V.P.}+++]+]+4+,+3+Z.3+3+Z.,+@+]+*+-+t.>+a.<.L L L L K =.R 5+!+/ / i i / i j b ! i [ ! [ ! h ! ! j ",
"0.a a 0.. a & @ +   . + a d c y 0 a + k + $ j N  .. L L L L K L M V.1+3+'+'+,+-+Z.++}+3+3+Z.,+'+'+F.s.M L 7.L L L K +.. ..H j . @ @ @ @ b # . + b $ @ & %.e b # & ",
"0.e c d a + + @ + + # 1 @ . # $ c & $ $ 1 b b p L c / X L L L W L a.M T.z.J.=+,+3+Z.Z.Z.,+,+++]+v.a.M M L L L L L   _ 4.5+6+i U / j + # ! @ c + [ < b + %.9 ' b $ ",
"+ a * k # 8 @ @ @ 1 + Y E *.< < a a $ ! 1 $ 1 ! @ d < %.L ..L W W L L M V.T.Y.@+,+'+'+'+=+P.W.V.a.a.M L W L %.=.L 7 2 m : : _ _ O / [ i i [ < $ i [ b @ < h ! [ | ",
"a k + o + # + . # @   . a '.a e.. a e.a # b 2 ~ ! *.*.-.L 4 5+W W L @.E.M M M T.P. +K.z.v.M a.a.M b.M W B L T D W ` n {+: _ } [ ! ! ! < 1 H @ $ 1 ! $ @ @ 8 < 1 $ ",
"o + + a c a # # + & x . + . c m G < b p w @ G 7 7 &.! G X '.O ;.L X   x a.L L a.V.S.S.T.M M M a.s.q.D.L -.H !+L A ( {+{+6+i | / R [ < + @ < + a < @ $ + p ! ! - - ",
"p a # & a + 8 $ @ # p a + # p @ @ $ < G # 2 ! m.&.! ^.u 2 W ^.b L f g.w.7+f M a.2+.+.+Y.V.M 7.F k.j.g.M =.8+%.-.( 4 6 3 2 2 v i ( ! < b [ ! & @ 1 b 1 E + b b b < ",
"a o + a 9 & & # @ @ a p + & p < < G 1 $ ,.7 @ b ,.i u j &.'.,.{.b.C.P.u.'+_+g.a.P.1+9+1+V.8.r )+7+z.f.x K x ~ '.n n !+n 4 i v 2 !+! i i < @ + & [ < < 1 8 @ b 1 1 ",
". . c . . . d S . c C . # + c l $ * # C 0+# 1 @ m a + m + ! # L D L.M.G.d.H.=+;+x.@+*+;+x.k._+9.F a+a+[+K =./ ~ *.` G n.7 7 7 ,.+ # + + @ $ . . b $ G < p c # + 9 ",
"c   . a p   D.C + + * 8 , 8 + c 9 # , c d $ i $ b @ d + < 1 < J =.E.a.r.[.;+u.=+G.8.a.B._+=+j.l.s.b.N.}.K d R e.@ ,.&.!+` 2 m.+ 4..   # $ b & a # @ b $ . C y 0.a ",
".   . p + a a + + 9 + + 9 # 8 . o + 9 9 + @ @ $ $ ) 8 & h b j e.L M M L L L b.w.O.M M <+P l.L L M M a.M =.u 2 e.# < ' 8 b I $ ,.H b + b $ @ & c # + + a . e o + & ",
"a x B S p . c 0 p a # + + $ 9 q , 9 + 0 e ' @ b ' ! . 8 h b } c L L.^ .  .L L o.d.L b.q.I.L L M [.u.s D.M e.m Z m.1 1 9 6.H 3 [ / < ~ a + # + # # # + e.+ + Y 8 # ",
"@ + A . e a # + + & + + & ,.a c & * # , 8 @ @ b b 1 m $ < [ 0.M f.F.p.w +.$.K =.(.#.D ].2.W X $.~.L._+a+M L 1 4 ( n j 2 E !+i j b - # & $ # # ,.@ @ 7 2 @ ,.*.@ + ",
"& '.4.. e a , + + + + '.e.+ + Z + & # * + 9 9 @ $ G e.@ 1 ^ b.N.k.9.p.D.L ~.w ..#.+.#.`.%.d w +.J a.t.p.j.L w O G *.@ '.G 6 !+! $ $ # @ $ $ + @ @ ,.,.,.b+` @ + + ",
"p . Z a & + e @ e 0.e + @ @ + Z 7 G ,.# % @ Y ,.*.n ).R.@ w D j.O.d.f.}.M y c+c+< L X D d+c+c+G L a.j.7+u.q +.m 2 7 2 @ . ` m @ b b   p + & 7 # + @ *.< 7 ~ + # + ",
"+ + Z c + # e & b p & $ $ G G 2 n.*.*.*.m G ,.2 6 2 ! m.u M D.F.O./+M L = )+8+c+h L 0+c+e+0 # c+v M >+f.d.F L N u < R i j 5 b+m # . p j i [ < j 7 ` 6 &.4 b+m # # ",
". 4.x C x .   w + a , & p + + 4.a 7 # # 4.w 4.5+d m ^.' c.[.a+F.k.q.8.M | c+) e+U L B 8+< W ..c+_ M }.o.j.L.q 2.A + + G @ *.` + e.. w Z + @ '.+   A . ~ m a ~ . . ",
". p + . w . a a c e . w c & e.. ... H G + m + 5.& [ ^ g.M F F.k.t.N.M { e+o  .c+< L V W W d c+c+5 M a.j.a+9.s L /.b m @ e.,.6 6 < &.a 4.7 @ $ ~ ~ ` m m ~ c .   + ",
"+ + + + , # + # + b & + & ,.< t f++ b $ < ! 7 7 [ < ^ g.M J.F.k.A.M M e+p.L B )+) J #.W % c+c+7 X.(.L f._+F.=+q =.{ ! ! 2 *.!+6 6 6 *.6 3 2 [ 2 H ! < &.@ + $ $ < ",
"a . . . . + # , a & a + '.+ @ E b+c b+e.e.m ,.& > ! 9 M s.z.z.]+d.M L P c+e+c+e+c+_ L i d+: N @.W N L /+k.d.L.q.M l.| @ 6 7 ` 7 @ G 7 ,.@ G $ G < @ < $ + + e.# # ",
"Z . . c 0.9 8 # k a # & + @ '.@ 7 e.e.'.).g+g+).,.v [+M j.;+>+g.i.M @.d '.'.1 c+_ D  .c+^+g.7.N 3.+.L /.v.x.;+a+M f _ & ~ ,.G 2 G 3 b+4.~ G @ m # 2 2 1 $ @ $ b < ",
". . + , y + @ # e + & & + ,.& a *.2 ,.e.b+n.2 e.a % h.[./+w.u.;+M L -.X W W Q.c+m.L %.c+)+H.)+c+: J K M D.w.A./+g.b.e ! p 7 H b H H a . m ,.# m m 1 [ ! @ < < $ 1 ",
"c c a p C l o e , x x p + d 3.'.e.+ e.'.A '.h+Z R.~.M C.u.A.z.j.I.i.X N +.@.J d +.K K 0+d x 0.e 0.2.2.x L.d.a+k.a+M <.` a + + # a . x # # a + e.B w . + + a @ + # ",
"p p + y . a x + $ + e   a p + G Z + @ m + e.@ @ $ N M L.w.;+w.p.a+L M !.h.q 0.D.D.q.C.D.[.D.i.M r.+.L g.p.u.z.w.F {.2.b *.b #   b 1 a + & & + b 1 w c $ $ @ @ @ . ",
"+ + a k @ @ . @ b h ! # a < ! 1 & $ $ b T b ! [ ( f M ;+C.w._+F b.}.}.2.2.a+H.k.k.k.k.J.J.k.u.[.a.2.D.{.[+_+k.o./+D.-.! ( j ' ' ( } | 8 @ b ! ) ( & ! j b 1 @ $ . ",
"a . . a . x c a k + 8 + p + . + q %.k 8 k + # @ ' 2.L >+j.F.G.s.M e i+M F k.t.J.@+J.*+*+J.@+J.k.1.M s {.a./+O.u.s.b.h.^.$ b @ h ! @ b + # @ $ @ # # + # # + p   q ",
"a a + + c q c + a y + c + $ & e C . + + # # 9 a @ + L /.o.f.s.D./.}.b.q.O.k.*+@+*+J.*+*+*+*+t.O.L.r.D.i.i.b.&+o.v.M /.! 1 $ * $ h g ' $ # 8 ' b $ + 0 $ + . @ + d ",
"+ + a % @ , * 8 + . o 6.# # , # & ^.b - $ b ! *.# ( 0.M i.s.D.2.M a.C.k.k.J.*+*+*+*+*+*+u.*+*+t.7+L.8.r.E.D.D.D.b.}.; ! 1 < # 8 ) | b b ' 8 < $ < & # b + # b b @ ",
"e.+ a + c a @ @ + a a . a + @ # w , @ 1 @ $ 3 p + 1 g 2.M D.g.M M [.f.u.k.*+t.k.*+@+*+*+*+*+u.t.k.j.D.r.M D.q [.L p j , $ @ k a h @ $ & & @ @ @ @ a . ,.+ '.,.& p ",
"+ + + + . a + + Y . a . . # # 9 ~ # + . @ > !   c b < $ -.L L L /.l.g.z.z.f.w.u.]+k.J.J.*+*+t.*+w.&+g.[.M M L L 3./ $ < ! T 2 & ! @ 8 9 & @ @ @ @ . . $ @ # ` + ~ ",
"c d c 4.Z c   . +   . . . a p o a I b x + < 3 ,.3.+ # < @ k /.M /.l.q.v.v.C.v.$+P.]+A.j.K.z.w.z.B.g.C.D.M L N < j / j [ 1 [ I 6.< #   # @ b < b ! & + b b ! $ b @ ",
". 5.d 5.+ @ @ + d . + + . d b 9 @ b < p . ! *.a d c . # $ g . L L -.g.C.q.C.;+C.q.q.q.q.q.q.C.v.g.C.D.2.L V ! ! / ! 1 [ [ ! 2 i [ 1 . B @ # + & G . . @ & @ $ & # ",
"+ a p + + '.+ . + @ # $ + + < < T b 1 $ %.5.Z B '.@ p & b i b L L L L h.8.2.h.b.b./.7.r.h.2.a.a.r.8.M L L w .   9 @ 8 # ,.&.( j i 1 [   c & @ # . x ~ + . + e + + ",
". . + @ . x '.p p # + @ a . @ @ @ $ < @ D D A a # ,.~ @ 1 < ! b+L L >./.M /./.M M K L J J J h.a.8.a./.K ..j . d 9 + @ # @ ! 2 H I < b & $ @ # & p @ @ p c % + + # ",
"p a + # p c + @ + a + @ . . @ @ G G 7 e.e.G *.2 7 e.a '.7 # $ &.d K (.(.2.+.|.2.K K K L  .N |.}.h.2./.~.b ,.# $ b b b < < b b < < 2 G 5.'.a a . + + a + a y k + @ ",
". . . + + . a a # + # & . c + # G $ G + . e.e.,.@ e.'.+ @ @ @ @ j V L K L L L =.  0+d c Q.L L L M L L ,.2 @ 6.# b 8 b $ @ *.^.b G *.@ w . p + a . a + a . k + # # ",
".   c . . . a + + & + a a c a b+7 ,.,.'.h+m m m m e.b+e.e.7 ,.7 3 -.W W J L W %.( b G j e.W L L M W W '.6 @ m & $ @ @ @ $ *.G ` m *.,.5.~ e.& . . + + p p e + + + ",
"c d . + . x c + # + f+& a x + e.e.@ @ ).a ,.b+,.,.. a # m e.` 7 6 =.W  .X @.L N j . A 6.w W L @.=.W W ).2 7 R.e.b $ $ + ,.7 @ ,.m ,.+ d 4.A x B x   . . . . . . p ",
"w d %.%.d q d c x   a Z 3.3.a ~ '.~ . d d ).4.~ a 4.. + m + e.,.^. .L =.(.E.L X @ . # + V L <. .X #.W A '.` c d + a + & + ~ a ~ + + a w + + + m . d a @ @ + . d B ",
"p &   B & + + + + Z p + a A d w c Z a ~ a ,.4.. '.b+'.a '.m e., # @.M @.E.h.J p ! j ) h * N L  .K J W '.G G G ~ + a p @ b G A d + $ b 7 ! ! 1 [ *.& @ & @ m.[ @ . ",
"p a & '.@ e.@ $ + . a ,.n.'.Q.~ e.# m @ b ,.% R.b+~ a + e.6.b+m b =.L =.X L  .i [ T # b [ 0 L L >.K L '.! 2 *.Y @ Y Y @ @ < b+. + & & + '.b++ ~ '.. c a 2 m.m.b % ",
"p x d D Z 4.A p d w Z 5.Z . 3.q B 4.~ . a '.d Q.3.B A w . . w w a W L C q L L c f++ f+6.o ..L N e -.L S e.).).).~ 4.S A . . c . . . . p 4.4.w c '.a p ,.@ w x c   ",
"a p c D w . a e.e.+ ).A . . ~ . . w   '.& m   w a + # :.+ @ # $ + L V c c V V . d + a + [ C L x o x K D 5 A ).7 7 Y , w e.@ 6.# & + + & a + . ,.7 $ b < e.w ~ a & ",
"p 4.+ + . + & + ~ '.'.S a a e.+ + a p & @ + a @ < @ @ ` @ < j ) * L , s b K J , 1 < ! [ [ ..L e { ^ M K j 5 2 2 n.7 @ @ G 7 b ,.m + m e.a ,.# + m @ @ ,.,.m e.# + ",
". c   %.B A . . S . ~ 3.4.c c . c S S A A 4.5.. < 7 7 G m d x 0.L D.= $ [+0.L L B %.5+3.$.K 2.c.o.y.c.K ..w B ~ ! @ '.m *.` m m . a + '.Z + 3.Z e.'.e.p m . A a p ",
"c     d d A . ~ . c c x . p , a w c a 4.3.5.R.d D #.@.;.-.L L L X s c+^+c+s 2.W L L L W L J i+)+)+'+c+y L L W W %.#.@.=.3.a ~ . + h+).m ` @ A q Z a . . 4.Z . p . "};
