/* XPM */
static char *xpm_[] = {
/* columns rows colors chars-per-pixel */
"85 85 246 2 ",
"   c #030202",
".  c #0B0202",
"X  c #0B0906",
"o  c #050309",
"O  c #0B0509",
"+  c #0C0B0B",
"@  c #050908",
"#  c #130201",
"$  c #1B0200",
"%  c #150905",
"&  c #1C0A04",
"*  c #11040B",
"=  c #140C0C",
"-  c #1A0D0D",
";  c #13110E",
":  c #1C120D",
">  c #1B1003",
",  c #0C0C12",
"<  c #090610",
"1  c #140C12",
"2  c #1B0D13",
"3  c #1A0915",
"4  c #0D1014",
"5  c #141313",
"6  c #1B1414",
"7  c #1B1A15",
"8  c #16141B",
"9  c #1C141B",
"0  c #1C1B1C",
"q  c #121912",
"w  c #0D1209",
"e  c #230300",
"r  c #230B04",
"t  c #260A09",
"y  c #350400",
"u  c #251708",
"i  c #37150B",
"p  c #221514",
"a  c #231913",
"s  c #241B1C",
"d  c #2A1B1C",
"f  c #281618",
"g  c #331A16",
"h  c #270C12",
"j  c #1F211E",
"k  c #24221D",
"l  c #2B241B",
"z  c #35281C",
"x  c #343315",
"c  c #1E1C21",
"v  c #1D1724",
"b  c #231C23",
"n  c #2A1E23",
"m  c #281E29",
"M  c #361B25",
"N  c #242223",
"B  c #2B2324",
"V  c #2B242B",
"C  c #2D2A2C",
"Z  c #292826",
"A  c #342324",
"S  c #352C24",
"D  c #32262B",
"F  c #332C2C",
"G  c #3C2B2A",
"H  c #392B26",
"J  c #33312D",
"K  c #3B332C",
"L  c #2D2630",
"P  c #2D2933",
"I  c #322C33",
"U  c #382D31",
"Y  c #353234",
"T  c #3B3335",
"R  c #3A3838",
"E  c #472B1C",
"W  c #4F2F1A",
"Q  c #4B1E21",
"!  c #432C2A",
"~  c #43342D",
"^  c #463727",
"/  c #54392E",
"(  c #443C3B",
")  c #493A35",
"_  c #583A38",
"`  c #572E21",
"'  c #63392D",
"]  c #4A1915",
"[  c #49453B",
"{  c #56443B",
"}  c #64433C",
"|  c #3F3D40",
" . c #473F41",
".. c #4C4C4C",
"X. c #494444",
"o. c #524442",
"O. c #5A4645",
"+. c #5C4A45",
"@. c #544B4B",
"#. c #584B49",
"$. c #5C564A",
"%. c #4D4E51",
"&. c #555354",
"*. c #5C5B5C",
"=. c #5A5556",
"-. c #564D51",
";. c #634A48",
":. c #714A44",
">. c #67544C",
",. c #655C5A",
"<. c #675855",
"1. c #735B56",
"2. c #795D4C",
"3. c #69645C",
"4. c #76645C",
"5. c #797E5E",
"6. c #625D62",
"7. c #636363",
"8. c #6A6462",
"9. c #6B6A68",
"0. c #7D6C66",
"q. c #776967",
"w. c #78716B",
"e. c #7B7B7B",
"r. c #797675",
"t. c #8F534B",
"y. c #8A6758",
"u. c #896E55",
"i. c #835E65",
"p. c #866B64",
"a. c #9B6D67",
"s. c #86756A",
"d. c #837472",
"f. c #8B7D74",
"g. c #847D7C",
"h. c #8A7C77",
"j. c #947D76",
"k. c #927668",
"l. c #AD7772",
"z. c #7F807C",
"x. c #8C817D",
"c. c #8D8176",
"v. c #96847D",
"b. c #998778",
"n. c #9C8A6E",
"m. c #A88377",
"M. c #BE8C7C",
"N. c #897F80",
"B. c #8C8B8B",
"V. c #898585",
"C. c #9C8A84",
"Z. c #9C8D8B",
"A. c #948785",
"S. c #93928F",
"D. c #999388",
"F. c #959593",
"G. c #999694",
"H. c #969996",
"J. c #969995",
"K. c #999A95",
"L. c #999997",
"P. c #989896",
"I. c #989A97",
"U. c #9A9996",
"Y. c #999997",
"T. c #959698",
"R. c #999798",
"E. c #979999",
"W. c #9B9A98",
"Q. c #999999",
"!. c #9C9D9A",
"~. c #9B9B9A",
"^. c #8E908F",
"/. c #A38A83",
"(. c #A7968B",
"). c #B6998A",
"_. c #A29D9C",
"`. c #AB9B9A",
"'. c #A79A94",
"]. c #B09896",
"[. c #9FA09D",
"{. c #A1A19E",
"}. c #ADA39A",
"|. c #B4A49C",
" X c #BAA599",
".X c #B8A18F",
"XX c #9D9CA0",
"oX c #A39FA1",
"OX c #9FA3A0",
"+X c #A3A3A2",
"@X c #A8A8A7",
"#X c #BDABA4",
"$X c #B6AAA6",
"%X c #B9B3A9",
"&X c #BAB6B4",
"*X c #AEADB3",
"=X c #CAB39C",
"-X c #D0AF97",
";X c #C6AEA6",
":X c #D6ACA5",
">X c #C9B5A8",
",X c #D4BCA4",
"<X c #D9BDAA",
"1X c #D6B9A7",
"2X c #CEBDB2",
"3X c #C6B8B6",
"4X c #D2BEB7",
"5X c #E7BAAA",
"6X c #DBC3AA",
"7X c #C9C4BA",
"8X c #DBCBBD",
"9X c #D9C5B7",
"0X c #D1CCB5",
"qX c #E5CDBB",
"wX c #F7D7BB",
"eX c #E6CBB2",
"rX c #EEE0BD",
"tX c #BFBBCA",
"yX c #CAC5C7",
"uX c #D9C9C4",
"iX c #DAD4C6",
"pX c #D8D8D8",
"aX c #C7CAD3",
"sX c #E3CDC4",
"dX c #E6D5C7",
"fX c #F3D6C8",
"gX c #EADBD6",
"hX c #F6DCD7",
"jX c #FDCFC2",
"kX c #FBE6C8",
"lX c #E4E2DD",
"zX c #F5E4DC",
"xX c #FDEBDC",
"cX c #F8E7D3",
"vX c #FEF7DA",
"bX c #DFE3E6",
"nX c #E7E5E5",
"mX c #FBECE7",
"MX c #FEF4E4",
"NX c #FFF4EC",
"BX c #FFFBEB",
"VX c #FCF9E7",
"CX c #FDFBF5",
"ZX c #FDFCFC",
"AX c #FBF6F4",
"SX c #EDEFF1",
/* pixels */
"L.L.L.L.L.L.L.L.L.L.L.L.L.L.L.L.L.L.L.L.L.L.L.L.L.W.W.L.L.!.L.L.G._.G.J.W.P.T.G.!.F.P.!.P.T.[.S.I.[.J.J.H.R.P.R.R.W.R.W.W.L.L.L.L.L.L.L.L.L.L.L.L.L.L.L.L.L.L.L.L.L.L.L.L.",
"L.L.L.L.L.L.L.L.L.L.L.L.L.L.L.L.L.L.L.L.L.L.L.L.L.U.U.L.L.L.K.G.L.L.G.F.G.oX~.Q.F.Q.P.F.L.P.D.[.[.^.[.J.T.{.Q.Q.R.R.R.U.R.L.L.L.L.L.L.L.L.L.L.L.L.L.L.L.L.L.L.L.L.L.L.L.L.",
"L.L.L.L.L.L.L.L.L.L.L.L.L.L.L.L.L.L.L.L.L.L.L.L.L.L.L.L.L.L.I.L.I.F.{.L.Q.P.P.Q.!.L.L.Q.Q.P.F.G.^.[.J.[.I.S.[.S.W.L.L.L.L.K.L.I.L.L.L.L.L.L.L.L.L.L.L.L.L.L.L.L.L.L.L.L.L.",
"L.L.L.L.L.L.L.L.L.L.L.L.L.L.L.L.L.L.L.L.L.L.L.L.L.U.W.U.L.L.L.I.F.!.L.F.!.F.L.H.F.L.Q.E.F.H.!.F.K.^.[.B.[.K.I.K.Q.L.L.L.K.K.K.K.L.L.L.L.L.L.L.L.L.L.L.L.L.L.L.L.L.L.L.L.L.",
"L.L.L.L.L.L.L.L.L.L.L.L.L.L.L.L.L.L.L.L.L.L.L.L.L.Q.I.!.L.L.G.I.[.I.H.[.Q.E.V.N c N N Z Y J =.F.K.[.E.I.H.H.S.[.K.K.K.K.K.K.G.K.L.L.L.L.L.L.L.L.L.L.L.L.L.L.L.L.L.L.L.L.L.",
"L.L.L.L.L.L.L.L.L.L.L.L.L.L.L.L.L.L.L.L.L.L.L.L.L.L.L.L.L.F.G.G.K.+X!.T.J @ @   + + o     @ + + w 7 ~.H.[.H.I.K.K.K.K.K.K.K.K.K.L.L.L.L.L.L.L.L.L.L.L.L.L.L.L.L.L.L.L.L.L.",
"L.L.L.L.L.L.L.L.L.L.L.L.L.L.L.L.L.L.L.L.L.L.I.I.L.L.H.I.L.H.L.[.I.[.z.@ o 8 Y Z 4 1 c b = @ o     @ @ 7 7.K.I.J.K.K.!.G.U.U.U.U.L.L.L.L.L.L.L.L.L.L.L.L.L.L.L.L.L.L.L.L.L.",
"L.L.L.L.L.L.L.L.L.L.L.L.L.L.L.L.L.L.L.L.L.L.I.I.L.H.I.I.L.L.!.{.[.X @ 0 P Y c @ o   , c b = o   @ 8 I 5 + N F.K.K.K.U.U.W.U.U.U.L.L.L.L.L.L.L.L.L.L.L.L.L.L.L.L.L.L.L.L.L.",
"L.L.L.L.L.L.L.L.L.L.L.L.L.L.L.L.E.Q.L.L.H.L.I.I.I.I.J.!.L.L.+XL.@ + Z Y b O o v P V L V v Y 9   . , L Y Z   X E.{.L.Q.!.R.R.Q.R.L.L.L.L.L.L.L.L.L.L.L.L.L.L.L.L.L.L.L.L.L.",
"L.L.L.L.L.L.L.L.L.L.L.L.L.L.L.L.Q.Q.L.L.I.L.I.I.H.G.!.S.G.+X3.% = Z T 8 O < b L L L m m V V P b O o   I Y R + = U.S.Q.P.F._.~.R.Q.L.L.L.L.L.L.L.L.L.L.L.L.L.L.L.L.L.L.L.L.",
"L.L.L.L.L.L.L.L.L.L.L.L.L.L.L.L.Q.Q.Q.Q.I.I.I.I.!.F.G.{.}.L.    F D s . 3 P I L L I P m V v b F P b O . F B b . : _._._.T.T.T.R.Q.L.L.L.L.L.L.L.L.L.L.L.L.L.L.L.L.L.L.L.L.",
"L.L.L.L.L.L.L.L.L.L.L.L.L.L.L.L.Q.Q.E.H.I.I.I.I.L.F.U.G.U.X k T.( # n F n M m m L m L m V V V V V V V * = % _ r.a = '.G.R.XXT.oXQ.L.L.L.L.L.L.L.L.L.L.L.L.L.L.L.L.L.L.L.L.",
"L.L.L.L.L.L.L.L.L.L.L.L.L.L.L.L.Q.Q.E.!.E.!.I.I.L.{.S.S.: F 3X4X+.f O.D p D M I 3 * D L b 9 V s O d B % . & >.3XZ.: ) G.oX!.T.T.Q.L.L.L.L.L.L.L.L.L.L.L.L.L.L.L.L.L.L.L.L.",
"L.L.L.L.L.L.L.L.L.L.L.L.L.L.L.L.E.Q.Q.E.E.E.I.L.F.G.K.6 p G.AX3Xq.1.O.. f 2 * n 2 O T 0 6 V F N . p B A # ~ (.uXdXq.= '.G.G.+XT.I.L.L.L.L.L.L.L.L.L.L.L.L.L.L.L.L.L.L.L.L.",
"L.L.L.L.L.L.L.L.L.L.L.L.L.L.L.L.Q.Q.E.E.E.Q.L.H.Q.P.K.. 6 N.uX3X#X X;._ p.f h D M n * . @.8.B 7 . % >.A.) 1.4X4X(.f.a : U.P.T.E.I.L.L.L.L.L.L.L.L.L.L.L.L.L.L.L.L.L.L.L.L.",
"L.L.L.L.L.L.L.L.L.L.L.L.L.L.L.L.Q.L.Q.E.!.E.H.L.P.H.<.  6 n -.3XMX4X) (.uX/.`.@.A <.  o.yX`.d :   l `.uX'.<.v.C.C.;.% . U.Q.~.E.L.L.L.L.L.L.L.L.L.L.L.L.L.L.L.L.L.L.L.L.L.",
"L.L.L.L.L.L.L.L.L.L.L.L.L.L.L.L.L.P.H.L.L.L.Q.T.~.S.1   2 2 d @.D.3.G 9XhXfXgXl z 2X(.}..X].d 2 . C >XdX7X[ q @.'.;..   L.{._.G.L.L.L.L.L.L.L.L.L.L.L.L.L.L.L.L.L.L.L.L.L.",
"L.L.L.L.L.L.L.L.L.L.L.L.L.L.L.L.L.L.P.L.L.L.Q.Q.R.e.  . = s B 7 Z w 6 `.hXhX_.  a 8XmX>X{ (.A 2 . 6 j.8XD.k   2 1.8.F   *.U.oX_.L.L.L.L.L.L.L.L.L.L.L.L.L.L.L.L.L.L.L.L.L.",
"L.L.L.L.L.L.L.L.L.L.L.L.L.L.L.L.L.L.P.P.H.H.Q.Q.T.V.. + s s D B w @ 5 ( q.p.G   : <.g.( ~ h.D - $ e ) 0.K : $ # D  .L + 7 {.F.G.L.L.L.L.L.L.L.L.L.L.L.L.L.L.L.L.L.L.L.L.L.",
"L.L.L.L.L.L.L.L.L.L.L.L.L.L.L.L.L.L.P.P.H.Q.Q.!.~.%.  1 * 9 U D w @ b b % = # # % 9 9 O T ) . & ` y $ f 2 U g # 9 b 3 ,   R !.~.L.L.L.L.L.L.L.L.L.L.L.L.L.L.L.L.L.L.L.L.L.",
"L.L.L.L.L.L.L.L.L.L.L.L.L.L.L.L.L.L.L.H.L.H.Q.!.R.  O 6   n U n . s P m B $ g i # m 3 3 v s # $ -Xu.% = k F g # v 8 < ,   7 J.[.H.L.L.L.L.L.L.L.L.L.L.L.L.L.L.L.L.L.L.L.L.",
"L.L.L.L.L.L.L.L.L.L.L.L.L.L.L.L.L.L.L.L.H.!.Q.Q.T.  + = . n ( D * p  .I - # a.} . m v m N p $ ^ wX,Xu . N Z M 3 < , < ,   z.^.J.L.L.L.L.L.L.L.L.L.L.L.L.L.L.L.L.L.L.L.L.L.",
"L.L.L.L.L.L.L.L.L.L.L.L.L.L.L.L.L.L.L.L.I.I.E.E.~.+     . n T 1 * b D 3 # e a.' . 3 o V k . r p.u.n.E # 7 P R b o < 1 O @ e.OX@XL.L.L.L.L.L.L.L.L.L.L.L.L.L.L.L.L.L.L.L.L.",
"L.L.L.L.L.L.L.L.L.L.L.L.L.L.L.L.P.P.L.L.I.I.E.E.T.@ . . 1 T v . , V h # _ k.).:.* o 9 b = % n.,Xn.n.).1.+ 5 I I 5 @ + .   q ^.[.H.L.L.L.L.L.L.L.L.L.L.L.L.L.L.L.L.L.L.L.L.",
"L.L.L.L.L.L.L.L.L.L.L.L.L.L.L.L.L.L.Q.L.I.I.E.H.E.@ @ . B Y s . @ 4 # u 2..X6Xs.. 1 V #   b.VXkX).].:Xp.f * n I Z a = . O o 8 F.Q.L.H.!.L.F.Q.L.L.L.L.L.L.L.L.L.L.L.L.L.L.",
"L.L.L.L.L.L.L.L.L.L.L.L.L.L.L.L.F.!.S.!.H.E.I.[.B.+   + B Y n . @ + a ^ z { ^ ^ # n   a f.BX=X>.d Q / ;.;.- O l S H a O   o   ..L.H.Q.!.F.!.!.P.L.L.L.L.L.L.L.L.L.L.L.L.L.",
"L.L.L.L.L.L.L.L.L.L.L.L.L.L.L.L.Q.!.F.L.^.!.E.J.0     = b T B   O # 2 z ^ z   . # 3 #.}.BX(.l % r l ! ! M g . a l S - . o N B . ; F.Q.L.!.F.L.L.L.L.L.L.L.L.L.L.L.L.L.L.L.",
"L.L.L.L.L.L.L.L.L.L.L.L.L.L.L.L.L.S.H.!.!.E.E.q   +   o N T b # $ h h .   .   . h M gXBX2XH i u . # . 2 # h # > l J = O o X._.q.@.!.!.F.L.G.F.[.L.L.L.L.L.L.L.L.L.L.L.L.L.",
"L.L.L.L.L.L.L.L.L.L.L.L.L.L.L.L.L.L.L.P.F.e.@   @     + C Y 6 # t Q d.@.  @ % t p.} d.c.K 1.g $ . R q x.;.t # . k P ,   o j g._._.F.S.!.Q.L.L.F.L.L.L.L.L.L.L.L.L.L.L.L.L.",
"L.L.L.L.L.L.L.L.L.L.L.L.L.L.L.L.Q.G.L.L.R     Z Z     @ s F 9 # ] l.hXZ.@ ; . +.MX{ $ z X 8Xv.# : J [ iX:X:.$ . N Y 4 o o   s R.L.+XL.!.!.F.!.L.L.L.L.L.L.L.L.L.L.L.L.L.L.",
"L.L.L.L.L.L.L.L.L.L.L.L.L.L.L.L.L.L.G.L.z.j e.J.|     + N F 6 # ` jXAXyX6 X % |.vX^ b.VXu 8XgXH     b.MXhXl.$ . V I 4       + T.!.B.L.L.F.{.P.H.L.L.L.L.L.L.L.L.L.L.L.L.L.",
"L.L.L.L.L.L.L.L.L.L.L.L.L.L.L.L.G.!.H.P.I.I.J.^.    @   8 Y 0 . ` :XfXmX$Xl ,.CXiXx 0XvX[ n.BX%XJ $.hXwX5Xt.t 1 V b ,     +   0 F.{.F.!.L.L.F.L.L.L.L.L.L.L.L.L.L.L.L.L.L.",
"L.L.L.L.L.L.L.L.L.L.L.L.L.L.L.L.L.Q.P.P.Q.G.P.q         + J k . r :.).eXxXgXmXiX$.z.kXvXrXx .XvXiXVXkX-Xa.i # : Z 5     5 9.j N L.L.L.L.L.L.L.L.L.L.L.L.L.L.L.L.L.L.L.L.L.",
"L.L.L.L.L.L.L.L.L.L.L.L.L.L.L.L.L.L.F.!.F.P.W.X ; C     @ 0 J X . $ W M.=XdX9X+.$.vXkXrXvX}.> (.rX0X-Xy.i $ $ d a     @ + F.&.w L.L.L.G.L.L.L.L.L.L.L.L.L.L.L.L.L.L.L.L.L.",
"L.L.L.L.L.L.L.L.L.L.L.L.L.L.L.L.F.!.Q.L.F.{.F.  X.7.+       k Z . g ' W i u a c.vXvXrXkXvXvX=X^ u u E _ 2.g % 7 X       o E.F.%.Q.L.L.L.L.L.L.L.L.L.L.L.L.L.L.L.L.L.L.L.L.",
"L.L.L.L.L.L.L.L.L.L.L.L.L.L.L.L.L.H.!.L.P.F.!.B.r...+     @ + 7 . g l.wXkX0X2XxXvXrXwXwXrXcXvX0X6XfXzXfX_ # %     @ .   5 ^.~.E.!.U.Q.L.L.L.L.L.L.L.L.L.L.L.L.L.L.L.L.L.L.",
"L.L.L.L.L.L.L.L.L.L.L.L.L.L.L.L.F.L.L.F.!.!.F.P.w 9.B.q @       . # r j.iXNXNXxXkXkXwX6XkXkXkXvXMXxXsX_ # . ;   . o @ N *...^.T.Q.L.L.L.H.G.L.F.L.L.L.L.L.L.L.L.L.L.L.L.L.",
"L.L.L.L.L.L.L.L.L.L.L.L.L.L.L.L.L.L.F.!.!.F.L.!.7.q !.H.          . $ . & f.>XfXkXkXkXkXxXvXkXeX X;.$ # . .   + o o I XXT...T.XX!.W.L.L.L.L.L.L.L.L.L.L.L.L.L.L.L.L.L.L.L.",
"L.L.L.L.L.L.L.L.L.L.L.L.L.L.L.L.F.{.L.!.S.L.{.F.!.!.Q.H.8 w 7.    O     . # e / .XvXcXMXvXzX2.i $ # # # .     &.6.  ..T.E.T.+X~.!.!.!.L.L.L.L.L.L.L.L.L.L.L.L.L.L.L.L.L.L.",
"L.L.L.L.L.L.L.L.L.L.L.L.L.L.L.L.!.G.F.!.L.!.F.L.F.Q.F.Q.  9.P...  o @ 6 ; . # # r t.m.u.s.{ # # # $ f %   8.w J.T.O ..T.@X~.T.Q.Q.L.L.L.L.L.J.H.L.L.L.L.L.L.L.L.L.L.L.L.L.",
"L.L.L.L.L.L.L.L.L.L.L.L.L.L.L.L.L.L.L.L.L.L.L.L.W.F.!.L.H.N Q.~.v o N ,.[ X X   $ e y y e # . . # G <.#.X w J.J.&.Y !.@X[.J.I.I.L.L.L.L.L.L.L.L.L.L.L.L.L.L.L.L.L.L.L.L.L.",
"L.L.L.L.L.L.L.L.L.L.L.L.L.L.L.L.L.L.L.L.L.L.L.L.P.!.L.G.!.F.7 R.XX  [ $.|.7XK   $ i t.t.' e .   Z.uX`.,.w   [.[.+ W.{.I.[.J.J.I.L.L.L.L.L.L.L.L.L.L.L.L.L.L.L.L.L.L.L.L.L.",
"L.L.L.L.L.L.L.L.L.L.L.L.L.L.L.L.L.L.L.L.L.L.L.L.L.!.F.!.Q.{.L.Q.C J >.c.0XBXlX( $ a.l.M.m.$ . @XCXgXZ.d.3.; 9.[.{.!.J.K.S.[.S.I.L.L.L.L.L.L.L.L.L.L.L.L.L.L.L.L.L.L.L.L.L.",
"L.L.L.L.L.L.L.L.L.L.L.L.L.L.L.L.L.L.L.L.L.L.L.L.H.G.!.L.F.L.L.F.. >.(. X}.'.nXgX:.' 5X5Xy.^ #XNX7X$X`.}.Z.q   I.F.J.G.G.K.K.{.S.L.L.L.L.L.L.L.L.L.L.L.L.L.L.L.L.L.L.L.L.L.",
"L.L.L.L.L.L.L.L.L.L.L.L.L.L.L.L.L.L.L.L.L.L.L.L.!.F.L.F.L.F.L.!.  a f & f { h.4XhXN.i t ^ dXBX'.8.[ H g G % Z I.!.H.G.!.K.[.J.S.L.L.L.L.L.L.L.L.L.L.L.L.L.L.L.L.L.L.L.L.L.",
"L.L.L.L.L.L.L.L.L.L.L.L.L.L.L.L.L.L.L.L.L.L.L.L.F.!.H.!.L.W.{.S.A.. # #   = % K ;XsX# . $XhXw.:   X # # # # G.L.J.!.F.L.[.S.S.[.L.L.L.L.L.L.L.L.L.L.L.L.L.L.L.L.L.L.L.L.L.",
"L.L.L.L.L.L.L.L.L.L.L.L.L.L.L.L.L.L.L.L.L.L.L.L.L.Q.!.S.!.L.P.Q.w.. Z.'.=.X   O N.oXO : 3.}.s     7 Z.;X;.. !.F.T.T.XXQ.L.T.[.E.L.L.L.L.L.L.L.L.L.L.L.L.L.L.L.L.L.L.L.L.L.",
"L.L.L.L.L.L.L.L.L.L.L.L.L.L.L.L.L.L.L.L.L.L.L.L.G.W.Q.L.L.L.L.B.; g.gXyX( N c   M I 9 T k C     q Z j.mX3Xf   [.E.E.P.Q.L.E.E.J.Q.L.L.L.L.L.L.L.L.L.L.L.L.L.L.L.L.L.L.L.L.",
"L.L.L.L.L.L.L.L.L.L.L.L.L.L.L.L.R.W.R.W.L.K.K.K.U.L.!.H.W.Q.G.. K 8XuXuXV @ C Y 8 8 L c 8 j J R N , = $XmX(.* &.~.T.!.!.G.U._.Q.Q.L.L.L.L.L.L.L.L.L.L.L.L.L.L.L.L.L.L.L.L.",
"L.L.L.L.L.L.L.L.L.L.L.L.L.L.L.L.Q.Q.U.U.K.G.K.K.G.!.H.!.P.U._.>.b.8X'.x.n   9.nXpXe.@ 5 8 yXSXSXB.o   s.sXsX=.B T.XXF.L.U._.F.R.Q.L.L.L.L.L.L.L.L.L.L.L.L.L.L.L.L.L.L.L.L.",
"L.L.L.L.L.L.L.L.L.L.L.L.L.L.L.L.Q.Q.U.W.K.U.K.K.!.F.Q.P.L._.  <.zX7X>.2 = g.nXCXZXG.  J pXCXH.!.bXT.6 z s.'.@X ., Q.!.S._.S.W.R.Q.L.L.L.L.L.L.L.L.L.L.L.L.L.L.L.L.L.L.L.L.",
"L.L.L.L.L.L.L.L.L.L.L.L.L.L.L.L.Q.Q.U.U.K.G.K.U.^.+XT.Q.L.'.~ $XcX2X+..   &XZX7XVX{.@ | AXyX0 4 SXnXs % 1.f.`.@.5 G.L.G.G.G.T.XXQ.L.L.L.L.L.L.L.L.L.L.L.L.L.L.L.L.L.L.L.L.",
"L.L.L.L.L.L.L.L.L.L.L.L.L.L.L.L.L.L.U.U.L.L.L.Q.E.Q.U.G.3.#.D.dX8X|.% : H.lXB.R ZXF.  P  .v v *XZXpX0 . q.v.`.%X3.X '.K.S.{.Q.F.Q.L.L.L.L.L.L.L.L.L.L.L.L.L.L.L.L.L.L.L.L.",
"L.L.L.L.L.L.L.L.L.L.L.L.L.L.L.L.L.L.W.U.L.L.Q.Q.~.F.U.U.: H xXcX8Xc.. s ZXaX@ Z CX^.  V o I tXZXaX%.s   >.9XgXmXw.  G.{.G.S.XX~.Q.L.L.L.L.L.L.L.L.L.L.L.L.L.L.L.L.L.L.L.L.",
"L.L.L.L.L.L.L.L.L.L.L.L.L.L.L.L.L.L.L.L.L.U.Q.Q.T.!.R.G.% { |.#X2Xf.. B ZXAX%XpXCXbXXX@ 6.aXZXV.| o 8 . @.uXuX3Xd.a r.D.L.XXT.E.L.L.L.L.L.L.L.L.L.L.L.L.L.L.L.L.L.L.L.L.L.",
"L.L.L.L.L.L.L.L.L.L.L.L.L.L.L.L.L.L.L.L.U.U.Q.Q.T.!.Z.r.> c.>.^ 0.)   s B.*X&XaXAXnXr.O nXZXe.    v C . f w.<.>.D.z % {.F.T.~.T.Q.L.L.L.L.L.L.L.L.L.L.L.L.L.L.L.L.L.L.L.L.",
"L.L.L.L.L.L.L.L.L.L.L.L.L.L.L.L.L.L.L.L.L.L.Q.Q.F.!.G.k K b.b.s.^ .   b c c 0 9.ZX*X= U ZXZX&X$X&XyXC   . M 4.N.C.) a D.!.P.E.T.L.L.L.L.L.L.L.L.L.L.L.L.L.L.L.L.L.L.L.L.L.",
"L.L.L.L.L.L.L.L.L.L.L.L.L.L.L.L.L.L.L.L.L.L.Q.Q.W.L.S : 4. X;X/.4.@.6 s 0 8   c R.X.  6 V.Z.U.%XyX@XF = d <./.#X X'.#.6 Q.H.!.E.L.L.L.L.L.L.L.L.L.L.L.L.L.L.L.L.L.L.L.L.L.",
"L.L.L.L.L.L.L.L.L.L.L.L.L.L.L.L.Q.H.L.L.L.L.L.L.W.W.X F }.#Xp.(.8Xb.@ ; L b C V m d F n n d F l s C B . ( 3X3Xj. XuX$.  B.~.F.~.L.L.L.L.L.L.L.L.L.L.L.L.L.L.L.L.L.L.L.L.L.",
"L.L.L.L.L.L.L.L.L.L.L.L.L.L.L.L.Q.Q.L.L.L.L.L.L.F.W.: F D.q.'.hX%X[ w ; C 1 N.&XN.(.].].j.x.b.c.>   B * D Z.hX4XZ.v.<.s !.F.~.Q.L.L.L.L.L.L.L.L.L.L.L.L.L.L.L.L.L.L.L.L.L.",
"L.L.L.L.L.L.L.L.L.L.L.L.L.L.L.L.Q.Q.L.L.K.K.K.K.W.W.X 6 #./.hX4X) . 6.! * 0.9XzXwXqXeXdXqX8XeXdX(.a . g. .f C.hX>Xq.~ 6 R.~.R.Q.L.L.L.L.L.L.L.L.L.L.L.L.L.L.L.L.L.L.L.L.L.",
"L.L.L.L.L.L.L.L.L.L.L.L.L.L.L.L.Q.Q.L.L.K.K.K.K.L.F.6 #  .#X].;.f 2 =.U G gX9X=X,X6X6X-X,X6X=X<XcX0.. g.@.2 M j.;X0.:   ~.P.U.F.L.L.L.L.L.L.L.L.L.L.L.L.L.L.L.L.L.L.L.L.L.",
"L.L.L.L.L.L.L.L.L.L.L.L.L.L.L.L.Q.Q.I.I.K.K.K.K.I.'.U.: d <.#.G H . *  .#XdX6X,X-X-X6X1X6X1X>X>X9X2X4.p s d M ! >.;.p X.G.G.{.G.U.L.L.L.L.L.L.L.L.L.L.L.L.L.L.L.L.L.L.L.L.",
"L.L.L.L.L.L.L.L.L.L.L.L.L.L.L.L.L.I.I.K.K.K.K.I.I.S.K.B.. n ) _ * # d A.dXsX9X,X6X5X-X:X1X1X<X>X>XsX;XT = * ! O.) 2 f G.W.G.G.K.U.L.L.L.L.L.L.L.L.L.L.L.L.L.L.L.L.L.L.L.L.",
"L.L.L.L.L.L.L.L.L.L.L.L.L.L.L.L.L.L.L.L.L.G.L.L.I.L.F.U.( + B N . = -.d.|.;X).:XqX<X1X1X6X9X<X1X2X9XA.>.A # s D b   ~.Q.Q.E.F.K.K.L.L.L.L.L.L.L.L.L.L.L.L.L.L.L.L.L.L.L.L.",
"L.L.L.L.L.L.L.L.L.L.L.L.L.L.L.L.L.L.L.L.L.L.L.L.H.L.{.F.!.3.;   . f <.O.q.1.>././.(.9X6X;X)..X1X;Xj.>.;.o.- .   N OXT.P.!.Q.K.[.L.L.L.L.L.L.L.L.L.L.L.L.L.L.L.L.L.L.L.L.L.",
"L.L.L.L.L.L.L.L.L.L.L.L.L.L.L.L.L.L.L.L.L.L.L.L.L.F.L.!.S.Q.!.5   6 #.<.;.:.>.:.} 4./.m.j.y.p.b.p.} +.<.~ -   *.E.~.J.J.L.H.I.S.L.L.L.L.L.L.L.L.L.L.L.L.L.L.L.L.L.L.L.L.L.",
"L.L.L.L.L.L.L.L.L.L.L.L.L.L.L.L.L.L.L.L.L.L.L.L.F.!.F.L.[.F.F.L.  = a T  . .;. .{ +.) [ ) ) o.! ~ ~ { ! s   9 G.E.E.E.[.F.S.{.L.L.L.L.L.L.L.L.L.L.L.L.L.L.L.L.L.L.L.L.L.L.",
"L.L.L.L.L.L.L.L.L.L.L.L.L.L.L.L.L.L.L.L.L.L.L.L.!.P.F.{.F.I.L.L.5       - . - = % = . X . * 1 . # # .   . X W.Q.K.S.[.J.Q.!.P.L.L.L.L.L.L.L.L.L.L.L.L.L.L.L.L.L.L.L.L.L.L.",
"L.L.L.L.L.L.L.L.L.L.L.L.L.L.L.L.L.L.L.L.L.L.L.L.F.L.!.L.F.F.!.L.Q.+   7 X : 6 = %   . O o . 1 b 2 2 - * . 8.P.F.K.{.[.B.!.F.G.L.L.L.L.L.L.L.L.L.L.L.L.L.L.L.L.L.L.L.L.L.L.",
"L.L.L.L.L.L.L.L.L.L.L.L.L.L.L.L.L.L.L.L.L.L.L.L.!.L.F.L._.F.!.L.E.B.+ 2 s p n s n 6 1 1 1 m m b n = b X &.P.Q.!.F.F.F.!.!.W.G.R.L.L.L.L.L.L.L.L.L.L.L.L.L.L.L.L.L.L.L.L.L.",
"L.L.L.L.L.L.L.L.L.L.L.L.L.L.L.L.L.L.L.L.L.L.L.L.P.L.!.F.H.L.L.L.Q.!.=   .   o . B V.r.7.e.=.<   o o . o R.P.H.H.I.J.I.H.G.!.G.!.L.L.L.L.L.L.L.L.L.L.L.L.L.L.L.L.L.L.L.L.L.",
"L.L.L.L.L.L.L.L.L.L.L.L.L.L.L.L.L.L.L.L.L.L.L.L.L.L.L.L.L.L.L.H.T.~.1 .   , . . X.[.T.E.~.^.4   o O o o F.F.E.Q.H.J.K.K.L.L.L.U.L.L.L.L.L.L.L.L.L.L.L.L.L.L.L.L.L.L.L.L.L.",
"L.L.L.L.L.L.L.L.L.L.L.L.L.L.L.L.L.L.L.L.L.L.L.L.L.L.L.L.L.L.L.L.T.XX@ o v 0 +   Z +XE.P.T.E.@ @ , b   5 ^.~.P.E.L.I.K.K.L.L.L.L.L.L.L.L.L.L.L.L.L.L.L.L.L.L.L.L.L.L.L.L.L.",
"L.L.L.L.L.L.L.L.L.L.L.L.L.L.L.L.L.L.L.L.L.L.L.L.L.L.L.L.L.L.L.L.R.R.X * 9 2 6 . C F.G.L.T.F.X X 8 5 c + V.T.R.R.L.L.L.L.L.L.L.L.L.L.L.L.L.L.L.L.L.L.L.L.L.L.L.L.L.L.L.L.L.",
"L.L.L.L.L.L.L.L.L.L.L.L.L.L.L.L.L.L.L.L.L.L.L.L.L.L.L.L.L.L.L.L.R.G.  O 1 * 2 9 B.!.!.L.!.J.( @ 5 o @ + P.F.!.P.L.L.L.L.L.L.L.L.L.L.L.L.L.L.L.L.L.L.L.L.L.L.L.L.L.L.L.L.L.",
"L.L.L.L.L.L.L.L.L.L.L.L.L.L.L.L.L.L.L.L.L.L.L.L.L.L.L.L.L.L.L.L.L.{.@   B 5   N _.F.L.J.J.~.e.@   q ;   F.L._.R.L.Q.Q.Q.L.L.K.K.L.L.L.L.L.L.L.L.L.L.L.L.L.L.L.L.L.L.L.L.L.",
"L.L.L.L.L.L.L.L.L.L.L.L.L.L.L.L.L.L.L.L.L.L.L.L.L.L.L.L.L.L.L.L.I.L.  + %. .X o P.Q.!.F.F.T.r.  k r.R   V.S.G.R.Q.Q.Q.Q.L.L.K.I.L.L.L.L.L.L.L.L.L.L.L.L.L.L.L.L.L.L.L.L.L.",
"L.L.L.L.L.L.L.L.L.L.L.L.L.L.L.L.L.L.L.L.L.L.L.L.L.L.L.L.L.L.L.L.L.L.  T 8.=.0 C F.J.B.B.T.+X=.  ..w.7.q Z W.W.R.Q.R.R.R.L.L.L.G.L.L.L.L.L.L.L.L.L.L.L.L.L.L.L.L.L.L.L.L.L.",
"L.L.L.L.L.L.L.L.L.L.L.L.L.L.L.L.L.L.L.L.L.L.L.L.L.L.L.L.L.L.L.L.L.G.X F.3Xe.  5 V.T.E.F.+X@X|   ,.}.iXZ   !.G.R.R.~.~.R.L.L.L.L.L.L.L.L.L.L.L.L.L.L.L.L.L.L.L.L.L.L.L.L.L.",
"L.L.L.L.L.L.L.L.L.L.L.L.L.L.L.L.H.L.L.L.L.L.L.L.L.Q.T.Q.H.T.^.L.V.  B.A.V.w.-.  o %.%.&.&.b O 6 <.r.r.w.7 Z B.S.H.!.F.E.~.P.~.L.L.L.L.L.L.L.L.L.L.L.L.L.L.L.L.L.L.L.L.L.L.",
"L.L.L.L.L.L.L.L.L.L.L.L.L.L.L.L.G.L.L.L.L.L.L.H.e...5 N 7.0       T pXZXAXAX@Xv o     O @   o R lXCXAXBXG.; @ X 5 %.6.7 N 8.T.G.L.L.L.L.L.L.L.L.L.L.L.L.L.L.L.L.L.L.L.L.L.",
"L.L.L.L.L.L.L.L.L.L.L.L.L.L.L.L.L.L.L.L.L.L.L.L...+ ;           X [ *XyXtXyX@X8.,   @       V N.$X7XyXlXx.;         N N 8 7 U.!.L.L.L.L.L.L.L.L.L.L.L.L.L.L.L.L.L.L.L.L.L.",
"L.L.L.L.L.L.L.L.L.L.L.L.L.L.L.L.L.L.L.L.L.L.L.L.F.L.!.!.E.7.      . V F n D R o               0 k 7 ; k X       ..E.T.E.~.T.W.F.L.L.L.L.L.L.L.L.L.L.L.L.L.L.L.L.L.L.L.L.L.",
"L.L.L.L.L.L.L.L.L.L.L.L.L.L.L.L.L.L.L.L.L.L.L.L.F.Q.Q.!.P.^.XXF.L.g.0 T  .C P Y &.6.7.*.X.&.7.%.K G [ [ B.G.!.S.!.F.!.T.H.Q.W.U.L.L.L.L.L.L.L.L.L.L.L.L.L.L.L.L.L.L.L.L.L."
};
