/* XPM */
static char *xpm_[] = {
/* columns rows colors chars-per-pixel */
"85 85 124 2 ",
"   c #040404",
".  c #070708",
"X  c #080709",
"o  c #0B0B0D",
"O  c #0E0E11",
"+  c #100F11",
"@  c #121215",
"#  c #161619",
"$  c #19171A",
"%  c #1C1B1D",
"&  c #1E1D21",
"*  c #201F22",
"=  c #1F2023",
"-  c #232225",
";  c #262529",
":  c #28272B",
">  c #27282D",
",  c #2A2A2D",
"<  c #272930",
"1  c #2E2D31",
"2  c #302F33",
"3  c #2F3034",
"4  c #323235",
"5  c #353539",
"6  c #38373B",
"7  c #37383C",
"8  c #3A3A3D",
"9  c #3D3D41",
"0  c #403F43",
"q  c #3F4044",
"w  c #424245",
"e  c #454549",
"r  c #48474B",
"t  c #47494C",
"y  c #4A4A4D",
"u  c #464953",
"i  c #4D4E51",
"p  c #504F53",
"a  c #4E5054",
"s  c #515256",
"d  c #555659",
"f  c #58575B",
"g  c #57585C",
"h  c #595A5D",
"j  c #535A62",
"k  c #5C5D61",
"l  c #605F63",
"z  c #5E6164",
"x  c #5F6369",
"c  c #616265",
"v  c #646569",
"b  c #68676A",
"n  c #67696C",
"m  c #696A6D",
"M  c #6B6B70",
"N  c #6C6E71",
"B  c #6E6F71",
"V  c #6F6F71",
"C  c #6A6E79",
"Z  c #6E7072",
"A  c #6E7174",
"S  c #717173",
"D  c #717273",
"F  c #707174",
"G  c #727175",
"H  c #727375",
"J  c #707276",
"K  c #737477",
"L  c #747475",
"P  c gray46",
"I  c #757777",
"U  c #727378",
"Y  c #737479",
"T  c #737678",
"R  c #767678",
"E  c #75777B",
"W  c #777979",
"Q  c #76797B",
"!  c #787879",
"~  c #78797B",
"^  c #797A7B",
"/  c #7A7A7B",
"(  c #797B7F",
")  c #7B7C7D",
"_  c #7A7C7F",
"`  c #7B7E7F",
"'  c #7C7C7D",
"]  c #7E7D7E",
"[  c #777B80",
"{  c #7C7E81",
"}  c #7C7D82",
"|  c #7E7F82",
" . c #7E8080",
".. c #7F8183",
"X. c #7E8184",
"o. c #7F8390",
"O. c #818283",
"+. c #838283",
"@. c #818384",
"#. c #838385",
"$. c #828486",
"%. c #838488",
"&. c #838689",
"*. c #83878B",
"=. c #848688",
"-. c #868789",
";. c #86898C",
":. c #898A8C",
">. c #898C8E",
",. c #8C8E91",
"<. c #8E9193",
"1. c #8F959C",
"2. c #919395",
"3. c #939699",
"4. c #96999B",
"5. c #999C9D",
"6. c #9B9EA1",
"7. c #969EAF",
"8. c #9EA1A2",
"9. c #9DA0AA",
"0. c #A1A4A5",
"q. c #A3A6A9",
"w. c #A6A9AA",
"e. c #A9ABAC",
/* pixels */
"y 6 $ O r s c Z Z m s y h / R ] ] P P P P W P P P W W W  . .P c V P r @ s  .P ] P W P D W  .'  .+.P P L W ] ' L D L b d w   r c m b L  . . . .Z  . . . .W W L B b b @ % e ",
";.} t > L #.L Y O.>./ c c h v b b P P  . .:.O.W  . . .W P b V b W  .c , h b b b b d c b c h c  .b b m b b c b D D D b ' D , k b b W L Z D L L L b m Z m L W _ )  . .1 1 O.",
"w d 1 ; y w w y r s f 9 r d c b b b b h c b c b b b b c f f s d p s r , y s r y s y s s d d s s y s d d s f f s s p r e w - 8 e t y y p s s g s g h c c b b c h t g 3 - e ",
"9 e 1 - 6 9 0 w w w w 8 8 w w e w w w h s w w w w w r w r w r y r y w - 8 6 0 w w w r r p p p w w e r s p s p p r r e 8 0 - 6 w w w w r y y t t s d a e 0 0 0 e w h 3 , 4 ",
"1 7 , * 2 5 6 8 8 8 8 6 6 9 9 8 0 6 8 8 w s y 8 0 w w 0 0 0 6 6 w r w - 6 6 6 6 6 8 w 0 w t w t y s e 0 8 0 w 0 0 0 8 2 6 * 6 6 8 0 0 0 w t y y r 6 9 6 8 8 8 8 w 6 : - 4 ",
"7 7 , % 2 4 4 5 5 6 6 6 8 8 6 6 4 4 6 6 6 8 8 r r 0 6 6 6 6 r w w 0 w % 4 4 4 6 4 4 4 0 w 4 8 6 6 6 4 8 4 2 6 6 6 8 8 8 6 $ , 2 4 0 0 r w 8 2 2 4 , 4 4 4 5 4 0 6 0 , * , ",
"< 4 : % : , 4 6 8 6 : 2 2 2 1 2 2 2 2 2 4 4 4 6 6 6 8 6 0 0 4 0 8 w 6 $ 4 4 4 4 4 4 4 4 4 1 4 3 4 4 4 4 6 6 w 8 6 4 4 4 8 * 6 0 8 , , , , 1 2 2 2 2 , 4 , 4 5 4 4 8 ; * , ",
"< 4 ; % 1 1 , , , 1 ; , : , , , , , : , 4 4 4 4 1 , 4 , , 2 , , , , 6 * , , 1 4 2 1 , 4 , 4 3 3 2 2 4 2 , 4 4 , 2 2 2 2 2 % : : , , , , , , , 1 , , , , , , 1 4 , 8 * % : ",
", 4 : $ , , : : , , - , - : : : ; , - ; , , 4 4 , , , , , , , , , , 6 - , 3 , 3 , , , , , , , , , 1 , , , : , , : : , 2 2 * , : : - : , , - : : , : : , , : , , , 5 - % 4 ",
", 4 , $ * - - - - - % - - : * - ; , - : ; ; ; ; , , 1 , - - , , , , 6 % 3 , ; - , 1 , , , , - , 1 3 3 : - , , : , , , 2 4 * , , : - - , - , : : : : - , : , , , : , ; , 2 ",
"4 2 + + $ - 4 - 6 8 0 0 6 2 , $ $ * 2 2 , 4 6 2 % @ @ - 6 8 8 6 0 8 4 6 6 8 q q 6 4 6 6 8 = - 3 @ @ @ : 3 4 : : 4 8 0 0 r r r w w 5 3 8 8 4 4 % + + $ % , 4 6 4 , , 0 w 4 ",
"<.<.D f V  .:.2.:.-.2.2.2.2.O.V , b P +.:.2.+.:.-.h - P 2.2.4.0.5.4.<.e.0.4.0.:.-.2.5.5.2.4.8.:. ., b 2.>.:.,.<.2.5.0.e.0.e.e.0.0.<.<.4.0.5.5.W $ p :.2.4.5.2.4.5.w.w.w.0.",
"h D p 4 b c c c c c b P L / ] P , p s h h s h c c y , i L Z D h h b r y s a s B c c m P d c D D D 3 4  .O.<.v Z v v c c l h b L b c c b O.<.L 8 , 2 p d c ] _ D D D D m D ",
"w w w r r r y s f p p p p p r r , w p r s i y s r w 4 4 8 8 8 r e e e t t e e a p s a a a y r r 0 6 1 e 8 w e s c c a g h h h d d s c c r r s 0 , , 0 h h 0 w e r r w r w ",
"0 8 0 4 8 0 0 r r r 0 w w r w 0 , 4 8 6 w w r r w 6 - 6 w 6 8 8 8 w 0 e w w w w r y y w r t r w 8 8 , 0 8 9 9 w w e b h y s s p p p r 0 w r r w : : 6 5 8 0 9 9 9 0 0 9 0 ",
"8 0 4 4 6 6 8 4 8 0 0 r r r 8 4 - 4 6 6 4 6 6 w w 4 - 3 , , 8 8 8 6 6 6 6 8 8 w 6 8 6 y w r r 8 1 , - , 4 9 8 8 9 9 8 w h a y i w w 9 0 0 w r 8 - : 2 2 3 8 8 8 8 8 8 8 4 ",
", 4 , 2 4 4 4 4 4 8 4 4 8 4 8 6 * , , 2 2 2 4 4 6 - - , 1 1 4 1 3 6 5 5 7 8 7 7 5 5 5 5 5 5 5 9 6 : - 3 6 6 4 6 8 8 8 8 7 q y w 4 8 8 8 8 8 w 3 - - , 2 4 5 5 5 6 5 2 3 1 ",
", 1 , 1 , 4 4 , 1 4 8 8 , 4 4 4 % , , , 2 2 2 4 , % - , , 1 , 1 , 2 2 8 1 3 4 4 2 2 2 2 2 4 4 4 , : - 0 5 1 4 6 7 4 4 4 7 3 3 3 8 7 6 8 7 7 0 2 : - - : 1 2 1 , ; 1 5 , : ",
", , - - , , , , , , , , 4 1 , , % , , , , , , , 3 = = 3 , 1 , , , 1 , , , - > > : , , , , 2 3 1 > , - 8 , , , 3 4 4 4 4 4 3 1 1 , , 2 2 3 7 0 , * % , ; ; , 1 1 1 - : : - ",
"- 4 - - : ; ; , , , , : ; , , , % 2 , , , , , ; 7 , - 4 ; - - - ; ; , , , - > > - : : ; : , > 3 4 , 1 8 , , , , , 3 3 3 1 , , , , , - : - 4 w 3 - ; 4 - - - & & & - - : - ",
"- , - % * - - - - : - - - : - - % - , , , , , * ; > = = ; ; ; = - - - - - = = % % ; : : = ; > = , - , % - > ; ; ; ; - % % > > > - - - - & = % 7 ; , % % & % & % & - - ; - ",
"0 r s h s s p p t w q 0 o o 4 y h h y t y p f f h z h a q w t t s i w $ o < q g s y q 9 t g k z c n v h g s g z g g q 4 . = q y p y p w y y i c m c h s y a w 9 w 8 o @ , ",
"2.5.2.5.5.5.5.5.5.5.:.<.w = m <.2.2.:.2.2.2.2.5.8.0.8.5.<.4.4.5.8.5.5.6 ,  .2.4.2. .O.v 7.1.6.8.0.8.8.8.5.4.<.4.4.2.5. .= W <.-.2.5.2.5.w.8.4.5.8.w.0.0.8.5.5.0.0.2., ,  .",
"b h h c b c L h Z L h k 6 = 0 a r r i d / L D c h a a d c n n c v c s 8 > g i a g g d h a d g j z c c c c c c V D D D s , 8 Z c b s c c h h b P L h h c c c c v L y , - k ",
"w t r t a a a a a y y w 8 = 8 y r w r y y t t t t t i i i y i i i t e 7 - t t y a d d q t i a a s d d d d d g g k k n t > , y t p p s p p p s s d s s s s s d g s e , ; w ",
"y t p p t w w t w s g w 4 % 3 4 4 r w 6 q w t e e e e e e e e t w i w 5 = 8 q w t w q q q q q t t t w e t s c g t q 5 3 - , 9 9 w e r y e e r i i y t r r y i p y e , , 8 ",
"4 6 4 4 8 8 w 0 0 w 8 8 4 $ 3 3 4 4 4 w - 4 8 w q q q 8 7 q 9 q y q 7 5 % 5 9 q q 8 8 8 q q d g g h g k d y 9 9 q 7 q 5 : ; , 1 6 6 6 6 8 0 0 e w 0 w q 0 q w w q 8 , , 2 ",
"2 4 4 4 4 4 4 6 4 4 8 0 3 @ - 3 3 1 3 3 1 4 8 q 9 7 9 9 q 4 4 9 8 9 7 5 * 4 3 3 4 4 w y t q 7 7 7 8 8 8 8 8 8 8 9 8 q 8 : : 8 8 0 6 4 5 5 5 8 9 9 8 8 8 8 8 8 8 9 6 ; * , ",
", 1 3 3 1 3 4 1 8 8 3 7 , + = - 4 4 4 4 , - 3 , 3 3 3 , 3 , 3 , 1 1 5 ; * 1 1 1 4 8 4 3 3 3 4 4 4 5 7 4 4 3 4 6 4 6 8 2 ; ; 6 4 5 w 2 , 2 2 2 4 8 5 5 5 5 4 8 8 8 2 * - 2 ",
", , , 1 1 , 4 4 , , 3 3 , $ ; 3 - - - - ; , % , , , , , , , , , < ; 5 ; - 1 , 1 , , 1 1 1 1 1 3 3 3 3 , , 1 4 3 4 4 8 2 ; ; 5 , 4 4 5 , , 1 1 2 2 5 5 2 2 5 , , 4 , * - , ",
"; , , , , ; ; ; , , , 8 3 $ 3 ; - - - = = = , % , , , , > ; ; > ; - 9 , - 4 ; - > > > > , 1 1 , , , , , : 1 1 1 1 3 5 0 : , 2 , , , ; , , 1 , 2 2 , 1 1 ; ; ; , : 0 ; : 0 ",
"- - - % % % = - ; , , - ; o % ; - - = - = = - % % 3 , ; ; ; = ; - * % : # & - - - ; - , > ; = , 1 , , , : , , : - , , - % % - ; : - - * 1 2 : , % - % = : - - - - * - ; * ",
"0 6 o o 2 0 9 q r s f x z z h h d f i 1 a p r w ; X 8 d d h h g k z n C E C n x V k g d d i a 9 o $ 9 w w s s u y s z A V g a a e s i i i q w - . , e i s i t w i h l h s ",
"<.4.0 - D :.-. .K  .2.4.2.3.4.2.<.<.;.*.4.6.5.6.b # q <.0.3.<.<.<.6.6.6.8.6.5.<.<.4.8.3.5.4.8.6.4 y <.3.0.8.3.:.2.w.e.e.8.1.8.8.2.4.6.3.3.6.2.f # k 3.0.5.e.4.4.2.0.e.w.w.",
"K k 2 - , d y s k h g z c c n n v n n n c c x A 8 , 5 s s h k j j g g k h z x x v v k v x x h v 4 5 5 v t y i s s a d a Z m n a i s d c x y h 8 - 1 9 w b t i y y i p p s ",
"a y 1 * 1 9 w r y y i a i a f a a a i a d h d h 8 : , q i a d s s a i s d d d d j g j d d a a t 3 4 3 q q q t t y a d z e w t e r r y r w w r 4 - , 8 q e e e e r r w r e ",
"q e 3 = - 4 4 8 7 w a t s d w e w q q u y s s r 5 - : 8 w w t e t e e e y i a i i i i i i r i 0 , 1 4 6 8 q w w w e q 7 9 q w q w w 8 w q 9 q 3 ; : 9 9 8 9 9 0 9 0 0 8 w ",
"7 q , & , 4 5 8 w q 4 4 4 5 8 8 9 9 8 w r e 5 4 5 : : 5 8 8 8 9 9 9 q 9 w w q w w 0 9 0 0 e 0 8 ; : , 4 5 5 t y t 5 8 w w w 5 8 6 6 8 8 8 8 w 1 - ; 8 4 4 5 8 7 6 8 4 e w ",
"4 4 , - 5 1 , , , 3 3 1 4 4 4 5 4 5 9 5 4 5 6 5 5 - 1 8 5 8 8 9 9 q 9 9 9 9 8 6 9 9 0 e 9 9 8 5 ; ; , ; & 9 4 4 4 4 3 1 3 3 w t 6 5 5 5 5 5 8 1 : - 1 3 3 4 4 4 1 4 5 , , ",
"3 3 , % : , , : , , 1 , 1 1 4 4 1 4 2 1 4 5 5 5 , % : 4 4 , 4 1 1 3 4 4 5 5 4 5 5 4 4 4 5 5 5 5 - % 4 4 , & : 1 1 1 1 , , , 1 , 5 4 5 , 4 4 5 1 - ; , , 1 4 1 3 4 , , , ; ",
", 5 , % 3 , , ; ; ; , , , 1 , , , , , 1 , 2 2 2 1 - , 4 : , , , < 1 1 1 1 3 1 1 1 1 4 1 5 5 4 2 - - > ; - - # ; , > ; , , , > , , , , 3 , , 3 1 * ; 1 > ; - , - ; > ; ; - ",
"4 4 3 % 7 , ; ; ; ; , : , , ; ; ; ; ; , 1 2 2 2 5 - 4 4 , , ; ; > > > > , 1 1 < ; , < 1 2 2 1 5 : 1 > - - - * # > ; > , > ; ; > ; > > 1 1 , ; 4 - 1 1 : ; - - - - - ; - - ",
"% % % O % % - % & # - - = % $ % & * - ; - - - * > @ & % % - & - - ; ; > ; - - & $ & - - - - - * # % & & & % & @ @ - - - - = - & = = & = = = % & @ # % % - # # # $ & % & - ",
"m ~ <.Y A W Z Z Y v d y # # t n m c v F W _ ] _ X.} Q R Q _  .Q Y x 1 o u V A [ } Q #.#.;.*.;.;.;.-.$.>.:.<.[ E V n z , # a n R W W Q Q Y z C X.&.#.O.[ k C R U D a   4 d ",
"<.;.&.>.-.{ E X.$.-.2./ q , c  .$.$.>.<.-.$.-.<.,.;.#.&.&.X.,.,.;. .s , i ,.-.:.;.#.;.&.-.,.,.,.<.2.2.*.,.X.3.-.<.3.4.s = { 5.8.8.9.9.8.8.n 9.3.3.3.2.,.X.&.,.3.4.g - 6 2.",
"d z a u i i d s d d g t 5 - w t t e s Z ] _ h h g d s s i r p f i i 6 : 9 s d g k k d d f j j g j f h j k g d s d a s 8 ; t a a s g h d a h g g d g g k v k k l h 6 - , i ",
"9 q q e e t r a s s r q 8 - w w w 9 q q q a Z A f s e j c c j e 9 4 5 : 1 u y i i i i i a i a i a s s s a a a a i t t 8 ; w e i i i i i a g i i a a s a g i r y r 5 ; : 8 ",
"3 7 9 9 q w w e y w q 8 5 % ; 8 8 8 8 9 5 4 4 7 l s s 9 9 9 9 9 w 9 5 - 9 9 e 9 9 w y i i t e r r r p s i i i e t t t q % 3 q y t e t t t q e t y u s r q q w 9 t 2 , ; 6 ",
"3 7 7 7 9 7 9 9 9 w e 5 > # , , 4 4 5 4 5 5 9 9 4 7 9 7 8 8 9 9 8 8 8 % 1 5 5 5 9 4 3 4 y e e 9 8 7 8 9 9 9 e t t 9 9 , * 6 8 1 6 9 8 8 9 8 9 8 w t 8 8 7 9 9 9 w 1 * ; 4 ",
"< 3 4 7 8 7 1 4 3 5 8 1 ; $ 4 4 4 1 4 4 3 4 2 4 4 5 5 4 5 5 7 7 8 5 1 % > 5 4 5 4 1 7 9 5 5 5 w w 9 9 9 9 9 7 7 7 9 5 5 & , < 4 2 , 2 4 5 4 2 2 5 4 5 5 7 8 9 8 6 , - * 1 ",
"> > < > ; ; 1 1 , 4 7 1 1 & 1 , , 5 4 , 1 2 2 2 1 3 3 1 4 4 5 5 5 5 1 & ; 3 4 3 < 4 1 1 3 3 1 4 4 4 1 4 5 4 4 4 4 4 7 1 % 4 < 1 1 ; ; 1 2 1 2 5 5 4 4 1 1 1 1 1 2 , * * 1 ",
"= ; = = ; ; ; - ; < 4 1 ; $ ; ; ; , > 3 % 2 1 , 1 1 1 < , 3 3 4 4 5 1 - , 3 1 , : ; ; > 1 1 1 1 < 1 1 3 4 3 4 4 4 4 7 < % 5 ; , , 1 - ; 1 2 , , , , , , : , , < 2 : * ; 1 ",
"= = = ; - - - - - - ; 4 7 # ; ; ; ; > ; > % , , < , > > ; , 1 , 1 1 5 % ; ; - = - < < : ; , , , < 1 1 1 1 1 1 4 4 1 5 4 - 2 ; : 1 ; * ; > - , : ; : > ; & & 1 1 1 > - 1 ; ",
"& & % & % & & & & - - = - o # $ % & % = & # # ; ; - - - - & # - ; - & . # $ $ $ $ & & & - - - & & - ; - - = ; : * & & * + % & % % @ @ $ - $ @ % & & & - o % # # & & O @ # ",
"x s = ; v N Y R [ Q } X.&.:.#.[ X.#.$.~ ~ ~ V d o 8 A E { X.#.&.;.<.2.C o.{ } Q { } W E D v $ , j n R Q E Q Q { X.#. .&.;.#.E } ~ L m h   w b V W F Z Z U Y W A U W } } L ",
",._ w > R <.,.2.>.<.;.&.-.,.,.2.2.<.2.<.2.<.&.v - 8 &.<.<.<.<.2.4.6.;.1.<.<.-.E ,.2.2.,.-.v 0 6 *.6.,.<.,.;.>.<.,.2.,.2.2.3.4.2.4.<.-.l , s O.,.:.2.>.>.,.,.,.,.3.2.,.,.>.",
"h 9 2 < w i s s s s d f k j d d s s i s f g g 9 > 1 i g f f j f d z x d g h k k g s e w i 9 2 1 e y s s f f f f g d s d d d s p p a i i , 5 y s f s h d d k D m g i y s p ",
"i 9 2 ; , 9 e e i i r e r r r i y r r y a a a 8 ; 1 i i i i p i a y i i i i a a i s r 8 9 4 1 2 9 e e r r r r y e i i y y r r r y y e w , 5 w r y t i s z s w w e e e w w ",
"9 1 1 - 4 9 e e 8 9 9 0 i p d 0 w w 0 w e e w 8 : 4 7 i i r e r 9 q e e w q e q e e r r r 4 < , 6 6 5 8 w w w w w w w w w w w w w w w 9 ; 2 5 8 w w 0 6 6 9 8 9 8 8 8 8 5 ",
"5 4 * : : 5 1 4 5 4 5 4 2 2 5 p 8 8 6 6 8 6 6 1 - 4 1 w 9 5 5 5 5 8 8 8 7 7 9 9 8 0 0 8 9 4 1 , 1 4 5 5 5 6 8 8 9 9 9 9 8 8 8 6 8 9 e 5 % 1 2 4 5 5 5 2 4 4 4 5 5 5 6 5 4 ",
"< 4 ; & , 4 4 , 4 , , 2 1 1 2 1 2 4 2 5 6 2 2 2 - 1 2 2 2 4 5 2 4 4 4 5 5 5 5 5 5 6 6 5 5 5 , : , 1 4 4 4 4 4 4 5 6 8 6 6 5 4 4 5 5 4 2 % , 2 1 2 2 2 2 1 1 2 2 1 2 2 2 , ",
"- 5 & & < ; , 1 , : , , 1 1 1 1 1 , 6 2 1 1 5 , - ; 1 1 1 2 1 1 1 2 4 4 4 4 4 4 4 5 5 4 4 5 , % , 1 1 1 , , 2 1 1 1 2 4 5 4 4 1 1 3 6 : * ; 1 1 , 1 , , , , , , , , , , : ",
"* 6 : * 1 ; - - ; : ; < , , , , 1 : - : 1 1 5 1 * - 2 2 2 4 1 , 1 1 1 1 1 , > , 1 2 1 1 1 5 ; - : : : : : - : : : , , 1 1 , , , , , 5 1 & - 1 , , : : : : : : - ; : : - - ",
"4 2 < : 1 ; ; - - - - - 1 4 < : : - - - - 2 : 5 * 1 2 1 ; - - , , < < 1 , ; , , < , , 1 2 4 4 ; , , , : - : : - - : , 1 1 , , 1 1 4 , 5 - , , : 1 , : : ; ; - : : ; : , , ",
"# # @ O & & & & & & & * # & & # % % % - - > $ # @ # $ $ & & # & - * - ; * * - - ; ; ; & - = O @ % % % % % % # = - ; ; - ; , , , : * = = O % % $ % - & % % & % % % = $ $ % ",
"} &.*.[ [ [ E [ ~ E Q m # & c F ~ Y T Q E Q X.,.1.>.X.E Y W Q Y F V % # z Y $.$.$.-.-.>.>.<.4.5.&.-.;.>. .Z e O x F ;.>.>.-.X. .X.X.X.o.{ X.A Y Q L t @ 0 z D L /  . . .:.",
"6.6.3.6.,.} *.,.:.2.0.~ 8 : m :.>.2.<.<.,.;.-.-.;.*.>.;.>.>.*.1.6.} 6 1 K >.2.3.>.-.>.>.>.>.>.O.$.<.>.<.4.:.s & M 3.3.<.4.5.5.<.<.,.<.X.o.A X.-.2.4.e , L ,.2.4.5.3.<.2.5.",
"k k i k n n j i i i d 9 6 ; e r s c c n k i i i i i a a i i i t i 0 5 < w r a s s s s s s d d d h d h d d d w - 7 w u i d d x n z d h x a d d g s c 8 ; 4 z c h y i a i y ",
"9 q i i 9 9 e w e r s 9 8 * 8 5 5 5 5 5 e h d w e t t t e w e w 9 w 4 ; 9 e r r y e t t r r r i a a i s a a 8 - 8 9 w e s y t y t i j t t a i a a s 8 ; , t q w w w e w 0 ",
"9 3 7 9 9 8 9 9 9 0 i 6 5 - 2 2 5 5 4 5 4 5 5 y i a 9 w q 9 9 9 9 9 < : 6 9 0 0 q q q q q w w w w w 0 w e e 6 : 4 7 9 9 8 q q q e t 9 q q q q q t t 9 ; , t 7 8 9 q w 9 8 ",
"< 1 4 4 4 6 9 6 9 9 9 5 2 * : : , 4 4 4 1 2 4 4 4 5 t 8 3 3 5 7 6 4 2 1 9 0 0 5 5 6 6 6 8 8 6 8 8 8 6 8 9 w 6 - 4 4 5 7 8 8 8 9 9 5 7 9 9 q q 9 6 t 4 - > 5 3 5 7 5 6 6 5 ",
"- < 1 1 1 1 4 1 2 5 6 6 5 & 8 6 , , , , , 1 , 4 3 3 3 3 1 1 4 5 7 6 2 - 1 2 5 6 5 4 4 5 5 5 5 5 6 6 5 5 5 4 4 ; 4 4 4 5 8 8 8 5 5 5 5 7 4 7 5 4 5 9 , = 3 8 5 4 3 1 1 6 5 ",
"= > ; ; < , , < 1 1 4 , < * 2 < , : ; , 1 , 1 1 1 , 1 , , , > 1 < 1 - & 4 1 1 1 1 4 2 4 4 4 2 4 4 5 5 2 , , , - 4 3 3 4 5 8 5 2 1 1 3 3 4 4 5 5 4 0 ; % 1 ; , , , , , ; 4 ",
"& - ; - - - - > : : 4 1 < - 2 : ; > - , , , , - > ; > , , ; ; > < 9 > & 5 1 < 1 , 1 1 1 , 2 2 , , 1 2 , , 5 4 * 4 3 4 5 4 2 , , 1 1 , 1 , , , 4 4 r - * 1 , ; ; ; ; ; - - ",
"- ; ; < , 1 , , 1 < ; 4 1 * ; 1 1 < ; - 4 ; & - > , 3 , < ; > 5 5 4 < & 4 1 4 5 4 1 , 2 4 5 4 5 4 2 2 1 , 2 8 & 5 5 ; # * ; , , , 1 1 1 , , , 1 , 5 1 , 1 ; , 1 3 2 4 3 , ",
"O O @ @ @ O @ @ @ @ # & $ # + O @ @ O @ % $ @ @ # @ O @ @ @ O # & & & & & # # @ @ # @ # # @ @ O + # @ $ $ % % $ $ @ @ @ @ @ + + O O O O @ @ @ O @ @ $ * % $ @ + o + + + + ",
":.*.f o r [ #.R ,.3.4.0.0.0.5.2.<.;.2.>.3.<.-.-.2 * n O.-.>.4.8.4.q.w.8.8.:.<.<.3.2.<.<.:.:., & L $.2.3.4.4.8.8.6.4.2.-. .h $ p d c c N K _ O.-.:.2.8.0.5.>.-.:.O. .5 - _ ",
"[ } q % s A #.b F %.+.-.-.+.-.#.X.} { } V ] -.X.2 2 c >.2.2.X.[ $.<.3.3.;.&.{ ~ } -.>.-.[ [ 8 1 b $.-.O.O.<.2.2.>.2.2.4.:.p * f k h n Z N R &.,.3.4.4.2.Z v f c L / 4 4 c ",
"u u q % 1 8 8 h i 0 y i p y s s s i i y s f s 9 1 1 5 y r 9 7 i h s k A v c d a d d s s p i 5 , 5 w w w 0 w w e r r r y w 0 - 2 5 8 t 9 9 q w 9 s k h 8 8 w 0 0 q a 3 4 7 ",
"q r 9 & : 5 6 8 8 0 9 8 0 0 w r e w w 0 8 6 6 6 1 , 5 5 5 y j r 7 5 5 w w s f z d s a i i e 4 < 4 8 8 9 0 0 0 w w w e w w 0 - 4 5 8 5 4 7 9 8 7 5 5 5 5 5 8 9 0 9 t , 1 w ",
"4 9 4 * : 4 2 4 5 4 2 4 6 8 5 9 6 4 5 5 4 5 6 8 ; 1 4 5 6 4 4 7 7 7 5 7 7 7 9 5 5 u i r 0 0 3 : 1 2 5 9 9 9 7 9 9 8 i i i 6 & > 4 5 3 3 3 4 4 3 2 2 2 2 4 4 5 5 4 9 , ; e ",
"3 8 , % : , 2 1 1 1 1 1 1 1 2 4 2 4 4 4 1 3 3 4 ; , 1 2 2 1 3 4 4 7 4 5 5 4 5 5 5 4 5 6 9 9 : * : : : , 4 w 0 w r y w 8 4 2 & ; ; : , , 4 6 6 8 5 , , , , , , , 3 4 , - 1 ",
"1 5 : % : : : : - , 1 : : - - : > ; ; , 1 1 1 2 - ; 2 1 1 1 1 4 4 4 4 4 4 4 4 3 3 4 5 4 4 2 < & , 4 6 7 4 < 1 1 2 1 2 2 2 < & - : , : : ; ; : , , 1 , : , , : , , 5 ; - , ",
"> 5 2 % , - ; - ; : : : - ; - - ; ; , , > > 5 1 ; , 4 < , 1 < 1 1 1 1 1 1 4 4 3 3 4 1 2 4 4 : ; 2 : , ; : , , 1 1 1 1 1 1 2 & - - - - - - ; ; : : ; ; * : , : : ; 4 ; - 5 ",
"9 9 9 $ 1 1 1 1 2 2 1 , : , 1 1 < , < 1 1 1 5 4 : 2 5 : ; 1 < 2 4 4 1 5 4 4 5 1 1 2 4 4 4 0 9 ; & 1 1 ; ; 1 1 1 4 4 , 8 9 3 & 1 ; ; , 4 4 1 4 , - - - - ; : , 4 4 5 , ; 5 "
};
