/* XPM */
static char *_8b49f38cdd449ea884930408570641c0GVa2ed7VglNkVlE[] = {
/* columns rows colors chars-per-pixel */
"85 85 146 2 ",
"   c #1D1B1D",
".  c #211E21",
"X  c #242225",
"o  c #272529",
"O  c #29262A",
"+  c #2C2A2D",
"@  c #312D2F",
"#  c #2E2D31",
"$  c #312E32",
"%  c #343235",
"&  c #363539",
"*  c #39363A",
"=  c #3B3A3D",
"-  c #403C3F",
";  c #3E3C41",
":  c #413F42",
">  c #3F4044",
",  c #444245",
"<  c #484546",
"1  c #464449",
"2  c #49474A",
"3  c #4C4A4D",
"4  c #514E4E",
"5  c #4E4C51",
"6  c #514F52",
"7  c #4F5057",
"8  c #545255",
"9  c #595556",
"0  c #5A5957",
"q  c #565559",
"w  c #59565A",
"e  c #5C5A5D",
"r  c #625D5E",
"t  c #65615F",
"y  c #5E5D61",
"u  c #615E62",
"i  c #5E6060",
"p  c #646264",
"a  c #696566",
"s  c #6B6967",
"d  c #666569",
"f  c #69666A",
"g  c #6C6A6C",
"h  c #716D6E",
"j  c #73706F",
"k  c #6E6D71",
"l  c #716E71",
"z  c #6E7072",
"x  c #747274",
"c  c #797576",
"v  c #7C7877",
"b  c #767579",
"n  c #797679",
"m  c #7D7A7C",
"M  c #817D7E",
"N  c #84807E",
"B  c #8A847F",
"V  c #7E7D81",
"C  c #817E81",
"Z  c #858284",
"A  c #898586",
"S  c #8D8986",
"D  c #868588",
"F  c #898689",
"G  c #8D8A8C",
"H  c #918D8D",
"J  c #94908F",
"K  c #8F8D91",
"L  c #918F91",
"P  c #959293",
"I  c #9A9695",
"U  c #9D9996",
"Y  c #969598",
"T  c #999798",
"R  c #9D9A9B",
"E  c #A09A96",
"W  c #A19D9D",
"Q  c #A4A19E",
"!  c #AAA39E",
"~  c #9F9EA1",
"^  c #A19FA0",
"/  c #9FA0A4",
"(  c #A5A2A2",
")  c #A9A6A4",
"_  c #ACA9A6",
"`  c #A6A5A8",
"'  c #A9A7A8",
"]  c #ADABAA",
"[  c #B1AAA6",
"{  c #B2AEAC",
"}  c #B4B1AE",
"|  c #B8B0A9",
" . c #B9B3AE",
".. c #BAB3AE",
"X. c #BBB5AF",
"o. c #B5B3B2",
"O. c #B9B3B2",
"+. c #B9B6B3",
"@. c #BDB6B1",
"#. c #BAB6B4",
"$. c #BCB8B2",
"%. c #BDB8B4",
"&. c #BCB9B6",
"*. c #BCB9B7",
"=. c #BFBBB9",
"-. c #BDBBBA",
";. c #C1B8B2",
":. c #C1BAB5",
">. c #C3BBB5",
",. c #C1BCB7",
"<. c #C2BCB7",
"1. c #C6BEB4",
"2. c #C1BDB8",
"3. c #C1BEBB",
"4. c #C3BFBB",
"5. c #C4BEB8",
"6. c #C5C1BE",
"7. c #C9C1B9",
"8. c #C9C3BE",
"9. c #C9C4BE",
"0. c #CAC5BF",
"q. c #CCC6BF",
"w. c #C6C3C1",
"e. c #CAC5C1",
"r. c #C9C6C2",
"t. c #CCC7C0",
"y. c #CCC9C5",
"u. c #CCC9C7",
"i. c #C4C5CB",
"p. c #CECCCA",
"a. c #D1CAC3",
"s. c #D1CBC6",
"d. c #D1CECA",
"f. c #D4CFC9",
"g. c #D4D2CD",
"h. c #D9D5CF",
"j. c #C2C7D4",
"k. c #D6D5D1",
"l. c #D9D6D1",
"z. c #DBDAD5",
"x. c #D6D7D8",
"c. c #DCDCDA",
"v. c #E1DFDA",
"b. c #E0E0DC",
"n. c #DDDDE1",
"m. c #E5E7E8",
/* pixels */
"c H P J H , M ) [ { [ X.X.@.X.@.@.:.,.+. .{ E I H a #.2.5.0.t.q.0.e.8.0.f.f.a.7.7.8.U M _ +. .;.! * U &.&.&.2.=.&.O.O.&.2.=.&.2.e.y.a B | @. .{ J u X.:.,.:.:.:.;.1.;.X.,.",
"h M Z H H r 9 U E ) W ! ) [ [ _ _ ! W U U W E U U a S A E [  .:.+.:.@.{ E U ! { } $.U M P P U I Q 3 c Q U ( _ _ _ ] W P Q ] Q W #.] c H [ ) _ W I e x { [  . .{ ! E U I E ",
"d b m m M e 9 Z H U U I H H G I U W E J I U I I I p A S H I E Q _ _ U U I H H I U ( W m I P P G H 2 e b G T L ( R I L L P I I P U W x A H Q W U J g e c E I I U E U I U E ",
"g b c c c 8 , a x x H J P H H J H H U Q U Q U I J a G A A H I I P P P I U U R R ` { ] g M A Z Z Z , u b b b F g x C G G G G H L L ^ Z n n m Z Z A a x Z H H P P H P I H H ",
"u c b x x , 3 m M G m P I P H H G P I I E U U S M 3 L S A Z m Z S L P P I U U U ( O.E f H H I U Z , y m n x g g g f x b x C Z Z G R Z x ( ] { ) A ; 0 h g c Z C M M A S S ",
"p D G L T r , h n Z F Z H H G G G H H G H I H H I 8 p b x s f p x Z G H L P P P I _ H n P H I P ( ; u x k g f g g f g g x b m V C ^ Z A W Q U I P : 9 p p u b H H m m l m ",
"6 x C C F e 4 e 0 a p x H P P A Z Z Z M G I H H H u l l m x c l e 8 b Z G P M f g W S l G G P P P = p u w p d a p d d d g k l c x F M b U E U U P , 8 g l f 9 w e p r p a ",
"5 p x C C p < = 2 , , 3 , , 3 = 2 3 3 5 5 x G A P 9 f 9 8 9 u p e 3 , g u 6 w 0 y l G p m M A P P = 5 1 6 w 9 w w w 9 y e 9 3 a w x M c x A L G K < 6 ; 5 w 5 5 3 8 8 9 u ",
"O % % 1 5 , + O . X . . . . X   . X $ % = 9 r x Z a y 0 9 2 O + + O o $ + + O O + - x f f w 8 y f 9 * + % * % $ # O X O + + 8 3 9 x K c g a w n n p 0 3 3 = % $ O . o $ X ",
"] =.7.y.s.g.0.8.8.7.e.6.} ] 8 c ] R T ' w.=.g.g.g.g.e.2.=.e._ x { O._ } I p e.y.2.d.g.g.d.d.y.d.d.g.g.g.7.6.9 S ! } { [ _ p j.x.z.n.m.x.k.z.p.n.v.z.z.z.z.h.E 9 M I W ! } ",
"P P _ { _ _ ,.2.&.=.&._ ) _ m w Z F P ] { ) R O.{ o.o.o.o.] ] c I U I ^ W , ' _ ] #.#.2.2.#.+.&.e.f.d.6.6.y.Z { { { &.&.+.H G I I U +.6.2.&.o.] { [ } 6.y.y.[ h S E ) ) [ ",
"m G T I W E _ _ _ ) ) U E W c d C G T P T ] ) I ] o.] ] ] _ ( x I I U ) ( 6 P U U W W W ( ) [ { _ ) O.2.2.#.M W _ _ [ { ] N m I U W W ) _ _ ( ) ] ] ) Q U } [ a v M S Z Z ",
"m m m G I _ _ ] ] W W H H J c 5 < b P P T R ( U T ( ' ` ` ( W h G I E U R 3 b H P U Q ( Q W W ) ) _ ) ] { O.m H U U Q E E M r U W W W ( _ ) ( Q W Q Q W ( _ ! r c x M M M ",
"u l b C Z F P ( ( W U A A Z a 6 3 , m A L T Y P L P P ( ( Q U p M G G I I 2 Z A S H U E Q Q Q W ) _ ( ( ' } x m A A G J S t 3 A U U R E W W R W W W W Q Q  .[ 9 c a r p c ",
"p l x b b m C R U U ) ) _ Q h 8 6 f p d l Z G G C x D P ( ( W x W ` ] { U 3 F Z G P P H W Q E U I U ) ( R O.c I Q _ _ { } a 0 n I P I U U U T U Q W W W Q }  .8 Z A A x 9 ",
"u g g g l m h g I U W E W U m 9 y p y y g k x l x g u x G T P m E W R _ { 3 C m m m C F c T U U W W R T U E g h G E U R ( b u 9 u b F H I U ( _ W R W W U ' U h v M m c f ",
"w d g f a w 3 3 0 A U I I I v 9 5 2 w 3 : y f p d p y w w F L x I I L I ] 3 c C c g l x g x F L H I I P I U s x h C G H P h 0 n g u f Z G H F a 2 : 3 2 2 A U p v m l p 8 ",
"* , 3 6 6 3 6 3 2 1 c H A G h 3 = % 1 1 : + = 3 8 6 ; : : 9 T e M Z m c L , 8 8 9 p f g p 8 w 5 < e 3 6 8 ( g g m C C Z F p e , ; : : = & $ % : 2 2 , , , 2 _ 4 h g r e 3 ",
"  + = , % o % 8 u a a p g m G m a p p 3 2 2 9 e o + 2 3 9 p m m g p f x Z Z f p 0 8 * % 3 3 8 , % + % 5 p x Z x g p a g x n z w 8 4 + + @ , 6 , $ + % , 2 0 g v m p 8 , < ",
"E +.o.o.+.e L y.s.s.s.y.y.e.y.g.g.g.g.p.e.e.6.} P 9 o.w.2.=.6.e.w.y.p.e.y.e.y.d.y.p.Z m ] 2.w.6.y.a c y.l.z.z.l.k.k.k.g.l.l.h.g.h.k.G F { 2.=.+.' : ( 6.2.2.2.2.6.e.6.e.s.",
"I ( W U U h u I @.2.5.&.e.2.#.O.2.y.6.O.@. .&.o.) e G F P T T T _ ( Q ( ( ( ( ` } #.T G _ ] &.#.=.v l L +.+.&.2.2.2.6.y.6.6.6.0.6.6.J A { { { ] } 8 Z R ( ( ( { =.d.&.P ] ",
"n Z F H I c e M I U W U _ ( } { ) ( } +.} { { _ U e n Z F P P I T W ( ` ( ^ ( ( ] R P Z ( ` ] { &.M f m &.+.&.=.O.O.&.+.+.&.&.o.#.=.I Z ) _ _ Q ) 8 k g C D F G G G G L P ",
"b F G H P l 9 M H I P I U ( ( { _ ) ( ] ) ! _ H I u n C A Z A G I T T U R T T U T ) Z M U T ( ( ] c e v Z _ +.O.o.{ { } +.&.#.O.O.&.J c U I I U E w p d m Z Z Z Z Z F G G ",
"w b Z A H e 8 c A W U E U I W I Q Q ) ) W E M Z Z w b C Z C Z Z H P I I I I I I U ( H p l x m H I p g H Z x ] } o.{ { { ] ] } { o.} S f Z G H H Z 3 y f m V Z C Z Z Z Z A ",
"x A F H H 4 9 f M U I P I I H H U E E Q Q { Q W U 2 l x m D F F D F G P P P P I ( W J h P P I _ _ e f F m x f ] { } ' _ R I ] } { } H m G P P ( W 9 e p b b n m C C C Z m ",
"k F G A U 8 9 e a p P P P P U I c H E W U ) W ) E 8 g b m b V V V F G Y I P P I T T A x G L G U ] g p F M c f c ] ( W P G G L ( ' } S F G G I W _ , p p g d k l g b b x C ",
"g b m m G r e 9 6 2 a I H A A A c c G m Z ( U W P 8 g k k k k b m Z D Z P P L Z Z W A h F G G L ` g w G Z m m g g I T L K G F F A Q S Z G G H H U 2 u e e w 8 3 , 2 5 q 8 ",
"a b m M m e 3 6 8 6 : 6 x l h g 8 , g Z x A I P A 2 9 w 8 w d g k k p p y w d b d P G p M G G F T p q m m b b f p , c G G F C b c ] M f Z G L F I ; 5 ; 1 1 , 1 5 1 3 5 2 ",
"o 1 < 4 9 , % % # $ +   + @ $ $ % % + @ % * * 9 g , , = * % O & % $ $ & = , % # * , g 2 < 3 2 5 9 0 , % $ & = * * % O % = $ % % * = e 2 & # # 1 8 8 = % + + % % $ O O # # ",
"R o.#.w.e.6.2.=.} } { _ Q T p o.e.e.e.e.d.g.l.l.h.z.c.z.g.d.P x { { _ { { 0 G o.2.d.d.l.g.p.w.=.y.e.y.e.6.6.u Z ] O.o.o.} y P w.e.d.d.d.g.k.6.+.t.s.8.{ 2.t.+.8 A ) Q _ _ ",
"H ( ( ] } } } &.+.{ { ] _ R c G { _ _ _ { +.+.6.y.y.e.&.&.y.] Z Q ] Q ) &.l Z O._ ] ] ] ] o.} #.2.=.=.=.#.w.Z W { ' ] O.=.F e o.+.+.,.2.o._ _ $.7.8.2.&.+.e.+.c Z W U Q { ",
"b P I H W ) { o.] ) W ( W U x g ' W _ _ _ { } } } } +.&.2.6.{ c U U ( W { x l G T T R T I ( ( ( ` ] ` ` ( ] F H U ] _ ' } F g E ) Q E U U _ { _ { { [ ] ] o.{ c c A A Z A ",
"c n F G H I U I I U U I P P x e T U ( ) _ _ ) { ] ] _ +.} ] ) c P U T ^ ( h C L P P G T T F F G P I T R ~ ( M A H T U W U Z e I E U I _ { ] ) ] E I E _ ] ] { x c M m M M ",
"k Z Z A A A F U U U I I P H a y L T ( _ U Q _ ) ( ) ( ( o.{ ( p P I G I P p l G F F Y G F G G G G G L P I R h x Z H T W W t 8 M T R R ^ ) _ ) ) ( ] ] Q W W Q r e g g m m ",
"d n m C m m c c Z F H P P G 9 8 C f 6 6 P W ^ ( ` ( Q W W { S m F I o.( _ h l F K K D F D D Z D G K T R P ] n V Z A W W ] f 8 F P I U U W Q ( ( U I P P I I { 9 M G m c c ",
"u g g b b x b m C Z M c Z C p 0 g p p g x Z Z H F F G P G { G m G F Y Y ( x p F m V Z V Z k V D G G Z D G ( x V P L P R _ C 8 x m L G H P H Q R I P P I U U ) h m M m x x ",
"8 w 5 e p c x g x x Z F F C a x p d f f w w C l a x l g g _ T x C G G T R g u b b m V V b D V V k l n V C P c c V G G P T m e g w 8 Z F C c P R I H H P I U _ h c m x g g ",
"% = = = = : 5 w 9 p p f l l 8 y p p p p p w y C C c m b V F G 0 n m D F P 0 w 1 8 k g x b b 8 5 y y y f d V h g V Z Z F P d w 9 8 6 : l F g < g h a x u e a P a a h h g w ",
"X O O + + $ O * 1 1 1 3 3 3 i 5 ; = * * * # $ # 2 & # % = 2 g d y 0 3 3 e a 9 , = ; # # + + $ $ * , y 8 q f n d p g g p 0 u e 8 3 : # + # + # $ % * * = = : 3 g f u 8 % O ",
"I ( R W I - R #.=.6.e.y.d.k.g.h.d.y.e.w.2.&.o.' Z 8 o.2.d.l.l.l.z.z.k.p.g.y.g.d.y.y._ g ' o.=.&._ k i.c.k.k.k.k.l.h.g.g.g.z.l.k.k.g.G k ^ ] ] ] ( 3 =.y.6.e.g.e.e.y.d.y.e.",
"F W R T ] p U &.&.#.o.{ _ _ e.y.e.0.2.&._ Q _ ] ( 8 Z _ =.2.6.y.e.w.w.w.w.p.d.k.g.k.} l W ( ( ] &.l x _ p.d.p.e.2.y.y.6.2.y.y.p.d.y.U C R _ ' ( ] g G p.e.6.2.6.p.y.y.0.6.",
"m T I I ( g A U I P L P P I T ` _ ) ( Q ( Q Q ' ( 8 x C C R ( ( _ ] { { { _ U R O.w.o.x U ( ( ] ] l l W ) ' ] { O.{ ] ] ] ] ] ] ' #.R m Z P R ^ ] l x _ } +.=.} ] { _ ( _ ",
"b Z H H ( l g x C G H P P I I P U ( ) ( _ ( W P ( 8 x b m F Y ( ] ] ] ] ] ` ( U T ] ] g F I ( ( _ g f W ( ) ( ( ' ) _ ] ] ] ' ` ` o.U x Z Z P L T h m Z F G G I I ( ) E I ",
"g x x m L 8 a f g n m F P L H P H ( ( _ E P H H Z 3 b m C F I Y T R ^ ( ( ( ( ^ R o.] 9 m m I I G w p I U ( W W R ( ` _ ] ] ^ ( W ` G r Z Z G A n 6 l F F L Z Z A G W W U ",
"f m G G P , p f x n V Z Z Z F G G H U U _ _ _ Q I 5 g b Z K P P P R R R ^ ( ( W ^ ] ] m ) _ ' } #.p k T R R T T R R ^ R R T T R T ( H p L P G P W 8 l n L G A m C C m I I ",
"f m C Z I 6 p g l b m m V Z Z Z F F F P W W U P U q k l x m Z Z D G P T R ( ( ~ T ] U j I P I Y ( g w F T R ^ R P I I H G G I T U ` P l Z Z F G U 8 d x b C C C Z M m Z H ",
"e n C Z P 9 f g b x b x n V Z Z A Z G L P U H T T w k m f l b m V Z Z Z L L T R T ~ ( x T I P P ` a e l Z Y R ~ R T F Z F L L P P ' G x Z Z Z G U 3 f g k l m m m x l l x ",
"5 y b x F 6 8 1 1 y e p f k g e y g b x l F T I I w f y V p k l k x g y 8 p d d g n ` 2 x G P P P u u w 1 1 6 b Z f 9 y y p l x a n L p C V V m F 2 p 6 5 w g p w u p p 0 ",
"+ % : , 3 4 , # + X # + $ X O # % = ; 8 w a p l c g p 8 1 % * : = * # , , = * , ; ; x d 8 5 p g a p 8 ; ; % % $ % % & $ % $ : 2 ; x n f w e p p x c e 9 < % O : * % = % O ",
"o.e.y.e.e.8.0.Q C O.=.&.=.} g Z e.p.p.g.g.l.z.z.c.b.c.c.c.k.} y ] =.=.=.=.9 P =.y.g.g.k.k.x.y.k.k.k.x.k.p.p.c G O.w.p.k.=.x p.g.p.c.c.c.z.v.c.c.k.z.l.z.k.p.' u ' _ W y o.",
"U o.&.[ } &.,.U H ] _ ) R W Z f =.&.#.=.y.6.w.0.w.y.d.z.c.l.=.c ) ] o.] ] n w =.] ] ] ] ] =.o.] ` ( ` o.&.+.F Z I ) ' ] { G n e.#.] O.w.y.p.d.d.p.2.=.2.&.=.( a I I ] f Z ",
"m G P I W Q Q I M I R U U U Z 6 A U R I ` { =.=.=.=.=.=.6.] #.c U T I W ` m p K ~ ` ] ] o.o.( T R R R ( ( { A C G R _ _ ` Z 9 W Q ( ( ( ( _ ] _ Q Q ( ( ( ' ( a G P ~ e f ",
"n F G L P I E I x F L P P L n q Z P P L G F Z T ] 2.=.o.} { o.x R T R ~ ` k g b V G ^ ~ ~ ~ ~ I R P T ~ R ' Z m H L I T R Z w _ W R U I T R ( ( ( ( ( Q ( I I r c A P 8 y ",
"l m Z F G G H J p x b C A m 9 w l P P L L G Z Z m D G m ) 2.O.p H P P T R p p x b n b Z P K K F G ` U P Y ( b a g Z G G G a 5 ( I P L P Y I I R ^ R U W ( ( U 4 g b V 2 e ",
"f m C Z A F A Z c I ( ( ) ] m y 2 F L P L G F Z x y m A A { { l P Z F T ` e w k x Z D V V V Z Z Z Z D P R ( m m P Q W ) o.p e M A H H L L P I T U R R U I ] ) e A P H 6 u ",
"u x b b M Z Z n m H P P T W m w 8 M F G K G C m b l C Z G ) R c T T R ' } u y k b k b m m V V Z Z V V V D ` V Z G U ^ ^ ] f 1 P G Z G L L P R U U U G H I ' Q p S G L u 5 ",
"8 p g f m Z F m j m Z F F M l w d 9 m G L G x m b b f b Z ] ' x P I Y P ^ a y 7 f p g k g k k b n n n n m Y Z C F L P P R f 5 x F F Z Z p q = p c C Z A m ( _ e n F I e 6 ",
"& ; , 8 5 2 9 l u M Z F m n u 0 3 , : 1 w p 8 8 g g g y w f ] p G G G C L 9 5 8 w y p p y y y y y p g p w m n u C F G Z D g w 3 ; ; , , 1 5 1 1 1 5 5 5 3 w R 4 a m T 2 5 ",
", , 8 9 8 9 a b l e e p p s 8 8 8 3 1 3 ; O , 3 * 3 e 0 y f M Z c Z m m N H x p 0 3 % O $ 1 5 8 , $ q g x c G Z c b c x Z Z g p 8 4 O * 3 8 8 , O $ 9 p f g m m p h M x e ",
"U ] ] =.2.=.&.2.6.2.=.2.w.d.6.` o.] ^ ( R m ] =.( ` y.p.y.g.z.z.z.v.z.l.c.z.z.l.k.p.] g o.=.e.p.o.p =.p.g.y.g.k.l.z.k.g.d.g.g.p.y.g.M A ' { o.] U 0 =.w.e.6.6.e.W 2.2.6.w.",
"P R P ( ] &.O.2.=.o.] o.=.w.{ A G P I R T c U U U _ &.=.=.} e.e.O.O.O.#.o.} #.6.w.&.] A R ] o.o.=.p =.#.y.w.2.=.O.O.2.e.=.&.O.&.&.6.H A _ ` _ ` ) 2 A o.] o.o.o.T ^ ' ( W ",
"p m C K D L T R R ] ] _ _ J M b G P P G I c I J H A I E ( _ ( _ _ _ { ' { ] ] ) ] o.` m P T ( ( { y ] ` ] { ] { } ] _ { o.{ { } o.#.G M P W W R W 3 e l G G G G Y K G R T ",
"u k k x x x n T R R T P P P Z x m F G G G a A H M n Z G P I I I U U U ( ( ` ( ( W ^ ( x G P ^ W R w I T W I P P I T R ( ( _ ] { ) { F C P U R I P 3 e b Z G K G G C m Z P ",
"w p d g g d d y P R I P P G G 9 l m Z Z x , f l e l M Z A F F G P I T T P U W W R T I u Z F G K F 8 K Y P G G P L K P R R R U T W _ Z l G P L G m 1 9 g V D F G Z C b k u ",
"5 y p d d p d p w m P P H Z m g N A H H G a F F u g M Z A G G G G G G L H I I U R R R g Z T R _ o.0 Z I P L L P P L H P I P P P I _ A n P U U I P 8 9 p l C C C m x l g f ",
"3 q y y y p d p w 6 d C H Z n x F G G F G a Z Z g g Z m Z L G G F A Z Z F G U T R ^ I h m V Z P T 8 x P I I P L G P P F F G G G P ] A b Z H P F A 6 a u 9 k m C l g k d p ",
"; 5 q y w y p p w w 8 6 w G Z f M Z Z F G l m C g e m m x b x x x c C Z C Z A H I U P p b b x n G 5 w m C F L G G G G G A Z P H Z ] A l C F G H F 3 e p y 1 w 8 9 w w 9 9 ",
"# > 1 5 w 5 5 5 3 3 w 1 1 , a 9 g g a n c f 8 a f , * ; g p 3 2 u 0 9 u p 3 = , 5 u M 8 d y d d x : 6 : < 8 e u p p f u e 8 8 3 5 x Z 9 l f Z x p : : 2 5 1 1 ; 2 3 2 1 , ",
"4 p g 0 3 < % a x c m M Z G ( ( ( ( W P U U H M e $ y l g f g f f g k c v m m M J P H p M G J P G P F G Z m m c x g a g 0 X , a f n P P Z M M F I I F N n m x + 3 r p r r ",
"Q 2.2.2.w.y.m I w.6.2.e.6.w.w.w.&.6.e.p.w.6.6.2.#.u =.e.y.6.e.y.6.w.y.0.0.w.e.2.#.p.6.R } +.o.=.2.6.w.e.g.h.g.g.g.p.w.2.y.a ] o.y.g.d.d.d.y.d.y.e.e.6.6.y.w.6.v W @. . .{ ",
"Z W ( U P ( c e T U ( { #.} o.o.o.O.O.{ =.&.=.o.W 0 F U I ( ( _ ] [ { { { { ] _ ( ] ( f G P o.&.=.o.#.#.{ } o.=.2.=.o.#.o.g P ^ +.2.2.&.2.e.d.y.e.6.#.=.w.=.{ e M H E E ] ",
"A J J G G P C 9 A Z Z F Z G I U I T I U U I L H P e g H H I W W Q ( _ ) ] [ ] ] ] ] ] u k x m Z G G L G G H L G G G ^ ( R a V V x S I ( W ] U P P H I P L P A u M Z S Z M ",
"m G S M Z H F y b C C Z Z Z Z F H R L P T I H G I e g A G H I I P I R ( _ { _ ` ( ' { 9 k k b C F G G F F F F F D F F A F g f x Z m M M F F K P F L A A Z Z C b x M M m v ",
"g b Z M Z Y C p x x x m Z C Z A A Z L F P P G C A 9 g Z G H P H G P I P P U W W U T ( 2 p f x m m Z Z Z Z Z F F G G Z Z Z u x k f h c c g p g m C Z C Z C Z x 8 x c l x c ",
"f Z H G L / n 8 g g l c m m m Z n x c Z G H H H E e f c C A G H G H G H H P P I P W R 9 f k b m C Z V C C Z F G F F F Z Z p p p p u p p f f p d l Z Z b n Z U h F m M S m ",
"3 f m Z C R b 5 9 d f l x b x k x m m F m L T I H u g g x m F Z Z Z F H H G G H L W R e f g k c c m m b b m F G b n V Z F f e p f f p y w 9 u p w f x g m Z I l h x l g f ",
"8 p p p l Y x 3 w g y e p d g g d y w p g f M N Z u b l b m m m x b Z Z Z M A A F I ( 3 y p p g f k x x x x e u g l x b D f f f 9 6 8 w 8 3 2 8 w : e e 9 9 D f s j g p p ",
": 1 3 3 3 n y , * # ; = % ; 2 6 6 3 q 5 8 2 1 u g 2 3 = * * = 9 y e e 3 = = w 2 5 9 Z + , 3 , , 2 , 6 w 8 , , 3 9 y e w f e 3 , 1 , = 2 , : : ; % = # % 8 2 6 9 9 r r e 9 ",
"a Z Z M G P U S g g g g g e . 3 b M F G P P U E _ ] R P Z m 9 O e c g x e * Z T R Q ) ] ) W T I P P P H Z h X 9 m Z G G I Q R I P G H G G A Z c 3 % x c n Z P _ ) J N v A ",
"T &.6.e.e.y.y.e.5.2.+._ _ ] x I d.f.h.h.h.l.z.z.z.h.g.g.g.g.U 6 U I ( } } g &.y.d.l.l.l.g.l.h.g.z.z.z.k.d.w.a Q e.d.d.d.d.h.g.y.y.g.y.y.y.y.2.} H u e.e.y.g.l.l.g.s.s.2.&.",
"m P P G P _ ] o.] ) _ _ R T x 8 I } +.6.w.e.e.6.2.6.e.w.{ U U 3 m F G I P p G R R ( { +.=.&.2.} ] ] ] ) T U x u p ] _ { { o._ } 2.+.} Q I J G Z c 8 p { ' W W W I U U _ _ ",
"p p l m b b m Z P I T T I P c 6 f Z G P T W ) W W W U W Z G H 3 c m m Z F p Z F P W ( ` ( R W ( W Q ] ( R U x p e P W ( W U U U P P U I H H H G n 8 e Z I I I I P I P A G ",
"3 u p g x x c m A H P P G G c 5 k A S H P P I P P H G U T P P 8 l x x x V 6 Z I T I P U P I I R U U R W T U g f f L H P T R H G H I U I I I I J F 9 e b U P P P H G A Z F ",
"q p 9 g l l l x m b m Z P H f 1 e Z A G M a e h c A T W ( R W 3 x h c g g < c H Z F G L P P L I T G Z G H I 9 9 V m F P G P G A A U W U E I U I Z 3 8 5 p Z I H G F A M M ",
"; 3 l g p g l f p Z A Z m G c : ; m b e 6 e g f f c G I ] _ ( p H Z A A H 6 8 Z C C Z F G L M g h m M x m P l 5 p p u Z P G G Z M r G P P P G Z Z 8 y 8 u : m L H K Z Z Z "
};
